M48
; DRILL file {KiCad 8.0.7} date 2025-04-29T18:28:44-0300
; FORMAT={-:-/ absolute / inch / decimal}
; #@! TF.CreationDate,2025-04-29T18:28:44-03:00
; #@! TF.GenerationSoftware,Kicad,Pcbnew,8.0.7
; #@! TF.FileFunction,Plated,1,2,PTH
FMAT,2
INCH
; #@! TA.AperFunction,Plated,PTH,ViaDrill
T1C0.0160
; #@! TA.AperFunction,Plated,PTH,ComponentDrill
T2C0.0330
%
G90
G05
T1
X4.55Y-4.775
X4.575Y-3.925
X4.71Y-4.05
X4.975Y-4.1
X5.025Y-4.5
T2
X4.2Y-3.7
X4.2Y-3.8
X4.2Y-3.9
X4.2Y-4.0
X4.2Y-4.1
X4.2Y-4.2
X4.2Y-4.3
X4.2Y-4.4
X4.2Y-4.5
X4.2Y-4.6
X4.2Y-4.7
X4.2Y-4.8
X4.2Y-4.9
X4.2Y-5.0
X4.2Y-5.1
X4.2Y-5.2
X4.4Y-2.9
X4.4Y-3.0
X4.4Y-3.15
X4.4Y-3.3
X4.4Y-3.5
X4.45Y-4.9498
X4.45Y-5.0498
X4.45Y-5.2
X4.5Y-3.15
X4.5Y-3.3
X4.5Y-3.5
X4.5Y-3.675
X4.5Y-3.825
X4.55Y-5.2
X4.6Y-3.675
X4.6Y-3.825
X4.6Y-4.9498
X4.6Y-5.0498
X4.7Y-2.9
X4.7Y-3.0
X4.7Y-3.15
X4.7Y-3.3
X4.75Y-3.525
X4.75Y-3.675
X4.75Y-3.825
X4.75Y-4.9498
X4.75Y-5.0498
X4.8Y-3.15
X4.8Y-3.3
X4.85Y-2.9
X4.85Y-3.0
X4.85Y-3.525
X4.85Y-3.675
X4.85Y-3.825
X4.9Y-4.9498
X4.9Y-5.0498
X5.05Y-4.9498
X5.05Y-5.0498
X5.1Y-2.8994
X5.1Y-2.9994
X5.1Y-3.0994
X5.1Y-3.3
X5.1Y-3.4
X5.1Y-3.6
X5.1Y-3.7
X5.1Y-4.1
X5.1Y-4.2
X5.1Y-4.3
X5.1Y-4.4
X5.1Y-4.5
X5.1Y-4.6
X5.1Y-4.7
X5.1Y-4.8
M30
