%TF.GenerationSoftware,KiCad,Pcbnew,8.0.7*%
%TF.CreationDate,2025-04-29T18:28:44-03:00*%
%TF.ProjectId,ads_headstage_breadboard_v2,6164735f-6865-4616-9473-746167655f62,rev?*%
%TF.SameCoordinates,Original*%
%TF.FileFunction,Drillmap*%
%TF.FilePolarity,Positive*%
%FSLAX45Y45*%
G04 Gerber Fmt 4.5, Leading zero omitted, Abs format (unit mm)*
G04 Created by KiCad (PCBNEW 8.0.7) date 2025-04-29 18:28:44*
%MOMM*%
%LPD*%
G01*
G04 APERTURE LIST*
%ADD10C,0.150000*%
%ADD11C,0.200000*%
G04 APERTURE END LIST*
D10*
X10515600Y-7112000D02*
X13106400Y-7112000D01*
X13106400Y-13462000D01*
X10515600Y-13462000D01*
X10515600Y-7112000D01*
D11*
X10768877Y-13780984D02*
X10768877Y-13580984D01*
X10768877Y-13580984D02*
X10816496Y-13580984D01*
X10816496Y-13580984D02*
X10845067Y-13590508D01*
X10845067Y-13590508D02*
X10864115Y-13609555D01*
X10864115Y-13609555D02*
X10873639Y-13628603D01*
X10873639Y-13628603D02*
X10883163Y-13666698D01*
X10883163Y-13666698D02*
X10883163Y-13695269D01*
X10883163Y-13695269D02*
X10873639Y-13733365D01*
X10873639Y-13733365D02*
X10864115Y-13752412D01*
X10864115Y-13752412D02*
X10845067Y-13771460D01*
X10845067Y-13771460D02*
X10816496Y-13780984D01*
X10816496Y-13780984D02*
X10768877Y-13780984D01*
X10968877Y-13780984D02*
X10968877Y-13647650D01*
X10968877Y-13685746D02*
X10978401Y-13666698D01*
X10978401Y-13666698D02*
X10987924Y-13657174D01*
X10987924Y-13657174D02*
X11006972Y-13647650D01*
X11006972Y-13647650D02*
X11026020Y-13647650D01*
X11092686Y-13780984D02*
X11092686Y-13647650D01*
X11092686Y-13580984D02*
X11083163Y-13590508D01*
X11083163Y-13590508D02*
X11092686Y-13600031D01*
X11092686Y-13600031D02*
X11102210Y-13590508D01*
X11102210Y-13590508D02*
X11092686Y-13580984D01*
X11092686Y-13580984D02*
X11092686Y-13600031D01*
X11216496Y-13780984D02*
X11197448Y-13771460D01*
X11197448Y-13771460D02*
X11187924Y-13752412D01*
X11187924Y-13752412D02*
X11187924Y-13580984D01*
X11321258Y-13780984D02*
X11302210Y-13771460D01*
X11302210Y-13771460D02*
X11292686Y-13752412D01*
X11292686Y-13752412D02*
X11292686Y-13580984D01*
X11549829Y-13780984D02*
X11549829Y-13580984D01*
X11549829Y-13580984D02*
X11616496Y-13723841D01*
X11616496Y-13723841D02*
X11683162Y-13580984D01*
X11683162Y-13580984D02*
X11683162Y-13780984D01*
X11864115Y-13780984D02*
X11864115Y-13676222D01*
X11864115Y-13676222D02*
X11854591Y-13657174D01*
X11854591Y-13657174D02*
X11835543Y-13647650D01*
X11835543Y-13647650D02*
X11797448Y-13647650D01*
X11797448Y-13647650D02*
X11778401Y-13657174D01*
X11864115Y-13771460D02*
X11845067Y-13780984D01*
X11845067Y-13780984D02*
X11797448Y-13780984D01*
X11797448Y-13780984D02*
X11778401Y-13771460D01*
X11778401Y-13771460D02*
X11768877Y-13752412D01*
X11768877Y-13752412D02*
X11768877Y-13733365D01*
X11768877Y-13733365D02*
X11778401Y-13714317D01*
X11778401Y-13714317D02*
X11797448Y-13704793D01*
X11797448Y-13704793D02*
X11845067Y-13704793D01*
X11845067Y-13704793D02*
X11864115Y-13695269D01*
X11959353Y-13647650D02*
X11959353Y-13847650D01*
X11959353Y-13657174D02*
X11978401Y-13647650D01*
X11978401Y-13647650D02*
X12016496Y-13647650D01*
X12016496Y-13647650D02*
X12035543Y-13657174D01*
X12035543Y-13657174D02*
X12045067Y-13666698D01*
X12045067Y-13666698D02*
X12054591Y-13685746D01*
X12054591Y-13685746D02*
X12054591Y-13742888D01*
X12054591Y-13742888D02*
X12045067Y-13761936D01*
X12045067Y-13761936D02*
X12035543Y-13771460D01*
X12035543Y-13771460D02*
X12016496Y-13780984D01*
X12016496Y-13780984D02*
X11978401Y-13780984D01*
X11978401Y-13780984D02*
X11959353Y-13771460D01*
X12140305Y-13761936D02*
X12149829Y-13771460D01*
X12149829Y-13771460D02*
X12140305Y-13780984D01*
X12140305Y-13780984D02*
X12130782Y-13771460D01*
X12130782Y-13771460D02*
X12140305Y-13761936D01*
X12140305Y-13761936D02*
X12140305Y-13780984D01*
X12140305Y-13657174D02*
X12149829Y-13666698D01*
X12149829Y-13666698D02*
X12140305Y-13676222D01*
X12140305Y-13676222D02*
X12130782Y-13666698D01*
X12130782Y-13666698D02*
X12140305Y-13657174D01*
X12140305Y-13657174D02*
X12140305Y-13676222D01*
M02*
