%TF.GenerationSoftware,KiCad,Pcbnew,8.0.7*%
%TF.CreationDate,2025-04-29T18:28:53-03:00*%
%TF.ProjectId,ads_headstage_breadboard_v2,6164735f-6865-4616-9473-746167655f62,rev?*%
%TF.SameCoordinates,Original*%
%TF.FileFunction,Copper,L1,Top*%
%TF.FilePolarity,Positive*%
%FSLAX46Y46*%
G04 Gerber Fmt 4.6, Leading zero omitted, Abs format (unit mm)*
G04 Created by KiCad (PCBNEW 8.0.7) date 2025-04-29 18:28:53*
%MOMM*%
%LPD*%
G01*
G04 APERTURE LIST*
%TA.AperFunction,SMDPad,CuDef*%
%ADD10R,1.500000X0.300000*%
%TD*%
%TA.AperFunction,SMDPad,CuDef*%
%ADD11R,0.300000X1.500000*%
%TD*%
%TA.AperFunction,ComponentPad*%
%ADD12C,1.700000*%
%TD*%
%TA.AperFunction,ComponentPad*%
%ADD13O,1.700000X1.700000*%
%TD*%
%TA.AperFunction,ComponentPad*%
%ADD14C,2.032000*%
%TD*%
%TA.AperFunction,ComponentPad*%
%ADD15R,2.032000X2.032000*%
%TD*%
%TA.AperFunction,ViaPad*%
%ADD16C,0.965200*%
%TD*%
%TA.AperFunction,Conductor*%
%ADD17C,0.254000*%
%TD*%
%TA.AperFunction,Conductor*%
%ADD18C,0.200000*%
%TD*%
%TA.AperFunction,Conductor*%
%ADD19C,0.304800*%
%TD*%
%TA.AperFunction,Conductor*%
%ADD20C,0.250000*%
%TD*%
%TA.AperFunction,Conductor*%
%ADD21C,1.270000*%
%TD*%
%TA.AperFunction,Conductor*%
%ADD22C,0.508000*%
%TD*%
G04 APERTURE END LIST*
D10*
%TO.P,ADS1298,1*%
%TO.N,/IN8N*%
X113680000Y-107889600D03*
%TO.P,ADS1298,2*%
%TO.N,/IN8P*%
X113680000Y-108389600D03*
%TO.P,ADS1298,3*%
%TO.N,/IN7N*%
X113680000Y-108889600D03*
%TO.P,ADS1298,4*%
%TO.N,/IN7P*%
X113680000Y-109389600D03*
%TO.P,ADS1298,5*%
%TO.N,/IN6N*%
X113680000Y-109889600D03*
%TO.P,ADS1298,6*%
%TO.N,/IN6P*%
X113680000Y-110389600D03*
%TO.P,ADS1298,7*%
%TO.N,/IN5N*%
X113680000Y-110889600D03*
%TO.P,ADS1298,8*%
%TO.N,/IN5P*%
X113680000Y-111389600D03*
%TO.P,ADS1298,9*%
%TO.N,/IN4N*%
X113680000Y-111889600D03*
%TO.P,ADS1298,10*%
%TO.N,/IN4P*%
X113680000Y-112389600D03*
%TO.P,ADS1298,11*%
%TO.N,/IN3N*%
X113680000Y-112889600D03*
%TO.P,ADS1298,12*%
%TO.N,/IN3P*%
X113680000Y-113389600D03*
%TO.P,ADS1298,13*%
%TO.N,/IN2N*%
X113680000Y-113889600D03*
%TO.P,ADS1298,14*%
%TO.N,/IN2P*%
X113680000Y-114389600D03*
%TO.P,ADS1298,15*%
%TO.N,/IN1N*%
X113680000Y-114889600D03*
%TO.P,ADS1298,16*%
%TO.N,/IN1P*%
X113680000Y-115389600D03*
D11*
%TO.P,ADS1298,17*%
%TO.N,/ADS1298/TESTP_PACE_OUT1*%
X115630000Y-117339600D03*
%TO.P,ADS1298,18*%
%TO.N,/ADS1298/TESTN_PACE_OUT2*%
X116130000Y-117339600D03*
%TO.P,ADS1298,19*%
%TO.N,/AVDD*%
X116630000Y-117339600D03*
%TO.P,ADS1298,20*%
%TO.N,/AVSS*%
X117130000Y-117339600D03*
%TO.P,ADS1298,21*%
%TO.N,/AVDD*%
X117630000Y-117339600D03*
%TO.P,ADS1298,22*%
X118130000Y-117339600D03*
%TO.P,ADS1298,23*%
%TO.N,/AVSS*%
X118630000Y-117339600D03*
%TO.P,ADS1298,24*%
%TO.N,/ADS1298/RLDREF*%
X119130000Y-117339600D03*
%TO.P,ADS1298,25*%
%TO.N,Net-(ADS1-Pad25)*%
X119630000Y-117339600D03*
%TO.P,ADS1298,26*%
%TO.N,Net-(ADS1-Pad26)*%
X120130000Y-117339600D03*
%TO.P,ADS1298,27*%
%TO.N,Net-(ADS1-Pad27)*%
X120630000Y-117339600D03*
%TO.P,ADS1298,28*%
%TO.N,Net-(ADS1-Pad28)*%
X121130000Y-117339600D03*
%TO.P,ADS1298,29*%
%TO.N,Net-(ADS1-Pad29)*%
X121630000Y-117339600D03*
%TO.P,ADS1298,30*%
%TO.N,Net-(ADS1-Pad30)*%
X122130000Y-117339600D03*
%TO.P,ADS1298,31*%
%TO.N,/DGND*%
X122630000Y-117339600D03*
%TO.P,ADS1298,32*%
%TO.N,/AVSS*%
X123130000Y-117339600D03*
D10*
%TO.P,ADS1298,33*%
%TO.N,/DGND*%
X125080000Y-115389600D03*
%TO.P,ADS1298,34*%
%TO.N,/MOSI*%
X125080000Y-114889600D03*
%TO.P,ADS1298,35*%
%TO.N,/DVDD*%
X125080000Y-114389600D03*
%TO.P,ADS1298,36*%
%TO.N,/~{RESET}*%
X125080000Y-113889600D03*
%TO.P,ADS1298,37*%
%TO.N,/CLK*%
X125080000Y-113389600D03*
%TO.P,ADS1298,38*%
%TO.N,/START*%
X125080000Y-112889600D03*
%TO.P,ADS1298,39*%
%TO.N,/~{CS}*%
X125080000Y-112389600D03*
%TO.P,ADS1298,40*%
%TO.N,/SPI_CLK*%
X125080000Y-111889600D03*
%TO.P,ADS1298,41*%
%TO.N,/DGND*%
X125080000Y-111389600D03*
%TO.P,ADS1298,42*%
X125080000Y-110889600D03*
%TO.P,ADS1298,43*%
%TO.N,/MISO*%
X125080000Y-110389600D03*
%TO.P,ADS1298,44*%
%TO.N,/DGND*%
X125080000Y-109889600D03*
%TO.P,ADS1298,45*%
X125080000Y-109389600D03*
%TO.P,ADS1298,46*%
X125080000Y-108889600D03*
%TO.P,ADS1298,47*%
%TO.N,/~{DRDY}*%
X125080000Y-108389600D03*
%TO.P,ADS1298,48*%
%TO.N,/DVDD*%
X125080000Y-107889600D03*
D11*
%TO.P,ADS1298,49*%
%TO.N,/DGND*%
X123130000Y-105939600D03*
%TO.P,ADS1298,50*%
%TO.N,/DVDD*%
X122630000Y-105939600D03*
%TO.P,ADS1298,51*%
%TO.N,/DGND*%
X122130000Y-105939600D03*
%TO.P,ADS1298,52*%
%TO.N,/CLKSEL*%
X121630000Y-105939600D03*
%TO.P,ADS1298,53*%
%TO.N,/AVSS*%
X121130000Y-105939600D03*
%TO.P,ADS1298,54*%
%TO.N,/AVDD*%
X120630000Y-105939600D03*
%TO.P,ADS1298,55*%
%TO.N,Net-(ADS1-Pad55)*%
X120130000Y-105939600D03*
%TO.P,ADS1298,56*%
%TO.N,/AVDD*%
X119630000Y-105939600D03*
%TO.P,ADS1298,57*%
%TO.N,/AVSS*%
X119130000Y-105939600D03*
%TO.P,ADS1298,58*%
X118630000Y-105939600D03*
%TO.P,ADS1298,59*%
%TO.N,/AVDD*%
X118130000Y-105939600D03*
%TO.P,ADS1298,60*%
%TO.N,/ADS1298/RLDREF*%
X117630000Y-105939600D03*
%TO.P,ADS1298,61*%
%TO.N,/ADS1298/RLDINV*%
X117130000Y-105939600D03*
%TO.P,ADS1298,62*%
%TO.N,/ADS1298/RLDIN*%
X116630000Y-105939600D03*
%TO.P,ADS1298,63*%
%TO.N,/RDLout*%
X116130000Y-105939600D03*
%TO.P,ADS1298,64*%
%TO.N,Net-(ADS1-Pad64)*%
X115630000Y-105939600D03*
%TD*%
D12*
%TO.P,C1,1*%
%TO.N,/ADS1298/RLDINV*%
X114300000Y-80010000D03*
D13*
%TO.P,C1,2*%
%TO.N,/RDLout*%
X111760000Y-80010000D03*
%TD*%
D12*
%TO.P,C2,1*%
%TO.N,/AVDD*%
X121920000Y-83820000D03*
D13*
%TO.P,C2,2*%
%TO.N,/AGND*%
X119380000Y-83820000D03*
%TD*%
D12*
%TO.P,C3,1*%
%TO.N,/AGND*%
X123190000Y-76200000D03*
D13*
%TO.P,C3,2*%
%TO.N,/AVSS*%
X123190000Y-73660000D03*
%TD*%
D12*
%TO.P,C4,1*%
%TO.N,/AVDD*%
X121920000Y-80010000D03*
D13*
%TO.P,C4,2*%
%TO.N,/AGND*%
X119380000Y-80010000D03*
%TD*%
D12*
%TO.P,C5,1*%
%TO.N,/AGND*%
X119380000Y-76200000D03*
D13*
%TO.P,C5,2*%
%TO.N,/AVSS*%
X119380000Y-73660000D03*
%TD*%
D12*
%TO.P,C6,1*%
%TO.N,/DVDD*%
X123190000Y-89535000D03*
D13*
%TO.P,C6,2*%
%TO.N,/DGND*%
X120650000Y-89535000D03*
%TD*%
D12*
%TO.P,C7,1*%
%TO.N,/DVDD*%
X123190000Y-93345000D03*
D13*
%TO.P,C7,2*%
%TO.N,/DGND*%
X120650000Y-93345000D03*
%TD*%
D12*
%TO.P,C8,1*%
%TO.N,/AVSS*%
X111760000Y-73660000D03*
D13*
%TO.P,C8,2*%
%TO.N,Net-(ADS1-Pad64)*%
X111760000Y-76200000D03*
%TD*%
D12*
%TO.P,C9,1*%
%TO.N,/ADS1298/RLDREF*%
X116840000Y-125725000D03*
D13*
%TO.P,C9,2*%
%TO.N,Net-(ADS1-Pad25)*%
X116840000Y-128265000D03*
%TD*%
D12*
%TO.P,C10,1*%
%TO.N,Net-(ADS1-Pad25)*%
X113030000Y-132080000D03*
D13*
%TO.P,C10,2*%
%TO.N,/AVSS*%
X115570000Y-132080000D03*
%TD*%
D12*
%TO.P,C11,1*%
%TO.N,/ADS1298/RLDREF*%
X113030000Y-125725000D03*
D13*
%TO.P,C11,2*%
%TO.N,Net-(ADS1-Pad25)*%
X113030000Y-128265000D03*
%TD*%
D12*
%TO.P,C12,1*%
%TO.N,/AVSS*%
X116840000Y-97155000D03*
D13*
%TO.P,C12,2*%
%TO.N,Net-(ADS1-Pad55)*%
X114300000Y-97155000D03*
%TD*%
D12*
%TO.P,C13,1*%
%TO.N,Net-(ADS1-Pad26)*%
X120650000Y-125725000D03*
D13*
%TO.P,C13,2*%
%TO.N,/AVSS*%
X120650000Y-128265000D03*
%TD*%
D12*
%TO.P,C14,1*%
%TO.N,/AVSS*%
X116840000Y-93345000D03*
D13*
%TO.P,C14,2*%
%TO.N,Net-(ADS1-Pad55)*%
X114300000Y-93345000D03*
%TD*%
D12*
%TO.P,C15,1*%
%TO.N,Net-(ADS1-Pad28)*%
X124460000Y-125725000D03*
D13*
%TO.P,C15,2*%
%TO.N,/AVSS*%
X124460000Y-128265000D03*
%TD*%
D12*
%TO.P,C16,1*%
%TO.N,Net-(ADS1-Pad30)*%
X128270000Y-125725000D03*
D13*
%TO.P,C16,2*%
%TO.N,/AVSS*%
X128270000Y-128265000D03*
%TD*%
D12*
%TO.P,CLKSEL,1*%
%TO.N,/DVDD*%
X123190000Y-97155000D03*
D13*
%TO.P,CLKSEL,2*%
%TO.N,/CLKSEL*%
X120650000Y-97155000D03*
%TD*%
D14*
%TO.P,ADGND,1*%
%TO.N,/AGND*%
X129540000Y-83820000D03*
%TO.P,ADGND,2*%
%TO.N,/DGND*%
X129540000Y-86360000D03*
%TD*%
D12*
%TO.P,R1,1*%
%TO.N,/ADS1298/RLDINV*%
X114300000Y-83820000D03*
D13*
%TO.P,R1,2*%
%TO.N,/RDLout*%
X111760000Y-83820000D03*
%TD*%
D12*
%TO.P,R2,1*%
%TO.N,/AGND*%
X114300000Y-88900000D03*
D13*
%TO.P,R2,2*%
%TO.N,/ADS1298/RLDIN*%
X111760000Y-88900000D03*
%TD*%
D14*
%TO.P,APwd1,1*%
%TO.N,/AVDD*%
X129540000Y-78725000D03*
%TO.P,APwd1,2*%
%TO.N,/AGND*%
X129540000Y-76185000D03*
%TO.P,APwd1,3*%
%TO.N,/AVSS*%
X129540000Y-73645000D03*
%TD*%
%TO.P,DPwd1,1*%
%TO.N,/DVDD*%
X129540000Y-93980000D03*
%TO.P,DPwd1,2*%
%TO.N,/DGND*%
X129540000Y-91440000D03*
%TD*%
%TO.P,SPI1,1*%
%TO.N,/~{DRDY}*%
X129540000Y-104140000D03*
%TO.P,SPI1,2*%
%TO.N,/MISO*%
X129540000Y-106680000D03*
%TO.P,SPI1,3*%
%TO.N,/SPI_CLK*%
X129540000Y-109220000D03*
%TO.P,SPI1,4*%
%TO.N,/~{CS}*%
X129540000Y-111760000D03*
%TO.P,SPI1,5*%
%TO.N,/START*%
X129540000Y-114300000D03*
%TO.P,SPI1,6*%
%TO.N,/~{RESET}*%
X129540000Y-116840000D03*
%TO.P,SPI1,7*%
%TO.N,/MOSI*%
X129540000Y-119380000D03*
%TO.P,SPI1,8*%
%TO.N,/CLK*%
X129540000Y-121920000D03*
%TD*%
D15*
%TO.P,J2,1,Pin_1*%
%TO.N,/IN8N*%
X106680000Y-93980000D03*
D14*
%TO.P,J2,2,Pin_2*%
%TO.N,/IN8P*%
X106680000Y-96520000D03*
%TO.P,J2,3,Pin_3*%
%TO.N,/IN7N*%
X106680000Y-99060000D03*
%TO.P,J2,4,Pin_4*%
%TO.N,/IN7P*%
X106680000Y-101600000D03*
%TO.P,J2,5,Pin_5*%
%TO.N,/IN6N*%
X106680000Y-104140000D03*
%TO.P,J2,6,Pin_6*%
%TO.N,/IN6P*%
X106680000Y-106680000D03*
%TO.P,J2,7,Pin_7*%
%TO.N,/IN5N*%
X106680000Y-109220000D03*
%TO.P,J2,8,Pin_8*%
%TO.N,/IN5P*%
X106680000Y-111760000D03*
%TO.P,J2,9,Pin_9*%
%TO.N,/IN4N*%
X106680000Y-114300000D03*
%TO.P,J2,10,Pin_10*%
%TO.N,/IN4P*%
X106680000Y-116840000D03*
%TO.P,J2,11,Pin_11*%
%TO.N,/IN3N*%
X106680000Y-119380000D03*
%TO.P,J2,12,Pin_12*%
%TO.N,/IN3P*%
X106680000Y-121920000D03*
%TO.P,J2,13,Pin_13*%
%TO.N,/IN2N*%
X106680000Y-124460000D03*
%TO.P,J2,14,Pin_14*%
%TO.N,/IN2P*%
X106680000Y-127000000D03*
%TO.P,J2,15,Pin_15*%
%TO.N,/IN1N*%
X106680000Y-129540000D03*
%TO.P,J2,16,Pin_16*%
%TO.N,/IN1P*%
X106680000Y-132080000D03*
%TD*%
D16*
%TO.N,/AVSS*%
X115570000Y-121285000D03*
%TO.N,/ADS1298/RLDREF*%
X116205000Y-99695000D03*
%TO.N,/CLK*%
X127635000Y-114300000D03*
%TO.N,/~{DRDY}*%
X126365000Y-104140000D03*
%TO.N,Net-(ADS1-Pad55)*%
X119634000Y-102870000D03*
%TD*%
D17*
%TO.N,/IN8N*%
X110401000Y-104610600D02*
X110401000Y-101697656D01*
X110401000Y-101697656D02*
X109855000Y-101151658D01*
X109855000Y-97155000D02*
X106680000Y-93980000D01*
X113680000Y-107889600D02*
X110401000Y-104610600D01*
X109855000Y-101151658D02*
X109855000Y-97155000D01*
%TO.N,/IN8P*%
X112626000Y-108389600D02*
X113680000Y-108389600D01*
X109947000Y-105710600D02*
X112626000Y-108389600D01*
X109947000Y-101885710D02*
X109947000Y-105710600D01*
X109401000Y-99241000D02*
X109401000Y-101339711D01*
X106680000Y-96520000D02*
X109401000Y-99241000D01*
X109401000Y-101339711D02*
X109947000Y-101885710D01*
%TO.N,/IN7N*%
X108588526Y-100968526D02*
X106680000Y-99060000D01*
X110815756Y-108889600D02*
X109493000Y-107566844D01*
X109493000Y-103770948D02*
X108588526Y-102866474D01*
X109493000Y-107566844D02*
X109493000Y-103770948D01*
X113680000Y-108889600D02*
X110815756Y-108889600D01*
X108588526Y-102866474D02*
X108588526Y-100968526D01*
%TO.N,/IN7P*%
X113680000Y-109389600D02*
X110673704Y-109389600D01*
X109039000Y-107754896D02*
X109039000Y-103959000D01*
X109039000Y-103959000D02*
X106680000Y-101600000D01*
X110673704Y-109389600D02*
X109039000Y-107754896D01*
%TO.N,/IN6N*%
X110531652Y-109889600D02*
X108585000Y-107942948D01*
X113680000Y-109889600D02*
X110531652Y-109889600D01*
X108585000Y-107942948D02*
X108585000Y-106045000D01*
X108585000Y-106045000D02*
X106680000Y-104140000D01*
%TO.N,/IN6P*%
X110389600Y-110389600D02*
X113680000Y-110389600D01*
X106680000Y-106680000D02*
X110389600Y-110389600D01*
%TO.N,/IN5N*%
X113680000Y-110889600D02*
X108349600Y-110889600D01*
X108349600Y-110889600D02*
X106680000Y-109220000D01*
D18*
%TO.N,/IN5P*%
X107050400Y-111389600D02*
X106680000Y-111760000D01*
D17*
X113680000Y-111389600D02*
X107050400Y-111389600D01*
%TO.N,/IN4N*%
X113680000Y-111889600D02*
X109090400Y-111889600D01*
X109090400Y-111889600D02*
X106680000Y-114300000D01*
%TO.N,/IN4P*%
X113680000Y-112389600D02*
X111130400Y-112389600D01*
X111130400Y-112389600D02*
X106680000Y-116840000D01*
%TO.N,/IN3N*%
X111893348Y-112889600D02*
X113680000Y-112889600D01*
X106680000Y-119380000D02*
X108131000Y-117929000D01*
X108131000Y-116651948D02*
X111893348Y-112889600D01*
X108131000Y-117929000D02*
X108131000Y-116651948D01*
%TO.N,/IN3P*%
X108585000Y-116840000D02*
X112035400Y-113389600D01*
X112035400Y-113389600D02*
X113680000Y-113389600D01*
X108585000Y-120015000D02*
X108585000Y-116840000D01*
X106680000Y-121920000D02*
X108585000Y-120015000D01*
%TO.N,/IN2N*%
X111552000Y-119588000D02*
X111552000Y-114686600D01*
X111552000Y-114686600D02*
X112349000Y-113889600D01*
X112349000Y-113889600D02*
X113680000Y-113889600D01*
X106680000Y-124460000D02*
X111552000Y-119588000D01*
%TO.N,/IN2P*%
X112006000Y-114987234D02*
X112226617Y-114766617D01*
X113680000Y-114389600D02*
X112603634Y-114389600D01*
X112603634Y-114389600D02*
X112149000Y-114844234D01*
X106680000Y-127000000D02*
X112006000Y-121674000D01*
X112006000Y-121674000D02*
X112006000Y-114987234D01*
%TO.N,/IN1N*%
X110490000Y-125722948D02*
X110490000Y-125730000D01*
X110490000Y-125730000D02*
X106680000Y-129540000D01*
X113680000Y-114889600D02*
X112745686Y-114889600D01*
X112603000Y-115032286D02*
X112603000Y-123609948D01*
X112745686Y-114889600D02*
X112603000Y-115032286D01*
X112603000Y-123609948D02*
X110490000Y-125722948D01*
%TO.N,/IN1P*%
X109220000Y-127642052D02*
X109220000Y-129540000D01*
X110944000Y-125911000D02*
X110944000Y-125918052D01*
X110944000Y-125918052D02*
X109220000Y-127642052D01*
X113680000Y-123175000D02*
X110944000Y-125911000D01*
X113680000Y-115389600D02*
X113680000Y-123175000D01*
X109220000Y-129540000D02*
X106680000Y-132080000D01*
D19*
%TO.N,/AVDD*%
X118579500Y-103729805D02*
X118579500Y-100799500D01*
D20*
X116630000Y-116415000D02*
X118110000Y-114935000D01*
D17*
X119630000Y-104780305D02*
X118579500Y-103729805D01*
D20*
X120304600Y-107315000D02*
X120015000Y-107315000D01*
D17*
X118130000Y-105939600D02*
X118130000Y-104179305D01*
D20*
X120015000Y-107315000D02*
X119630000Y-106930000D01*
X119630000Y-106930000D02*
X119630000Y-105939600D01*
X120630000Y-106989600D02*
X120304600Y-107315000D01*
D21*
X123205000Y-78725000D02*
X121920000Y-80010000D01*
D20*
X118130000Y-117339600D02*
X117630000Y-117339600D01*
D19*
X118579500Y-100799500D02*
X115570000Y-97790000D01*
X121920000Y-85725000D02*
X121920000Y-83820000D01*
D20*
X120630000Y-105939600D02*
X120630000Y-106989600D01*
D21*
X121920000Y-80010000D02*
X121920000Y-83820000D01*
D17*
X119630000Y-105939600D02*
X119630000Y-104780305D01*
D19*
X115570000Y-97790000D02*
X115570000Y-92075000D01*
X115570000Y-92075000D02*
X121920000Y-85725000D01*
D20*
X116630000Y-117339600D02*
X116630000Y-116415000D01*
X118130000Y-105939600D02*
X118130000Y-117339600D01*
D17*
X118130000Y-104179305D02*
X118579500Y-103729805D01*
D21*
X129540000Y-78725000D02*
X123205000Y-78725000D01*
D20*
%TO.N,/AVSS*%
X121130000Y-100175000D02*
X118110000Y-97155000D01*
D17*
X118630000Y-118225000D02*
X118630000Y-117339600D01*
X123130000Y-118685000D02*
X129540000Y-125095000D01*
X117130000Y-117339600D02*
X117130000Y-119725000D01*
D20*
X119130000Y-105939600D02*
X119130000Y-107066396D01*
D21*
X111775000Y-73645000D02*
X111760000Y-73660000D01*
D17*
X117130000Y-119725000D02*
X118630000Y-118225000D01*
D21*
X115570000Y-132075000D02*
X115570000Y-132080000D01*
D20*
X119828604Y-107765000D02*
X120490996Y-107765000D01*
X118110000Y-97155000D02*
X116840000Y-97155000D01*
X118630000Y-105939600D02*
X119130000Y-105939600D01*
D21*
X119380000Y-128265000D02*
X115570000Y-132075000D01*
D20*
X119130000Y-107066396D02*
X119828604Y-107765000D01*
X121130000Y-105939600D02*
X121130000Y-100175000D01*
D17*
X129540000Y-126995000D02*
X128270000Y-128265000D01*
X117130000Y-119725000D02*
X115570000Y-121285000D01*
D20*
X120490996Y-107765000D02*
X121130000Y-107125996D01*
D21*
X116840000Y-97155000D02*
X116840000Y-93345000D01*
D20*
X121130000Y-107125996D02*
X121130000Y-105939600D01*
D21*
X129540000Y-73645000D02*
X111775000Y-73645000D01*
D17*
X123130000Y-117339600D02*
X123130000Y-118685000D01*
X129540000Y-125095000D02*
X129540000Y-126995000D01*
D20*
X118630000Y-105939600D02*
X118630000Y-117339600D01*
D21*
X127870000Y-128265000D02*
X119380000Y-128265000D01*
%TO.N,/ADS1298/RLDREF*%
X116835000Y-125730000D02*
X116840000Y-125725000D01*
X113030000Y-125730000D02*
X116835000Y-125730000D01*
D20*
X116205000Y-99695000D02*
X117630000Y-101120000D01*
D17*
X119130000Y-117339600D02*
X119130000Y-123435000D01*
X119130000Y-123435000D02*
X116840000Y-125725000D01*
D20*
X117630000Y-101120000D02*
X117630000Y-105939600D01*
D21*
%TO.N,Net-(ADS1-Pad25)*%
X113030000Y-128270000D02*
X116835000Y-128270000D01*
X113025000Y-132075000D02*
X113025000Y-128275000D01*
D17*
X119630000Y-117339600D02*
X119630000Y-123577053D01*
D21*
X113025000Y-128275000D02*
X113030000Y-128270000D01*
X113030000Y-132080000D02*
X113025000Y-132075000D01*
X116835000Y-128270000D02*
X116840000Y-128265000D01*
D17*
X119630000Y-123577053D02*
X119375000Y-123832053D01*
X119375000Y-123832053D02*
X119375000Y-125730000D01*
X119375000Y-125730000D02*
X116840000Y-128265000D01*
%TO.N,Net-(ADS1-Pad26)*%
X120130000Y-125205000D02*
X120650000Y-125725000D01*
X120130000Y-117339600D02*
X120130000Y-125205000D01*
%TO.N,Net-(ADS1-Pad28)*%
X121130000Y-122395000D02*
X124460000Y-125725000D01*
X121130000Y-117339600D02*
X121130000Y-122395000D01*
%TO.N,Net-(ADS1-Pad30)*%
X122130000Y-119585000D02*
X128270000Y-125725000D01*
X122130000Y-117339600D02*
X122130000Y-119585000D01*
D20*
%TO.N,/DGND*%
X123640000Y-110490000D02*
X124039600Y-110889600D01*
X125080000Y-111389600D02*
X125080000Y-110889600D01*
X122630000Y-116289600D02*
X122630000Y-117339600D01*
D17*
X121920000Y-99689379D02*
X122130000Y-99899379D01*
D20*
X122130000Y-107105000D02*
X121920000Y-107315000D01*
X125080000Y-109889600D02*
X125080000Y-108889600D01*
X124030000Y-109889600D02*
X123640000Y-110279600D01*
X127635000Y-103505000D02*
X127000000Y-102870000D01*
X127635000Y-107950000D02*
X127635000Y-103505000D01*
D17*
X121920000Y-94615000D02*
X121920000Y-99689379D01*
D20*
X126695400Y-108889600D02*
X125080000Y-108889600D01*
X123130000Y-105470000D02*
X125730000Y-102870000D01*
X125080000Y-115389600D02*
X123530000Y-115389600D01*
D17*
X122130000Y-99899379D02*
X122130000Y-105939600D01*
D20*
X122130000Y-105939600D02*
X122130000Y-107105000D01*
D17*
X120650000Y-93345000D02*
X121920000Y-94615000D01*
D20*
X123130000Y-105939600D02*
X123130000Y-105470000D01*
X125080000Y-109889600D02*
X124030000Y-109889600D01*
X123530000Y-115389600D02*
X122630000Y-116289600D01*
X123640000Y-110279600D02*
X123640000Y-110490000D01*
X124039600Y-110889600D02*
X125080000Y-110889600D01*
X126695400Y-108889600D02*
X127635000Y-107950000D01*
X127000000Y-102870000D02*
X125730000Y-102870000D01*
D17*
%TO.N,/MOSI*%
X129540000Y-119380000D02*
X127000000Y-116840000D01*
X127000000Y-115759600D02*
X126130000Y-114889600D01*
X127000000Y-116840000D02*
X127000000Y-115759600D01*
X126130000Y-114889600D02*
X125080000Y-114889600D01*
D20*
%TO.N,/DVDD*%
X125080000Y-114389600D02*
X123914600Y-114389600D01*
X122630000Y-108169600D02*
X123190000Y-108729600D01*
D21*
X123190000Y-97155000D02*
X123190000Y-93345000D01*
D20*
X123914600Y-114389600D02*
X123825000Y-114300000D01*
X122630000Y-105939600D02*
X122630000Y-108169600D01*
X123190000Y-108729600D02*
X124030000Y-107889600D01*
X124030000Y-107889600D02*
X125080000Y-107889600D01*
D21*
X123190000Y-93345000D02*
X123190000Y-89535000D01*
D20*
X123825000Y-114300000D02*
X123190000Y-113665000D01*
X122630000Y-97715000D02*
X123190000Y-97155000D01*
X123190000Y-113665000D02*
X123190000Y-108729600D01*
X122630000Y-105939600D02*
X122630000Y-97715000D01*
D17*
%TO.N,/~{RESET}*%
X125080000Y-113889600D02*
X125955996Y-113889600D01*
D20*
X128906396Y-116840000D02*
X129540000Y-116840000D01*
D17*
X125955996Y-113889600D02*
X128906396Y-116840000D01*
D20*
%TO.N,/CLK*%
X126724600Y-113389600D02*
X125080000Y-113389600D01*
X127635000Y-114300000D02*
X126724600Y-113389600D01*
D17*
%TO.N,/START*%
X128129600Y-112889600D02*
X129540000Y-114300000D01*
X125080000Y-112889600D02*
X128129600Y-112889600D01*
%TO.N,/~{CS}*%
X125080000Y-112389600D02*
X128910400Y-112389600D01*
X128910400Y-112389600D02*
X129540000Y-111760000D01*
%TO.N,/SPI_CLK*%
X129540000Y-109220000D02*
X126870400Y-111889600D01*
X126870400Y-111889600D02*
X125080000Y-111889600D01*
%TO.N,/MISO*%
X126130000Y-110389600D02*
X125080000Y-110389600D01*
X129540000Y-106979600D02*
X126130000Y-110389600D01*
X129540000Y-106680000D02*
X129540000Y-106979600D01*
D20*
%TO.N,/~{DRDY}*%
X126130000Y-108389600D02*
X125080000Y-108389600D01*
X126365000Y-104140000D02*
X126365000Y-108154600D01*
X126365000Y-108154600D02*
X126130000Y-108389600D01*
%TO.N,/CLKSEL*%
X120650000Y-99058604D02*
X120650000Y-97155000D01*
X121630000Y-100038604D02*
X120650000Y-99058604D01*
X121630000Y-105939600D02*
X121630000Y-100038604D01*
D21*
%TO.N,Net-(ADS1-Pad55)*%
X114300000Y-97155000D02*
X114300000Y-93345000D01*
D20*
X120130000Y-103366000D02*
X119634000Y-102870000D01*
X120130000Y-105939600D02*
X120130000Y-103366000D01*
D21*
%TO.N,/ADS1298/RLDINV*%
X114300000Y-80010000D02*
X114300000Y-83820000D01*
D20*
X112210000Y-99060000D02*
X112210000Y-91625000D01*
X113030000Y-90805000D02*
X113030000Y-85090000D01*
X117130000Y-105939600D02*
X117130000Y-103980000D01*
X117130000Y-103980000D02*
X112210000Y-99060000D01*
X112210000Y-91625000D02*
X113030000Y-90805000D01*
X113030000Y-85090000D02*
X114300000Y-83820000D01*
%TO.N,/ADS1298/RLDIN*%
X111760000Y-99695000D02*
X111760000Y-88900000D01*
X116630000Y-105939600D02*
X116630000Y-104565000D01*
X116630000Y-104565000D02*
X111760000Y-99695000D01*
%TO.N,/RDLout*%
X111125000Y-90805000D02*
X109855000Y-89535000D01*
X109855000Y-85725000D02*
X111760000Y-83820000D01*
X109855000Y-89535000D02*
X109855000Y-85725000D01*
X116130000Y-104889600D02*
X111125000Y-99884600D01*
D21*
X111760000Y-80010000D02*
X111760000Y-83820000D01*
D20*
X116130000Y-105939600D02*
X116130000Y-104889600D01*
X111125000Y-99884600D02*
X111125000Y-90805000D01*
D22*
%TO.N,Net-(ADS1-Pad64)*%
X107950000Y-89535000D02*
X107950000Y-78740000D01*
X110490000Y-76200000D02*
X111760000Y-76200000D01*
X115464600Y-105939600D02*
X110490000Y-100965000D01*
X110490000Y-100965000D02*
X110490000Y-92075000D01*
X110490000Y-92075000D02*
X107950000Y-89535000D01*
X107950000Y-78740000D02*
X110490000Y-76200000D01*
D20*
X115630000Y-105939600D02*
X115464600Y-105939600D01*
D21*
%TO.N,/AGND*%
X119380000Y-83820000D02*
X114300000Y-88900000D01*
X119380000Y-76200000D02*
X119380000Y-80010000D01*
X119395000Y-76185000D02*
X119380000Y-76200000D01*
X119380000Y-83820000D02*
X119380000Y-80010000D01*
X129540000Y-76185000D02*
X119395000Y-76185000D01*
%TD*%
%TA.AperFunction,Conductor*%
%TO.N,/DGND*%
G36*
X121926892Y-107207649D02*
G01*
X121978857Y-107256023D01*
X121996500Y-107320325D01*
X121996500Y-108231996D01*
X122002135Y-108260324D01*
X122020845Y-108354385D01*
X122068600Y-108469675D01*
X122137929Y-108573433D01*
X122137931Y-108573435D01*
X122519595Y-108955099D01*
X122553621Y-109017411D01*
X122556500Y-109044194D01*
X122556500Y-113602606D01*
X122556500Y-113727394D01*
X122580845Y-113849785D01*
X122628600Y-113965075D01*
X122697929Y-114068833D01*
X123421167Y-114792072D01*
X123421168Y-114792073D01*
X123510767Y-114881672D01*
X123614525Y-114951001D01*
X123695381Y-114984492D01*
X123729815Y-114998755D01*
X123729818Y-114998755D01*
X123734847Y-115000281D01*
X123794231Y-115039192D01*
X123823151Y-115104031D01*
X123823558Y-115107386D01*
X123825826Y-115128477D01*
X123825826Y-115155417D01*
X123822000Y-115190998D01*
X123822000Y-115239601D01*
X123838853Y-115256454D01*
X123849573Y-115259602D01*
X123882318Y-115290088D01*
X123918253Y-115338091D01*
X123943063Y-115404612D01*
X123927971Y-115473986D01*
X123877769Y-115524188D01*
X123823580Y-115538018D01*
X123822000Y-115539599D01*
X123822000Y-115588197D01*
X123828505Y-115648693D01*
X123879555Y-115785564D01*
X123879555Y-115785565D01*
X123967095Y-115902504D01*
X124084034Y-115990044D01*
X124220906Y-116041094D01*
X124281402Y-116047599D01*
X124281415Y-116047600D01*
X124930000Y-116047600D01*
X124930000Y-115674100D01*
X124950002Y-115605979D01*
X125003658Y-115559486D01*
X125056000Y-115548100D01*
X125104000Y-115548100D01*
X125172121Y-115568102D01*
X125218614Y-115621758D01*
X125230000Y-115674100D01*
X125230000Y-116047600D01*
X125878585Y-116047600D01*
X125878597Y-116047599D01*
X125939093Y-116041094D01*
X126075964Y-115990044D01*
X126075965Y-115990044D01*
X126134821Y-115945985D01*
X126201341Y-115921174D01*
X126270715Y-115936265D01*
X126299425Y-115957758D01*
X126327595Y-115985928D01*
X126361621Y-116048240D01*
X126364500Y-116075023D01*
X126364500Y-116902593D01*
X126388922Y-117025369D01*
X126436827Y-117141022D01*
X126506375Y-117245108D01*
X126506377Y-117245110D01*
X128051819Y-118790552D01*
X128085845Y-118852864D01*
X128085243Y-118909061D01*
X128029613Y-119140778D01*
X128010786Y-119380000D01*
X128029613Y-119619221D01*
X128085630Y-119852551D01*
X128085631Y-119852553D01*
X128177460Y-120074249D01*
X128302840Y-120278849D01*
X128458682Y-120461318D01*
X128458685Y-120461321D01*
X128567420Y-120554189D01*
X128606229Y-120613639D01*
X128606737Y-120684634D01*
X128568781Y-120744633D01*
X128567420Y-120745811D01*
X128458685Y-120838678D01*
X128302839Y-121021152D01*
X128177459Y-121225752D01*
X128085630Y-121447448D01*
X128033134Y-121666113D01*
X128029613Y-121680778D01*
X128010786Y-121920000D01*
X128029613Y-122159222D01*
X128058825Y-122280896D01*
X128085631Y-122392552D01*
X128085633Y-122392558D01*
X128090248Y-122403701D01*
X128097835Y-122474291D01*
X128066054Y-122537777D01*
X128004995Y-122574002D01*
X127934043Y-122571466D01*
X127884743Y-122541010D01*
X123802405Y-118458672D01*
X123768379Y-118396360D01*
X123765500Y-118369577D01*
X123765500Y-118265741D01*
X123773444Y-118221709D01*
X123781989Y-118198801D01*
X123788500Y-118138238D01*
X123788500Y-116540962D01*
X123788499Y-116540950D01*
X123781990Y-116480403D01*
X123781988Y-116480395D01*
X123752924Y-116402475D01*
X123730889Y-116343396D01*
X123730888Y-116343394D01*
X123730887Y-116343392D01*
X123643261Y-116226338D01*
X123526207Y-116138712D01*
X123526202Y-116138710D01*
X123389204Y-116087611D01*
X123389196Y-116087609D01*
X123328649Y-116081100D01*
X123328638Y-116081100D01*
X122931362Y-116081100D01*
X122931356Y-116081100D01*
X122931348Y-116081101D01*
X122891116Y-116085426D01*
X122864181Y-116085426D01*
X122828601Y-116081600D01*
X122779999Y-116081600D01*
X122763145Y-116098453D01*
X122759998Y-116109172D01*
X122729509Y-116141920D01*
X122705509Y-116159886D01*
X122638988Y-116184696D01*
X122569614Y-116169604D01*
X122554491Y-116159886D01*
X122530491Y-116141920D01*
X122501223Y-116102822D01*
X122480001Y-116081600D01*
X122431398Y-116081600D01*
X122395817Y-116085426D01*
X122368881Y-116085426D01*
X122328649Y-116081100D01*
X122328638Y-116081100D01*
X121931362Y-116081100D01*
X121931357Y-116081100D01*
X121931345Y-116081101D01*
X121893466Y-116085173D01*
X121866534Y-116085173D01*
X121828654Y-116081101D01*
X121828642Y-116081100D01*
X121828638Y-116081100D01*
X121431362Y-116081100D01*
X121431357Y-116081100D01*
X121431345Y-116081101D01*
X121393466Y-116085173D01*
X121366534Y-116085173D01*
X121328654Y-116081101D01*
X121328642Y-116081100D01*
X121328638Y-116081100D01*
X120931362Y-116081100D01*
X120931357Y-116081100D01*
X120931345Y-116081101D01*
X120893466Y-116085173D01*
X120866534Y-116085173D01*
X120828654Y-116081101D01*
X120828642Y-116081100D01*
X120828638Y-116081100D01*
X120431362Y-116081100D01*
X120431357Y-116081100D01*
X120431345Y-116081101D01*
X120393466Y-116085173D01*
X120366534Y-116085173D01*
X120328654Y-116081101D01*
X120328642Y-116081100D01*
X120328638Y-116081100D01*
X119931362Y-116081100D01*
X119931357Y-116081100D01*
X119931345Y-116081101D01*
X119893466Y-116085173D01*
X119866534Y-116085173D01*
X119828654Y-116081101D01*
X119828642Y-116081100D01*
X119828638Y-116081100D01*
X119431362Y-116081100D01*
X119431356Y-116081100D01*
X119431348Y-116081101D01*
X119402967Y-116084152D01*
X119333099Y-116071546D01*
X119281137Y-116023166D01*
X119263500Y-115958874D01*
X119263500Y-108385042D01*
X119283502Y-108316921D01*
X119337158Y-108270428D01*
X119407432Y-108260324D01*
X119459500Y-108280276D01*
X119528529Y-108326400D01*
X119643819Y-108374155D01*
X119766210Y-108398500D01*
X119766211Y-108398500D01*
X120553389Y-108398500D01*
X120553390Y-108398500D01*
X120675781Y-108374155D01*
X120791071Y-108326400D01*
X120894829Y-108257071D01*
X121622071Y-107529829D01*
X121691400Y-107426071D01*
X121739155Y-107310781D01*
X121742041Y-107296270D01*
X121774947Y-107233361D01*
X121836641Y-107198228D01*
X121852139Y-107195573D01*
X121857023Y-107195048D01*
X121926892Y-107207649D01*
G37*
%TD.AperFunction*%
%TA.AperFunction,Conductor*%
G36*
X125172121Y-109068102D02*
G01*
X125218614Y-109121758D01*
X125230000Y-109174100D01*
X125230000Y-109605100D01*
X125209998Y-109673221D01*
X125156342Y-109719714D01*
X125104000Y-109731100D01*
X125056000Y-109731100D01*
X124987879Y-109711098D01*
X124941386Y-109657442D01*
X124930000Y-109605100D01*
X124930000Y-109174100D01*
X124950002Y-109105979D01*
X125003658Y-109059486D01*
X125056000Y-109048100D01*
X125104000Y-109048100D01*
X125172121Y-109068102D01*
G37*
%TD.AperFunction*%
%TA.AperFunction,Conductor*%
G36*
X130737160Y-79804246D02*
G01*
X130790482Y-79851121D01*
X130810000Y-79918483D01*
X130810000Y-82626516D01*
X130789998Y-82694637D01*
X130736342Y-82741130D01*
X130666068Y-82751234D01*
X130602170Y-82722328D01*
X130489987Y-82626516D01*
X130438849Y-82582840D01*
X130234249Y-82457460D01*
X130012553Y-82365631D01*
X130012551Y-82365630D01*
X129852936Y-82327310D01*
X129779222Y-82309613D01*
X129540000Y-82290786D01*
X129300778Y-82309613D01*
X129067448Y-82365630D01*
X128845752Y-82457459D01*
X128641152Y-82582839D01*
X128458682Y-82738682D01*
X128302839Y-82921152D01*
X128177459Y-83125752D01*
X128085630Y-83347448D01*
X128029613Y-83580778D01*
X128010786Y-83820000D01*
X128029613Y-84059221D01*
X128085630Y-84292551D01*
X128161314Y-84475268D01*
X128177460Y-84514249D01*
X128302840Y-84718849D01*
X128458682Y-84901318D01*
X128458685Y-84901321D01*
X128608282Y-85029088D01*
X128647091Y-85088538D01*
X128648950Y-85109739D01*
X129481106Y-85941896D01*
X129378234Y-85969461D01*
X129282667Y-86024637D01*
X129204637Y-86102667D01*
X129149461Y-86198234D01*
X129121896Y-86301105D01*
X128295263Y-85474472D01*
X128295261Y-85474472D01*
X128177908Y-85665977D01*
X128086107Y-85887603D01*
X128030108Y-86120856D01*
X128011287Y-86360000D01*
X128030108Y-86599143D01*
X128086107Y-86832396D01*
X128177906Y-87054019D01*
X128295262Y-87245526D01*
X129121895Y-86418892D01*
X129149461Y-86521766D01*
X129204637Y-86617333D01*
X129282667Y-86695363D01*
X129378234Y-86750539D01*
X129481106Y-86778103D01*
X128654472Y-87604736D01*
X128654472Y-87604737D01*
X128845975Y-87722091D01*
X129067603Y-87813892D01*
X129300857Y-87869891D01*
X129300855Y-87869891D01*
X129540000Y-87888712D01*
X129779143Y-87869891D01*
X130012396Y-87813892D01*
X130234024Y-87722091D01*
X130425526Y-87604737D01*
X130425527Y-87604736D01*
X129598894Y-86778103D01*
X129701766Y-86750539D01*
X129797333Y-86695363D01*
X129875363Y-86617333D01*
X129930539Y-86521766D01*
X129958104Y-86418893D01*
X130792276Y-87253065D01*
X130792281Y-87253072D01*
X130801478Y-87262269D01*
X130809504Y-87276967D01*
X130810000Y-87277655D01*
X130810000Y-90524469D01*
X130801478Y-90537730D01*
X129958103Y-91381105D01*
X129930539Y-91278234D01*
X129875363Y-91182667D01*
X129797333Y-91104637D01*
X129701766Y-91049461D01*
X129598893Y-91021896D01*
X130425526Y-90195262D01*
X130425526Y-90195261D01*
X130234019Y-90077906D01*
X130012396Y-89986107D01*
X129779142Y-89930108D01*
X129779144Y-89930108D01*
X129540000Y-89911287D01*
X129300856Y-89930108D01*
X129067603Y-89986107D01*
X128845977Y-90077908D01*
X128654472Y-90195261D01*
X128654472Y-90195263D01*
X129481105Y-91021896D01*
X129378234Y-91049461D01*
X129282667Y-91104637D01*
X129204637Y-91182667D01*
X129149461Y-91278234D01*
X129121896Y-91381105D01*
X128295263Y-90554472D01*
X128295261Y-90554472D01*
X128177908Y-90745977D01*
X128086107Y-90967603D01*
X128030108Y-91200856D01*
X128011287Y-91440000D01*
X128030108Y-91679143D01*
X128086107Y-91912396D01*
X128177906Y-92134019D01*
X128295262Y-92325526D01*
X129121895Y-91498892D01*
X129149461Y-91601766D01*
X129204637Y-91697333D01*
X129282667Y-91775363D01*
X129378234Y-91830539D01*
X129481106Y-91858103D01*
X128646003Y-92693205D01*
X128639721Y-92730293D01*
X128608282Y-92770911D01*
X128458685Y-92898678D01*
X128302839Y-93081152D01*
X128177459Y-93285752D01*
X128085630Y-93507448D01*
X128044117Y-93680363D01*
X128029613Y-93740778D01*
X128010786Y-93980000D01*
X128016068Y-94047121D01*
X128029613Y-94219221D01*
X128085630Y-94452551D01*
X128174025Y-94665955D01*
X128177460Y-94674249D01*
X128302840Y-94878849D01*
X128458682Y-95061318D01*
X128641151Y-95217160D01*
X128845751Y-95342540D01*
X129067447Y-95434369D01*
X129300778Y-95490387D01*
X129540000Y-95509214D01*
X129779222Y-95490387D01*
X130012553Y-95434369D01*
X130234249Y-95342540D01*
X130438849Y-95217160D01*
X130602170Y-95077672D01*
X130666960Y-95048641D01*
X130737160Y-95059246D01*
X130790482Y-95106121D01*
X130810000Y-95173483D01*
X130810000Y-102946516D01*
X130789998Y-103014637D01*
X130736342Y-103061130D01*
X130666068Y-103071234D01*
X130602170Y-103042328D01*
X130489987Y-102946516D01*
X130438849Y-102902840D01*
X130234249Y-102777460D01*
X130012553Y-102685631D01*
X130012551Y-102685630D01*
X129849165Y-102646405D01*
X129779222Y-102629613D01*
X129540000Y-102610786D01*
X129300778Y-102629613D01*
X129067448Y-102685630D01*
X128845752Y-102777459D01*
X128641152Y-102902839D01*
X128458682Y-103058682D01*
X128302839Y-103241152D01*
X128177459Y-103445752D01*
X128085630Y-103667448D01*
X128063678Y-103758886D01*
X128029613Y-103900778D01*
X128010786Y-104140000D01*
X128029613Y-104379222D01*
X128047310Y-104452936D01*
X128085630Y-104612551D01*
X128085631Y-104612553D01*
X128177460Y-104834249D01*
X128302840Y-105038849D01*
X128458682Y-105221318D01*
X128458685Y-105221321D01*
X128567420Y-105314189D01*
X128606229Y-105373639D01*
X128606737Y-105444634D01*
X128568781Y-105504633D01*
X128567420Y-105505811D01*
X128458685Y-105598678D01*
X128302839Y-105781152D01*
X128177459Y-105985752D01*
X128085630Y-106207448D01*
X128029613Y-106440778D01*
X128010786Y-106680000D01*
X128029613Y-106919222D01*
X128033537Y-106935565D01*
X128085630Y-107152551D01*
X128085631Y-107152553D01*
X128165498Y-107345370D01*
X128173087Y-107415958D01*
X128141308Y-107479445D01*
X128138184Y-107482681D01*
X127191552Y-108429313D01*
X127129240Y-108463339D01*
X127058425Y-108458274D01*
X127001589Y-108415727D01*
X126976778Y-108349207D01*
X126978877Y-108315643D01*
X126998500Y-108216994D01*
X126998500Y-108092206D01*
X126998500Y-104961824D01*
X127018502Y-104893703D01*
X127044565Y-104864425D01*
X127069205Y-104844205D01*
X127193057Y-104693290D01*
X127285088Y-104521113D01*
X127341760Y-104334290D01*
X127342975Y-104321960D01*
X127360896Y-104140003D01*
X127360896Y-104139996D01*
X127341761Y-103945716D01*
X127341760Y-103945714D01*
X127341760Y-103945710D01*
X127285088Y-103758887D01*
X127193057Y-103586710D01*
X127069205Y-103435795D01*
X126918290Y-103311943D01*
X126918288Y-103311942D01*
X126918287Y-103311941D01*
X126746113Y-103219912D01*
X126559283Y-103163238D01*
X126365003Y-103144104D01*
X126364997Y-103144104D01*
X126170716Y-103163238D01*
X125983886Y-103219912D01*
X125811712Y-103311941D01*
X125660795Y-103435795D01*
X125536941Y-103586712D01*
X125444912Y-103758886D01*
X125388238Y-103945716D01*
X125369104Y-104139996D01*
X125369104Y-104140003D01*
X125388238Y-104334283D01*
X125444912Y-104521113D01*
X125525189Y-104671301D01*
X125536943Y-104693290D01*
X125660795Y-104844205D01*
X125685433Y-104864424D01*
X125725402Y-104923100D01*
X125731500Y-104961824D01*
X125731500Y-107105100D01*
X125711498Y-107173221D01*
X125657842Y-107219714D01*
X125605500Y-107231100D01*
X124281350Y-107231100D01*
X124220803Y-107237609D01*
X124220798Y-107237611D01*
X124192530Y-107248155D01*
X124148496Y-107256100D01*
X123967603Y-107256100D01*
X123894568Y-107270628D01*
X123845215Y-107280445D01*
X123845213Y-107280445D01*
X123845212Y-107280446D01*
X123729923Y-107328201D01*
X123626171Y-107397526D01*
X123626164Y-107397531D01*
X123478595Y-107545101D01*
X123416283Y-107579127D01*
X123345468Y-107574062D01*
X123288632Y-107531515D01*
X123263821Y-107464995D01*
X123263500Y-107456006D01*
X123263500Y-107317777D01*
X123283502Y-107249656D01*
X123337158Y-107203163D01*
X123376031Y-107192499D01*
X123389093Y-107191094D01*
X123525964Y-107140044D01*
X123525965Y-107140044D01*
X123642904Y-107052504D01*
X123730444Y-106935565D01*
X123730444Y-106935564D01*
X123781494Y-106798693D01*
X123787999Y-106738197D01*
X123788000Y-106738185D01*
X123788000Y-106089600D01*
X123414500Y-106089600D01*
X123346379Y-106069598D01*
X123299886Y-106015942D01*
X123288500Y-105963600D01*
X123288500Y-105915600D01*
X123308502Y-105847479D01*
X123362158Y-105800986D01*
X123414500Y-105789600D01*
X123788000Y-105789600D01*
X123788000Y-105141014D01*
X123787999Y-105141002D01*
X123781494Y-105080506D01*
X123730444Y-104943635D01*
X123730444Y-104943634D01*
X123642904Y-104826695D01*
X123525965Y-104739155D01*
X123389091Y-104688104D01*
X123376025Y-104686699D01*
X123310434Y-104659527D01*
X123269946Y-104601207D01*
X123263500Y-104561422D01*
X123263500Y-98626735D01*
X123283502Y-98558614D01*
X123337158Y-98512121D01*
X123368751Y-98502456D01*
X123524635Y-98476444D01*
X123737574Y-98403342D01*
X123935576Y-98296189D01*
X124113240Y-98157906D01*
X124265722Y-97992268D01*
X124388860Y-97803791D01*
X124479296Y-97597616D01*
X124534564Y-97379368D01*
X124553156Y-97155000D01*
X124534564Y-96930632D01*
X124491157Y-96759220D01*
X124479297Y-96712387D01*
X124479296Y-96712386D01*
X124479296Y-96712384D01*
X124388860Y-96506209D01*
X124357206Y-96457759D01*
X124354016Y-96452876D01*
X124333504Y-96384907D01*
X124333500Y-96383962D01*
X124333500Y-94116037D01*
X124353502Y-94047916D01*
X124354017Y-94047121D01*
X124354055Y-94047063D01*
X124388860Y-93993791D01*
X124479296Y-93787616D01*
X124534564Y-93569368D01*
X124553156Y-93345000D01*
X124534564Y-93120632D01*
X124482584Y-92915367D01*
X124479297Y-92902387D01*
X124479296Y-92902386D01*
X124479296Y-92902384D01*
X124388860Y-92696209D01*
X124354016Y-92642876D01*
X124333504Y-92574907D01*
X124333500Y-92573962D01*
X124333500Y-90306037D01*
X124353502Y-90237916D01*
X124354017Y-90237121D01*
X124354055Y-90237063D01*
X124388860Y-90183791D01*
X124479296Y-89977616D01*
X124534564Y-89759368D01*
X124553156Y-89535000D01*
X124534564Y-89310632D01*
X124534562Y-89310624D01*
X124479297Y-89092387D01*
X124479296Y-89092386D01*
X124479296Y-89092384D01*
X124388860Y-88886209D01*
X124354816Y-88834100D01*
X124265724Y-88697734D01*
X124265720Y-88697729D01*
X124149570Y-88571559D01*
X124113240Y-88532094D01*
X124113239Y-88532093D01*
X124113237Y-88532091D01*
X123965127Y-88416812D01*
X123935576Y-88393811D01*
X123737574Y-88286658D01*
X123737572Y-88286657D01*
X123737571Y-88286656D01*
X123524639Y-88213557D01*
X123524630Y-88213555D01*
X123447029Y-88200606D01*
X123302569Y-88176500D01*
X123077431Y-88176500D01*
X122932971Y-88200606D01*
X122855369Y-88213555D01*
X122855360Y-88213557D01*
X122642428Y-88286656D01*
X122642426Y-88286658D01*
X122444426Y-88393810D01*
X122444424Y-88393811D01*
X122266762Y-88532091D01*
X122114279Y-88697729D01*
X122025183Y-88834101D01*
X121971179Y-88880189D01*
X121900831Y-88889764D01*
X121836474Y-88859786D01*
X121814217Y-88834100D01*
X121725327Y-88698044D01*
X121572902Y-88532465D01*
X121395301Y-88394232D01*
X121395300Y-88394231D01*
X121197371Y-88287117D01*
X121197369Y-88287116D01*
X120984512Y-88214043D01*
X120984501Y-88214040D01*
X120904000Y-88200606D01*
X120904000Y-89197712D01*
X120811766Y-89144461D01*
X120705176Y-89115900D01*
X120594824Y-89115900D01*
X120488234Y-89144461D01*
X120396000Y-89197712D01*
X120396000Y-88235841D01*
X120416002Y-88167720D01*
X120432899Y-88146752D01*
X122330923Y-86248728D01*
X122330928Y-86248725D01*
X122341297Y-86238355D01*
X122341299Y-86238355D01*
X122433355Y-86146299D01*
X122505682Y-86038054D01*
X122555502Y-85917777D01*
X122580900Y-85790093D01*
X122580900Y-85082092D01*
X122600902Y-85013971D01*
X122646930Y-84971279D01*
X122665576Y-84961189D01*
X122843240Y-84822906D01*
X122995722Y-84657268D01*
X123118860Y-84468791D01*
X123209296Y-84262616D01*
X123264564Y-84044368D01*
X123283156Y-83820000D01*
X123264564Y-83595632D01*
X123209296Y-83377384D01*
X123118860Y-83171209D01*
X123084016Y-83117876D01*
X123063504Y-83049907D01*
X123063500Y-83048962D01*
X123063500Y-80781037D01*
X123083502Y-80712916D01*
X123084017Y-80712121D01*
X123118860Y-80658791D01*
X123209296Y-80452616D01*
X123239695Y-80332569D01*
X123272742Y-80274409D01*
X123641749Y-79905404D01*
X123704061Y-79871379D01*
X123730844Y-79868500D01*
X128485004Y-79868500D01*
X128553125Y-79888502D01*
X128566834Y-79898689D01*
X128641142Y-79962153D01*
X128641146Y-79962157D01*
X128641151Y-79962160D01*
X128845751Y-80087540D01*
X129067447Y-80179369D01*
X129300778Y-80235387D01*
X129540000Y-80254214D01*
X129779222Y-80235387D01*
X130012553Y-80179369D01*
X130234249Y-80087540D01*
X130438849Y-79962160D01*
X130602170Y-79822672D01*
X130666960Y-79793641D01*
X130737160Y-79804246D01*
G37*
%TD.AperFunction*%
%TA.AperFunction,Conductor*%
G36*
X121953725Y-97906435D02*
G01*
X121991659Y-97966447D01*
X121996500Y-98001037D01*
X121996500Y-99205010D01*
X121976498Y-99273131D01*
X121922842Y-99319624D01*
X121852568Y-99329728D01*
X121787988Y-99300234D01*
X121781405Y-99294105D01*
X121320405Y-98833105D01*
X121286379Y-98770793D01*
X121283500Y-98744010D01*
X121283500Y-98431920D01*
X121303502Y-98363799D01*
X121349527Y-98321108D01*
X121395576Y-98296189D01*
X121573240Y-98157906D01*
X121725722Y-97992268D01*
X121765018Y-97932119D01*
X121819020Y-97886034D01*
X121889367Y-97876458D01*
X121953725Y-97906435D01*
G37*
%TD.AperFunction*%
%TA.AperFunction,Conductor*%
G36*
X120259461Y-89373234D02*
G01*
X120230900Y-89479824D01*
X120230900Y-89590176D01*
X120259461Y-89696766D01*
X120312713Y-89789000D01*
X119313455Y-89789000D01*
X119361176Y-89977449D01*
X119361179Y-89977456D01*
X119451580Y-90183548D01*
X119574674Y-90371958D01*
X119727097Y-90537534D01*
X119904698Y-90675767D01*
X119904699Y-90675768D01*
X120102628Y-90782882D01*
X120102630Y-90782883D01*
X120315483Y-90855955D01*
X120315492Y-90855957D01*
X120396000Y-90869391D01*
X120396000Y-89872287D01*
X120488234Y-89925539D01*
X120594824Y-89954100D01*
X120705176Y-89954100D01*
X120811766Y-89925539D01*
X120904000Y-89872287D01*
X120904000Y-90869390D01*
X120984507Y-90855957D01*
X120984516Y-90855955D01*
X121197369Y-90782883D01*
X121197371Y-90782882D01*
X121395300Y-90675768D01*
X121395301Y-90675767D01*
X121572902Y-90537534D01*
X121725327Y-90371955D01*
X121814217Y-90235899D01*
X121868220Y-90189810D01*
X121938568Y-90180235D01*
X122002925Y-90210212D01*
X122025144Y-90235840D01*
X122025944Y-90237063D01*
X122046496Y-90305020D01*
X122046500Y-90306037D01*
X122046500Y-92573962D01*
X122026498Y-92642083D01*
X122025944Y-92642936D01*
X122025144Y-92644159D01*
X121971115Y-92690217D01*
X121900762Y-92699754D01*
X121836421Y-92669740D01*
X121814217Y-92644100D01*
X121725327Y-92508044D01*
X121572902Y-92342465D01*
X121395301Y-92204232D01*
X121395300Y-92204231D01*
X121197371Y-92097117D01*
X121197369Y-92097116D01*
X120984512Y-92024043D01*
X120984501Y-92024040D01*
X120904000Y-92010606D01*
X120904000Y-93007712D01*
X120811766Y-92954461D01*
X120705176Y-92925900D01*
X120594824Y-92925900D01*
X120488234Y-92954461D01*
X120396000Y-93007712D01*
X120396000Y-92010607D01*
X120395999Y-92010606D01*
X120315498Y-92024040D01*
X120315487Y-92024043D01*
X120102630Y-92097116D01*
X120102628Y-92097117D01*
X119904699Y-92204231D01*
X119904698Y-92204232D01*
X119727097Y-92342465D01*
X119574674Y-92508041D01*
X119451580Y-92696451D01*
X119361179Y-92902543D01*
X119361176Y-92902550D01*
X119313455Y-93090999D01*
X119313456Y-93091000D01*
X120312713Y-93091000D01*
X120259461Y-93183234D01*
X120230900Y-93289824D01*
X120230900Y-93400176D01*
X120259461Y-93506766D01*
X120312713Y-93599000D01*
X119313455Y-93599000D01*
X119361176Y-93787449D01*
X119361179Y-93787456D01*
X119451580Y-93993548D01*
X119574674Y-94181958D01*
X119727097Y-94347534D01*
X119904698Y-94485767D01*
X119904699Y-94485768D01*
X120102628Y-94592882D01*
X120102630Y-94592883D01*
X120315483Y-94665955D01*
X120315492Y-94665957D01*
X120396000Y-94679391D01*
X120396000Y-93682287D01*
X120488234Y-93735539D01*
X120594824Y-93764100D01*
X120705176Y-93764100D01*
X120811766Y-93735539D01*
X120904000Y-93682287D01*
X120904000Y-94679390D01*
X120984507Y-94665957D01*
X120984516Y-94665955D01*
X121197369Y-94592883D01*
X121197371Y-94592882D01*
X121395300Y-94485768D01*
X121395301Y-94485767D01*
X121572902Y-94347534D01*
X121725327Y-94181955D01*
X121814217Y-94045899D01*
X121868220Y-93999810D01*
X121938568Y-93990235D01*
X122002925Y-94020212D01*
X122025144Y-94045840D01*
X122025944Y-94047063D01*
X122046496Y-94115020D01*
X122046500Y-94116037D01*
X122046500Y-96383962D01*
X122026498Y-96452083D01*
X122025970Y-96452897D01*
X122025470Y-96453662D01*
X121971458Y-96499740D01*
X121901109Y-96509303D01*
X121836757Y-96479313D01*
X121814517Y-96453643D01*
X121725720Y-96317729D01*
X121573237Y-96152091D01*
X121491382Y-96088381D01*
X121395576Y-96013811D01*
X121197574Y-95906658D01*
X121197572Y-95906657D01*
X121197571Y-95906656D01*
X120984639Y-95833557D01*
X120984630Y-95833555D01*
X120930826Y-95824577D01*
X120762569Y-95796500D01*
X120537431Y-95796500D01*
X120389211Y-95821233D01*
X120315369Y-95833555D01*
X120315360Y-95833557D01*
X120102428Y-95906656D01*
X120102426Y-95906658D01*
X120023640Y-95949295D01*
X119904426Y-96013810D01*
X119904424Y-96013811D01*
X119726762Y-96152091D01*
X119574279Y-96317729D01*
X119574275Y-96317734D01*
X119451141Y-96506206D01*
X119360703Y-96712386D01*
X119360702Y-96712387D01*
X119305437Y-96930624D01*
X119287794Y-97143536D01*
X119262234Y-97209772D01*
X119204922Y-97251675D01*
X119134054Y-97255941D01*
X119073129Y-97222225D01*
X118513835Y-96662931D01*
X118513833Y-96662929D01*
X118410075Y-96593600D01*
X118294785Y-96545845D01*
X118221086Y-96531185D01*
X118172396Y-96521500D01*
X118172394Y-96521500D01*
X118117038Y-96521500D01*
X118048917Y-96501498D01*
X118011554Y-96464414D01*
X118004016Y-96452876D01*
X117983504Y-96384908D01*
X117983500Y-96383962D01*
X117983500Y-94116037D01*
X118003502Y-94047916D01*
X118004017Y-94047121D01*
X118004055Y-94047063D01*
X118038860Y-93993791D01*
X118129296Y-93787616D01*
X118184564Y-93569368D01*
X118203156Y-93345000D01*
X118184564Y-93120632D01*
X118132584Y-92915367D01*
X118129297Y-92902387D01*
X118129296Y-92902386D01*
X118129296Y-92902384D01*
X118038860Y-92696209D01*
X117983500Y-92611474D01*
X117915724Y-92507734D01*
X117915720Y-92507729D01*
X117774139Y-92353933D01*
X117763240Y-92342094D01*
X117763239Y-92342093D01*
X117763237Y-92342091D01*
X117681382Y-92278381D01*
X117585576Y-92203811D01*
X117387574Y-92096658D01*
X117387572Y-92096657D01*
X117387571Y-92096656D01*
X117174639Y-92023557D01*
X117174630Y-92023555D01*
X117092840Y-92009907D01*
X116952569Y-91986500D01*
X116897343Y-91986500D01*
X116829222Y-91966498D01*
X116782729Y-91912842D01*
X116772625Y-91842568D01*
X116802119Y-91777988D01*
X116808248Y-91771405D01*
X117396986Y-91182667D01*
X119261749Y-89317903D01*
X119324058Y-89283880D01*
X119350841Y-89281000D01*
X120312713Y-89281000D01*
X120259461Y-89373234D01*
G37*
%TD.AperFunction*%
%TA.AperFunction,Conductor*%
G36*
X130792276Y-92333065D02*
G01*
X130792281Y-92333072D01*
X130801478Y-92342269D01*
X130809504Y-92356967D01*
X130810000Y-92357655D01*
X130810000Y-92511938D01*
X130810000Y-92786516D01*
X130789998Y-92854637D01*
X130736342Y-92901130D01*
X130666068Y-92911234D01*
X130602170Y-92882328D01*
X130569937Y-92854799D01*
X130471714Y-92770909D01*
X130432907Y-92711462D01*
X130431047Y-92690258D01*
X129598893Y-91858103D01*
X129701766Y-91830539D01*
X129797333Y-91775363D01*
X129875363Y-91697333D01*
X129930539Y-91601766D01*
X129958104Y-91498893D01*
X130792276Y-92333065D01*
G37*
%TD.AperFunction*%
%TA.AperFunction,Conductor*%
G36*
X130737160Y-84899247D02*
G01*
X130790482Y-84946122D01*
X130810000Y-85013483D01*
X130810000Y-85444469D01*
X130801478Y-85457730D01*
X129958103Y-86301105D01*
X129930539Y-86198234D01*
X129875363Y-86102667D01*
X129797333Y-86024637D01*
X129701766Y-85969461D01*
X129598892Y-85941895D01*
X130433994Y-85106793D01*
X130440276Y-85069710D01*
X130471711Y-85029093D01*
X130602171Y-84917670D01*
X130666961Y-84888640D01*
X130737160Y-84899247D01*
G37*
%TD.AperFunction*%
%TD*%
M02*
