%TF.GenerationSoftware,KiCad,Pcbnew,8.0.7*%
%TF.CreationDate,2025-04-29T18:28:53-03:00*%
%TF.ProjectId,ads_headstage_breadboard_v2,6164735f-6865-4616-9473-746167655f62,rev?*%
%TF.SameCoordinates,Original*%
%TF.FileFunction,AssemblyDrawing,Top*%
%FSLAX46Y46*%
G04 Gerber Fmt 4.6, Leading zero omitted, Abs format (unit mm)*
G04 Created by KiCad (PCBNEW 8.0.7) date 2025-04-29 18:28:53*
%MOMM*%
%LPD*%
G01*
G04 APERTURE LIST*
%ADD10C,0.150000*%
%ADD11C,0.100000*%
G04 APERTURE END LIST*
D10*
X97166952Y-124172704D02*
X97643142Y-124172704D01*
X97071714Y-124458419D02*
X97405047Y-123458419D01*
X97405047Y-123458419D02*
X97738380Y-124458419D01*
X98071714Y-124458419D02*
X98071714Y-123458419D01*
X98071714Y-123458419D02*
X98309809Y-123458419D01*
X98309809Y-123458419D02*
X98452666Y-123506038D01*
X98452666Y-123506038D02*
X98547904Y-123601276D01*
X98547904Y-123601276D02*
X98595523Y-123696514D01*
X98595523Y-123696514D02*
X98643142Y-123886990D01*
X98643142Y-123886990D02*
X98643142Y-124029847D01*
X98643142Y-124029847D02*
X98595523Y-124220323D01*
X98595523Y-124220323D02*
X98547904Y-124315561D01*
X98547904Y-124315561D02*
X98452666Y-124410800D01*
X98452666Y-124410800D02*
X98309809Y-124458419D01*
X98309809Y-124458419D02*
X98071714Y-124458419D01*
X99024095Y-124410800D02*
X99166952Y-124458419D01*
X99166952Y-124458419D02*
X99405047Y-124458419D01*
X99405047Y-124458419D02*
X99500285Y-124410800D01*
X99500285Y-124410800D02*
X99547904Y-124363180D01*
X99547904Y-124363180D02*
X99595523Y-124267942D01*
X99595523Y-124267942D02*
X99595523Y-124172704D01*
X99595523Y-124172704D02*
X99547904Y-124077466D01*
X99547904Y-124077466D02*
X99500285Y-124029847D01*
X99500285Y-124029847D02*
X99405047Y-123982228D01*
X99405047Y-123982228D02*
X99214571Y-123934609D01*
X99214571Y-123934609D02*
X99119333Y-123886990D01*
X99119333Y-123886990D02*
X99071714Y-123839371D01*
X99071714Y-123839371D02*
X99024095Y-123744133D01*
X99024095Y-123744133D02*
X99024095Y-123648895D01*
X99024095Y-123648895D02*
X99071714Y-123553657D01*
X99071714Y-123553657D02*
X99119333Y-123506038D01*
X99119333Y-123506038D02*
X99214571Y-123458419D01*
X99214571Y-123458419D02*
X99452666Y-123458419D01*
X99452666Y-123458419D02*
X99595523Y-123506038D01*
X100547904Y-124458419D02*
X99976476Y-124458419D01*
X100262190Y-124458419D02*
X100262190Y-123458419D01*
X100262190Y-123458419D02*
X100166952Y-123601276D01*
X100166952Y-123601276D02*
X100071714Y-123696514D01*
X100071714Y-123696514D02*
X99976476Y-123744133D01*
X100928857Y-123553657D02*
X100976476Y-123506038D01*
X100976476Y-123506038D02*
X101071714Y-123458419D01*
X101071714Y-123458419D02*
X101309809Y-123458419D01*
X101309809Y-123458419D02*
X101405047Y-123506038D01*
X101405047Y-123506038D02*
X101452666Y-123553657D01*
X101452666Y-123553657D02*
X101500285Y-123648895D01*
X101500285Y-123648895D02*
X101500285Y-123744133D01*
X101500285Y-123744133D02*
X101452666Y-123886990D01*
X101452666Y-123886990D02*
X100881238Y-124458419D01*
X100881238Y-124458419D02*
X101500285Y-124458419D01*
X101976476Y-124458419D02*
X102166952Y-124458419D01*
X102166952Y-124458419D02*
X102262190Y-124410800D01*
X102262190Y-124410800D02*
X102309809Y-124363180D01*
X102309809Y-124363180D02*
X102405047Y-124220323D01*
X102405047Y-124220323D02*
X102452666Y-124029847D01*
X102452666Y-124029847D02*
X102452666Y-123648895D01*
X102452666Y-123648895D02*
X102405047Y-123553657D01*
X102405047Y-123553657D02*
X102357428Y-123506038D01*
X102357428Y-123506038D02*
X102262190Y-123458419D01*
X102262190Y-123458419D02*
X102071714Y-123458419D01*
X102071714Y-123458419D02*
X101976476Y-123506038D01*
X101976476Y-123506038D02*
X101928857Y-123553657D01*
X101928857Y-123553657D02*
X101881238Y-123648895D01*
X101881238Y-123648895D02*
X101881238Y-123886990D01*
X101881238Y-123886990D02*
X101928857Y-123982228D01*
X101928857Y-123982228D02*
X101976476Y-124029847D01*
X101976476Y-124029847D02*
X102071714Y-124077466D01*
X102071714Y-124077466D02*
X102262190Y-124077466D01*
X102262190Y-124077466D02*
X102357428Y-124029847D01*
X102357428Y-124029847D02*
X102405047Y-123982228D01*
X102405047Y-123982228D02*
X102452666Y-123886990D01*
X103024095Y-123886990D02*
X102928857Y-123839371D01*
X102928857Y-123839371D02*
X102881238Y-123791752D01*
X102881238Y-123791752D02*
X102833619Y-123696514D01*
X102833619Y-123696514D02*
X102833619Y-123648895D01*
X102833619Y-123648895D02*
X102881238Y-123553657D01*
X102881238Y-123553657D02*
X102928857Y-123506038D01*
X102928857Y-123506038D02*
X103024095Y-123458419D01*
X103024095Y-123458419D02*
X103214571Y-123458419D01*
X103214571Y-123458419D02*
X103309809Y-123506038D01*
X103309809Y-123506038D02*
X103357428Y-123553657D01*
X103357428Y-123553657D02*
X103405047Y-123648895D01*
X103405047Y-123648895D02*
X103405047Y-123696514D01*
X103405047Y-123696514D02*
X103357428Y-123791752D01*
X103357428Y-123791752D02*
X103309809Y-123839371D01*
X103309809Y-123839371D02*
X103214571Y-123886990D01*
X103214571Y-123886990D02*
X103024095Y-123886990D01*
X103024095Y-123886990D02*
X102928857Y-123934609D01*
X102928857Y-123934609D02*
X102881238Y-123982228D01*
X102881238Y-123982228D02*
X102833619Y-124077466D01*
X102833619Y-124077466D02*
X102833619Y-124267942D01*
X102833619Y-124267942D02*
X102881238Y-124363180D01*
X102881238Y-124363180D02*
X102928857Y-124410800D01*
X102928857Y-124410800D02*
X103024095Y-124458419D01*
X103024095Y-124458419D02*
X103214571Y-124458419D01*
X103214571Y-124458419D02*
X103309809Y-124410800D01*
X103309809Y-124410800D02*
X103357428Y-124363180D01*
X103357428Y-124363180D02*
X103405047Y-124267942D01*
X103405047Y-124267942D02*
X103405047Y-124077466D01*
X103405047Y-124077466D02*
X103357428Y-123982228D01*
X103357428Y-123982228D02*
X103309809Y-123934609D01*
X103309809Y-123934609D02*
X103214571Y-123886990D01*
X116260952Y-111808704D02*
X116737142Y-111808704D01*
X116165714Y-112094419D02*
X116499047Y-111094419D01*
X116499047Y-111094419D02*
X116832380Y-112094419D01*
X117165714Y-112094419D02*
X117165714Y-111094419D01*
X117165714Y-111094419D02*
X117403809Y-111094419D01*
X117403809Y-111094419D02*
X117546666Y-111142038D01*
X117546666Y-111142038D02*
X117641904Y-111237276D01*
X117641904Y-111237276D02*
X117689523Y-111332514D01*
X117689523Y-111332514D02*
X117737142Y-111522990D01*
X117737142Y-111522990D02*
X117737142Y-111665847D01*
X117737142Y-111665847D02*
X117689523Y-111856323D01*
X117689523Y-111856323D02*
X117641904Y-111951561D01*
X117641904Y-111951561D02*
X117546666Y-112046800D01*
X117546666Y-112046800D02*
X117403809Y-112094419D01*
X117403809Y-112094419D02*
X117165714Y-112094419D01*
X118118095Y-112046800D02*
X118260952Y-112094419D01*
X118260952Y-112094419D02*
X118499047Y-112094419D01*
X118499047Y-112094419D02*
X118594285Y-112046800D01*
X118594285Y-112046800D02*
X118641904Y-111999180D01*
X118641904Y-111999180D02*
X118689523Y-111903942D01*
X118689523Y-111903942D02*
X118689523Y-111808704D01*
X118689523Y-111808704D02*
X118641904Y-111713466D01*
X118641904Y-111713466D02*
X118594285Y-111665847D01*
X118594285Y-111665847D02*
X118499047Y-111618228D01*
X118499047Y-111618228D02*
X118308571Y-111570609D01*
X118308571Y-111570609D02*
X118213333Y-111522990D01*
X118213333Y-111522990D02*
X118165714Y-111475371D01*
X118165714Y-111475371D02*
X118118095Y-111380133D01*
X118118095Y-111380133D02*
X118118095Y-111284895D01*
X118118095Y-111284895D02*
X118165714Y-111189657D01*
X118165714Y-111189657D02*
X118213333Y-111142038D01*
X118213333Y-111142038D02*
X118308571Y-111094419D01*
X118308571Y-111094419D02*
X118546666Y-111094419D01*
X118546666Y-111094419D02*
X118689523Y-111142038D01*
X119641904Y-112094419D02*
X119070476Y-112094419D01*
X119356190Y-112094419D02*
X119356190Y-111094419D01*
X119356190Y-111094419D02*
X119260952Y-111237276D01*
X119260952Y-111237276D02*
X119165714Y-111332514D01*
X119165714Y-111332514D02*
X119070476Y-111380133D01*
X120022857Y-111189657D02*
X120070476Y-111142038D01*
X120070476Y-111142038D02*
X120165714Y-111094419D01*
X120165714Y-111094419D02*
X120403809Y-111094419D01*
X120403809Y-111094419D02*
X120499047Y-111142038D01*
X120499047Y-111142038D02*
X120546666Y-111189657D01*
X120546666Y-111189657D02*
X120594285Y-111284895D01*
X120594285Y-111284895D02*
X120594285Y-111380133D01*
X120594285Y-111380133D02*
X120546666Y-111522990D01*
X120546666Y-111522990D02*
X119975238Y-112094419D01*
X119975238Y-112094419D02*
X120594285Y-112094419D01*
X121070476Y-112094419D02*
X121260952Y-112094419D01*
X121260952Y-112094419D02*
X121356190Y-112046800D01*
X121356190Y-112046800D02*
X121403809Y-111999180D01*
X121403809Y-111999180D02*
X121499047Y-111856323D01*
X121499047Y-111856323D02*
X121546666Y-111665847D01*
X121546666Y-111665847D02*
X121546666Y-111284895D01*
X121546666Y-111284895D02*
X121499047Y-111189657D01*
X121499047Y-111189657D02*
X121451428Y-111142038D01*
X121451428Y-111142038D02*
X121356190Y-111094419D01*
X121356190Y-111094419D02*
X121165714Y-111094419D01*
X121165714Y-111094419D02*
X121070476Y-111142038D01*
X121070476Y-111142038D02*
X121022857Y-111189657D01*
X121022857Y-111189657D02*
X120975238Y-111284895D01*
X120975238Y-111284895D02*
X120975238Y-111522990D01*
X120975238Y-111522990D02*
X121022857Y-111618228D01*
X121022857Y-111618228D02*
X121070476Y-111665847D01*
X121070476Y-111665847D02*
X121165714Y-111713466D01*
X121165714Y-111713466D02*
X121356190Y-111713466D01*
X121356190Y-111713466D02*
X121451428Y-111665847D01*
X121451428Y-111665847D02*
X121499047Y-111618228D01*
X121499047Y-111618228D02*
X121546666Y-111522990D01*
X122118095Y-111522990D02*
X122022857Y-111475371D01*
X122022857Y-111475371D02*
X121975238Y-111427752D01*
X121975238Y-111427752D02*
X121927619Y-111332514D01*
X121927619Y-111332514D02*
X121927619Y-111284895D01*
X121927619Y-111284895D02*
X121975238Y-111189657D01*
X121975238Y-111189657D02*
X122022857Y-111142038D01*
X122022857Y-111142038D02*
X122118095Y-111094419D01*
X122118095Y-111094419D02*
X122308571Y-111094419D01*
X122308571Y-111094419D02*
X122403809Y-111142038D01*
X122403809Y-111142038D02*
X122451428Y-111189657D01*
X122451428Y-111189657D02*
X122499047Y-111284895D01*
X122499047Y-111284895D02*
X122499047Y-111332514D01*
X122499047Y-111332514D02*
X122451428Y-111427752D01*
X122451428Y-111427752D02*
X122403809Y-111475371D01*
X122403809Y-111475371D02*
X122308571Y-111522990D01*
X122308571Y-111522990D02*
X122118095Y-111522990D01*
X122118095Y-111522990D02*
X122022857Y-111570609D01*
X122022857Y-111570609D02*
X121975238Y-111618228D01*
X121975238Y-111618228D02*
X121927619Y-111713466D01*
X121927619Y-111713466D02*
X121927619Y-111903942D01*
X121927619Y-111903942D02*
X121975238Y-111999180D01*
X121975238Y-111999180D02*
X122022857Y-112046800D01*
X122022857Y-112046800D02*
X122118095Y-112094419D01*
X122118095Y-112094419D02*
X122308571Y-112094419D01*
X122308571Y-112094419D02*
X122403809Y-112046800D01*
X122403809Y-112046800D02*
X122451428Y-111999180D01*
X122451428Y-111999180D02*
X122499047Y-111903942D01*
X122499047Y-111903942D02*
X122499047Y-111713466D01*
X122499047Y-111713466D02*
X122451428Y-111618228D01*
X122451428Y-111618228D02*
X122403809Y-111570609D01*
X122403809Y-111570609D02*
X122308571Y-111522990D01*
X109884819Y-80462381D02*
X109884819Y-81033809D01*
X109884819Y-80748095D02*
X108884819Y-80748095D01*
X108884819Y-80748095D02*
X109027676Y-80843333D01*
X109027676Y-80843333D02*
X109122914Y-80938571D01*
X109122914Y-80938571D02*
X109170533Y-81033809D01*
X109218152Y-80033809D02*
X109884819Y-80033809D01*
X109313390Y-80033809D02*
X109265771Y-79986190D01*
X109265771Y-79986190D02*
X109218152Y-79890952D01*
X109218152Y-79890952D02*
X109218152Y-79748095D01*
X109218152Y-79748095D02*
X109265771Y-79652857D01*
X109265771Y-79652857D02*
X109361009Y-79605238D01*
X109361009Y-79605238D02*
X109884819Y-79605238D01*
X109218152Y-79271904D02*
X109218152Y-78890952D01*
X109884819Y-79129047D02*
X109027676Y-79129047D01*
X109027676Y-79129047D02*
X108932438Y-79081428D01*
X108932438Y-79081428D02*
X108884819Y-78986190D01*
X108884819Y-78986190D02*
X108884819Y-78890952D01*
X112863333Y-80369580D02*
X112815714Y-80417200D01*
X112815714Y-80417200D02*
X112672857Y-80464819D01*
X112672857Y-80464819D02*
X112577619Y-80464819D01*
X112577619Y-80464819D02*
X112434762Y-80417200D01*
X112434762Y-80417200D02*
X112339524Y-80321961D01*
X112339524Y-80321961D02*
X112291905Y-80226723D01*
X112291905Y-80226723D02*
X112244286Y-80036247D01*
X112244286Y-80036247D02*
X112244286Y-79893390D01*
X112244286Y-79893390D02*
X112291905Y-79702914D01*
X112291905Y-79702914D02*
X112339524Y-79607676D01*
X112339524Y-79607676D02*
X112434762Y-79512438D01*
X112434762Y-79512438D02*
X112577619Y-79464819D01*
X112577619Y-79464819D02*
X112672857Y-79464819D01*
X112672857Y-79464819D02*
X112815714Y-79512438D01*
X112815714Y-79512438D02*
X112863333Y-79560057D01*
X113815714Y-80464819D02*
X113244286Y-80464819D01*
X113530000Y-80464819D02*
X113530000Y-79464819D01*
X113530000Y-79464819D02*
X113434762Y-79607676D01*
X113434762Y-79607676D02*
X113339524Y-79702914D01*
X113339524Y-79702914D02*
X113244286Y-79750533D01*
X117504819Y-84415238D02*
X117504819Y-84986666D01*
X117504819Y-84700952D02*
X116504819Y-84700952D01*
X116504819Y-84700952D02*
X116647676Y-84796190D01*
X116647676Y-84796190D02*
X116742914Y-84891428D01*
X116742914Y-84891428D02*
X116790533Y-84986666D01*
X116838152Y-83558095D02*
X117504819Y-83558095D01*
X116838152Y-83986666D02*
X117361961Y-83986666D01*
X117361961Y-83986666D02*
X117457200Y-83939047D01*
X117457200Y-83939047D02*
X117504819Y-83843809D01*
X117504819Y-83843809D02*
X117504819Y-83700952D01*
X117504819Y-83700952D02*
X117457200Y-83605714D01*
X117457200Y-83605714D02*
X117409580Y-83558095D01*
X116981009Y-82748571D02*
X116981009Y-83081904D01*
X117504819Y-83081904D02*
X116504819Y-83081904D01*
X116504819Y-83081904D02*
X116504819Y-82605714D01*
X120483333Y-84179580D02*
X120435714Y-84227200D01*
X120435714Y-84227200D02*
X120292857Y-84274819D01*
X120292857Y-84274819D02*
X120197619Y-84274819D01*
X120197619Y-84274819D02*
X120054762Y-84227200D01*
X120054762Y-84227200D02*
X119959524Y-84131961D01*
X119959524Y-84131961D02*
X119911905Y-84036723D01*
X119911905Y-84036723D02*
X119864286Y-83846247D01*
X119864286Y-83846247D02*
X119864286Y-83703390D01*
X119864286Y-83703390D02*
X119911905Y-83512914D01*
X119911905Y-83512914D02*
X119959524Y-83417676D01*
X119959524Y-83417676D02*
X120054762Y-83322438D01*
X120054762Y-83322438D02*
X120197619Y-83274819D01*
X120197619Y-83274819D02*
X120292857Y-83274819D01*
X120292857Y-83274819D02*
X120435714Y-83322438D01*
X120435714Y-83322438D02*
X120483333Y-83370057D01*
X120864286Y-83370057D02*
X120911905Y-83322438D01*
X120911905Y-83322438D02*
X121007143Y-83274819D01*
X121007143Y-83274819D02*
X121245238Y-83274819D01*
X121245238Y-83274819D02*
X121340476Y-83322438D01*
X121340476Y-83322438D02*
X121388095Y-83370057D01*
X121388095Y-83370057D02*
X121435714Y-83465295D01*
X121435714Y-83465295D02*
X121435714Y-83560533D01*
X121435714Y-83560533D02*
X121388095Y-83703390D01*
X121388095Y-83703390D02*
X120816667Y-84274819D01*
X120816667Y-84274819D02*
X121435714Y-84274819D01*
X122594761Y-71784819D02*
X122023333Y-71784819D01*
X122309047Y-71784819D02*
X122309047Y-70784819D01*
X122309047Y-70784819D02*
X122213809Y-70927676D01*
X122213809Y-70927676D02*
X122118571Y-71022914D01*
X122118571Y-71022914D02*
X122023333Y-71070533D01*
X123451904Y-71118152D02*
X123451904Y-71784819D01*
X123023333Y-71118152D02*
X123023333Y-71641961D01*
X123023333Y-71641961D02*
X123070952Y-71737200D01*
X123070952Y-71737200D02*
X123166190Y-71784819D01*
X123166190Y-71784819D02*
X123309047Y-71784819D01*
X123309047Y-71784819D02*
X123404285Y-71737200D01*
X123404285Y-71737200D02*
X123451904Y-71689580D01*
X124261428Y-71261009D02*
X123928095Y-71261009D01*
X123928095Y-71784819D02*
X123928095Y-70784819D01*
X123928095Y-70784819D02*
X124404285Y-70784819D01*
X123549580Y-75096666D02*
X123597200Y-75144285D01*
X123597200Y-75144285D02*
X123644819Y-75287142D01*
X123644819Y-75287142D02*
X123644819Y-75382380D01*
X123644819Y-75382380D02*
X123597200Y-75525237D01*
X123597200Y-75525237D02*
X123501961Y-75620475D01*
X123501961Y-75620475D02*
X123406723Y-75668094D01*
X123406723Y-75668094D02*
X123216247Y-75715713D01*
X123216247Y-75715713D02*
X123073390Y-75715713D01*
X123073390Y-75715713D02*
X122882914Y-75668094D01*
X122882914Y-75668094D02*
X122787676Y-75620475D01*
X122787676Y-75620475D02*
X122692438Y-75525237D01*
X122692438Y-75525237D02*
X122644819Y-75382380D01*
X122644819Y-75382380D02*
X122644819Y-75287142D01*
X122644819Y-75287142D02*
X122692438Y-75144285D01*
X122692438Y-75144285D02*
X122740057Y-75096666D01*
X122644819Y-74763332D02*
X122644819Y-74144285D01*
X122644819Y-74144285D02*
X123025771Y-74477618D01*
X123025771Y-74477618D02*
X123025771Y-74334761D01*
X123025771Y-74334761D02*
X123073390Y-74239523D01*
X123073390Y-74239523D02*
X123121009Y-74191904D01*
X123121009Y-74191904D02*
X123216247Y-74144285D01*
X123216247Y-74144285D02*
X123454342Y-74144285D01*
X123454342Y-74144285D02*
X123549580Y-74191904D01*
X123549580Y-74191904D02*
X123597200Y-74239523D01*
X123597200Y-74239523D02*
X123644819Y-74334761D01*
X123644819Y-74334761D02*
X123644819Y-74620475D01*
X123644819Y-74620475D02*
X123597200Y-74715713D01*
X123597200Y-74715713D02*
X123549580Y-74763332D01*
X116504819Y-81652856D02*
X116504819Y-81557618D01*
X116504819Y-81557618D02*
X116552438Y-81462380D01*
X116552438Y-81462380D02*
X116600057Y-81414761D01*
X116600057Y-81414761D02*
X116695295Y-81367142D01*
X116695295Y-81367142D02*
X116885771Y-81319523D01*
X116885771Y-81319523D02*
X117123866Y-81319523D01*
X117123866Y-81319523D02*
X117314342Y-81367142D01*
X117314342Y-81367142D02*
X117409580Y-81414761D01*
X117409580Y-81414761D02*
X117457200Y-81462380D01*
X117457200Y-81462380D02*
X117504819Y-81557618D01*
X117504819Y-81557618D02*
X117504819Y-81652856D01*
X117504819Y-81652856D02*
X117457200Y-81748094D01*
X117457200Y-81748094D02*
X117409580Y-81795713D01*
X117409580Y-81795713D02*
X117314342Y-81843332D01*
X117314342Y-81843332D02*
X117123866Y-81890951D01*
X117123866Y-81890951D02*
X116885771Y-81890951D01*
X116885771Y-81890951D02*
X116695295Y-81843332D01*
X116695295Y-81843332D02*
X116600057Y-81795713D01*
X116600057Y-81795713D02*
X116552438Y-81748094D01*
X116552438Y-81748094D02*
X116504819Y-81652856D01*
X117409580Y-80890951D02*
X117457200Y-80843332D01*
X117457200Y-80843332D02*
X117504819Y-80890951D01*
X117504819Y-80890951D02*
X117457200Y-80938570D01*
X117457200Y-80938570D02*
X117409580Y-80890951D01*
X117409580Y-80890951D02*
X117504819Y-80890951D01*
X117504819Y-79890952D02*
X117504819Y-80462380D01*
X117504819Y-80176666D02*
X116504819Y-80176666D01*
X116504819Y-80176666D02*
X116647676Y-80271904D01*
X116647676Y-80271904D02*
X116742914Y-80367142D01*
X116742914Y-80367142D02*
X116790533Y-80462380D01*
X116838152Y-79033809D02*
X117504819Y-79033809D01*
X116838152Y-79462380D02*
X117361961Y-79462380D01*
X117361961Y-79462380D02*
X117457200Y-79414761D01*
X117457200Y-79414761D02*
X117504819Y-79319523D01*
X117504819Y-79319523D02*
X117504819Y-79176666D01*
X117504819Y-79176666D02*
X117457200Y-79081428D01*
X117457200Y-79081428D02*
X117409580Y-79033809D01*
X116981009Y-78224285D02*
X116981009Y-78557618D01*
X117504819Y-78557618D02*
X116504819Y-78557618D01*
X116504819Y-78557618D02*
X116504819Y-78081428D01*
X120483333Y-80369580D02*
X120435714Y-80417200D01*
X120435714Y-80417200D02*
X120292857Y-80464819D01*
X120292857Y-80464819D02*
X120197619Y-80464819D01*
X120197619Y-80464819D02*
X120054762Y-80417200D01*
X120054762Y-80417200D02*
X119959524Y-80321961D01*
X119959524Y-80321961D02*
X119911905Y-80226723D01*
X119911905Y-80226723D02*
X119864286Y-80036247D01*
X119864286Y-80036247D02*
X119864286Y-79893390D01*
X119864286Y-79893390D02*
X119911905Y-79702914D01*
X119911905Y-79702914D02*
X119959524Y-79607676D01*
X119959524Y-79607676D02*
X120054762Y-79512438D01*
X120054762Y-79512438D02*
X120197619Y-79464819D01*
X120197619Y-79464819D02*
X120292857Y-79464819D01*
X120292857Y-79464819D02*
X120435714Y-79512438D01*
X120435714Y-79512438D02*
X120483333Y-79560057D01*
X121340476Y-79798152D02*
X121340476Y-80464819D01*
X121102381Y-79417200D02*
X120864286Y-80131485D01*
X120864286Y-80131485D02*
X121483333Y-80131485D01*
X117737143Y-70784819D02*
X117832381Y-70784819D01*
X117832381Y-70784819D02*
X117927619Y-70832438D01*
X117927619Y-70832438D02*
X117975238Y-70880057D01*
X117975238Y-70880057D02*
X118022857Y-70975295D01*
X118022857Y-70975295D02*
X118070476Y-71165771D01*
X118070476Y-71165771D02*
X118070476Y-71403866D01*
X118070476Y-71403866D02*
X118022857Y-71594342D01*
X118022857Y-71594342D02*
X117975238Y-71689580D01*
X117975238Y-71689580D02*
X117927619Y-71737200D01*
X117927619Y-71737200D02*
X117832381Y-71784819D01*
X117832381Y-71784819D02*
X117737143Y-71784819D01*
X117737143Y-71784819D02*
X117641905Y-71737200D01*
X117641905Y-71737200D02*
X117594286Y-71689580D01*
X117594286Y-71689580D02*
X117546667Y-71594342D01*
X117546667Y-71594342D02*
X117499048Y-71403866D01*
X117499048Y-71403866D02*
X117499048Y-71165771D01*
X117499048Y-71165771D02*
X117546667Y-70975295D01*
X117546667Y-70975295D02*
X117594286Y-70880057D01*
X117594286Y-70880057D02*
X117641905Y-70832438D01*
X117641905Y-70832438D02*
X117737143Y-70784819D01*
X118499048Y-71689580D02*
X118546667Y-71737200D01*
X118546667Y-71737200D02*
X118499048Y-71784819D01*
X118499048Y-71784819D02*
X118451429Y-71737200D01*
X118451429Y-71737200D02*
X118499048Y-71689580D01*
X118499048Y-71689580D02*
X118499048Y-71784819D01*
X119499047Y-71784819D02*
X118927619Y-71784819D01*
X119213333Y-71784819D02*
X119213333Y-70784819D01*
X119213333Y-70784819D02*
X119118095Y-70927676D01*
X119118095Y-70927676D02*
X119022857Y-71022914D01*
X119022857Y-71022914D02*
X118927619Y-71070533D01*
X120356190Y-71118152D02*
X120356190Y-71784819D01*
X119927619Y-71118152D02*
X119927619Y-71641961D01*
X119927619Y-71641961D02*
X119975238Y-71737200D01*
X119975238Y-71737200D02*
X120070476Y-71784819D01*
X120070476Y-71784819D02*
X120213333Y-71784819D01*
X120213333Y-71784819D02*
X120308571Y-71737200D01*
X120308571Y-71737200D02*
X120356190Y-71689580D01*
X121165714Y-71261009D02*
X120832381Y-71261009D01*
X120832381Y-71784819D02*
X120832381Y-70784819D01*
X120832381Y-70784819D02*
X121308571Y-70784819D01*
X119739580Y-75096666D02*
X119787200Y-75144285D01*
X119787200Y-75144285D02*
X119834819Y-75287142D01*
X119834819Y-75287142D02*
X119834819Y-75382380D01*
X119834819Y-75382380D02*
X119787200Y-75525237D01*
X119787200Y-75525237D02*
X119691961Y-75620475D01*
X119691961Y-75620475D02*
X119596723Y-75668094D01*
X119596723Y-75668094D02*
X119406247Y-75715713D01*
X119406247Y-75715713D02*
X119263390Y-75715713D01*
X119263390Y-75715713D02*
X119072914Y-75668094D01*
X119072914Y-75668094D02*
X118977676Y-75620475D01*
X118977676Y-75620475D02*
X118882438Y-75525237D01*
X118882438Y-75525237D02*
X118834819Y-75382380D01*
X118834819Y-75382380D02*
X118834819Y-75287142D01*
X118834819Y-75287142D02*
X118882438Y-75144285D01*
X118882438Y-75144285D02*
X118930057Y-75096666D01*
X118834819Y-74191904D02*
X118834819Y-74668094D01*
X118834819Y-74668094D02*
X119311009Y-74715713D01*
X119311009Y-74715713D02*
X119263390Y-74668094D01*
X119263390Y-74668094D02*
X119215771Y-74572856D01*
X119215771Y-74572856D02*
X119215771Y-74334761D01*
X119215771Y-74334761D02*
X119263390Y-74239523D01*
X119263390Y-74239523D02*
X119311009Y-74191904D01*
X119311009Y-74191904D02*
X119406247Y-74144285D01*
X119406247Y-74144285D02*
X119644342Y-74144285D01*
X119644342Y-74144285D02*
X119739580Y-74191904D01*
X119739580Y-74191904D02*
X119787200Y-74239523D01*
X119787200Y-74239523D02*
X119834819Y-74334761D01*
X119834819Y-74334761D02*
X119834819Y-74572856D01*
X119834819Y-74572856D02*
X119787200Y-74668094D01*
X119787200Y-74668094D02*
X119739580Y-74715713D01*
X118774819Y-90130238D02*
X118774819Y-90701666D01*
X118774819Y-90415952D02*
X117774819Y-90415952D01*
X117774819Y-90415952D02*
X117917676Y-90511190D01*
X117917676Y-90511190D02*
X118012914Y-90606428D01*
X118012914Y-90606428D02*
X118060533Y-90701666D01*
X118108152Y-89273095D02*
X118774819Y-89273095D01*
X118108152Y-89701666D02*
X118631961Y-89701666D01*
X118631961Y-89701666D02*
X118727200Y-89654047D01*
X118727200Y-89654047D02*
X118774819Y-89558809D01*
X118774819Y-89558809D02*
X118774819Y-89415952D01*
X118774819Y-89415952D02*
X118727200Y-89320714D01*
X118727200Y-89320714D02*
X118679580Y-89273095D01*
X118251009Y-88463571D02*
X118251009Y-88796904D01*
X118774819Y-88796904D02*
X117774819Y-88796904D01*
X117774819Y-88796904D02*
X117774819Y-88320714D01*
X121753333Y-89894580D02*
X121705714Y-89942200D01*
X121705714Y-89942200D02*
X121562857Y-89989819D01*
X121562857Y-89989819D02*
X121467619Y-89989819D01*
X121467619Y-89989819D02*
X121324762Y-89942200D01*
X121324762Y-89942200D02*
X121229524Y-89846961D01*
X121229524Y-89846961D02*
X121181905Y-89751723D01*
X121181905Y-89751723D02*
X121134286Y-89561247D01*
X121134286Y-89561247D02*
X121134286Y-89418390D01*
X121134286Y-89418390D02*
X121181905Y-89227914D01*
X121181905Y-89227914D02*
X121229524Y-89132676D01*
X121229524Y-89132676D02*
X121324762Y-89037438D01*
X121324762Y-89037438D02*
X121467619Y-88989819D01*
X121467619Y-88989819D02*
X121562857Y-88989819D01*
X121562857Y-88989819D02*
X121705714Y-89037438D01*
X121705714Y-89037438D02*
X121753333Y-89085057D01*
X122610476Y-88989819D02*
X122420000Y-88989819D01*
X122420000Y-88989819D02*
X122324762Y-89037438D01*
X122324762Y-89037438D02*
X122277143Y-89085057D01*
X122277143Y-89085057D02*
X122181905Y-89227914D01*
X122181905Y-89227914D02*
X122134286Y-89418390D01*
X122134286Y-89418390D02*
X122134286Y-89799342D01*
X122134286Y-89799342D02*
X122181905Y-89894580D01*
X122181905Y-89894580D02*
X122229524Y-89942200D01*
X122229524Y-89942200D02*
X122324762Y-89989819D01*
X122324762Y-89989819D02*
X122515238Y-89989819D01*
X122515238Y-89989819D02*
X122610476Y-89942200D01*
X122610476Y-89942200D02*
X122658095Y-89894580D01*
X122658095Y-89894580D02*
X122705714Y-89799342D01*
X122705714Y-89799342D02*
X122705714Y-89561247D01*
X122705714Y-89561247D02*
X122658095Y-89466009D01*
X122658095Y-89466009D02*
X122610476Y-89418390D01*
X122610476Y-89418390D02*
X122515238Y-89370771D01*
X122515238Y-89370771D02*
X122324762Y-89370771D01*
X122324762Y-89370771D02*
X122229524Y-89418390D01*
X122229524Y-89418390D02*
X122181905Y-89466009D01*
X122181905Y-89466009D02*
X122134286Y-89561247D01*
X117774819Y-94987856D02*
X117774819Y-94892618D01*
X117774819Y-94892618D02*
X117822438Y-94797380D01*
X117822438Y-94797380D02*
X117870057Y-94749761D01*
X117870057Y-94749761D02*
X117965295Y-94702142D01*
X117965295Y-94702142D02*
X118155771Y-94654523D01*
X118155771Y-94654523D02*
X118393866Y-94654523D01*
X118393866Y-94654523D02*
X118584342Y-94702142D01*
X118584342Y-94702142D02*
X118679580Y-94749761D01*
X118679580Y-94749761D02*
X118727200Y-94797380D01*
X118727200Y-94797380D02*
X118774819Y-94892618D01*
X118774819Y-94892618D02*
X118774819Y-94987856D01*
X118774819Y-94987856D02*
X118727200Y-95083094D01*
X118727200Y-95083094D02*
X118679580Y-95130713D01*
X118679580Y-95130713D02*
X118584342Y-95178332D01*
X118584342Y-95178332D02*
X118393866Y-95225951D01*
X118393866Y-95225951D02*
X118155771Y-95225951D01*
X118155771Y-95225951D02*
X117965295Y-95178332D01*
X117965295Y-95178332D02*
X117870057Y-95130713D01*
X117870057Y-95130713D02*
X117822438Y-95083094D01*
X117822438Y-95083094D02*
X117774819Y-94987856D01*
X118679580Y-94225951D02*
X118727200Y-94178332D01*
X118727200Y-94178332D02*
X118774819Y-94225951D01*
X118774819Y-94225951D02*
X118727200Y-94273570D01*
X118727200Y-94273570D02*
X118679580Y-94225951D01*
X118679580Y-94225951D02*
X118774819Y-94225951D01*
X118774819Y-93225952D02*
X118774819Y-93797380D01*
X118774819Y-93511666D02*
X117774819Y-93511666D01*
X117774819Y-93511666D02*
X117917676Y-93606904D01*
X117917676Y-93606904D02*
X118012914Y-93702142D01*
X118012914Y-93702142D02*
X118060533Y-93797380D01*
X118108152Y-92368809D02*
X118774819Y-92368809D01*
X118108152Y-92797380D02*
X118631961Y-92797380D01*
X118631961Y-92797380D02*
X118727200Y-92749761D01*
X118727200Y-92749761D02*
X118774819Y-92654523D01*
X118774819Y-92654523D02*
X118774819Y-92511666D01*
X118774819Y-92511666D02*
X118727200Y-92416428D01*
X118727200Y-92416428D02*
X118679580Y-92368809D01*
X118251009Y-91559285D02*
X118251009Y-91892618D01*
X118774819Y-91892618D02*
X117774819Y-91892618D01*
X117774819Y-91892618D02*
X117774819Y-91416428D01*
X121753333Y-93704580D02*
X121705714Y-93752200D01*
X121705714Y-93752200D02*
X121562857Y-93799819D01*
X121562857Y-93799819D02*
X121467619Y-93799819D01*
X121467619Y-93799819D02*
X121324762Y-93752200D01*
X121324762Y-93752200D02*
X121229524Y-93656961D01*
X121229524Y-93656961D02*
X121181905Y-93561723D01*
X121181905Y-93561723D02*
X121134286Y-93371247D01*
X121134286Y-93371247D02*
X121134286Y-93228390D01*
X121134286Y-93228390D02*
X121181905Y-93037914D01*
X121181905Y-93037914D02*
X121229524Y-92942676D01*
X121229524Y-92942676D02*
X121324762Y-92847438D01*
X121324762Y-92847438D02*
X121467619Y-92799819D01*
X121467619Y-92799819D02*
X121562857Y-92799819D01*
X121562857Y-92799819D02*
X121705714Y-92847438D01*
X121705714Y-92847438D02*
X121753333Y-92895057D01*
X122086667Y-92799819D02*
X122753333Y-92799819D01*
X122753333Y-92799819D02*
X122324762Y-93799819D01*
X110355237Y-78984819D02*
X109783809Y-78984819D01*
X110069523Y-78984819D02*
X110069523Y-77984819D01*
X110069523Y-77984819D02*
X109974285Y-78127676D01*
X109974285Y-78127676D02*
X109879047Y-78222914D01*
X109879047Y-78222914D02*
X109783809Y-78270533D01*
X110974285Y-77984819D02*
X111069523Y-77984819D01*
X111069523Y-77984819D02*
X111164761Y-78032438D01*
X111164761Y-78032438D02*
X111212380Y-78080057D01*
X111212380Y-78080057D02*
X111259999Y-78175295D01*
X111259999Y-78175295D02*
X111307618Y-78365771D01*
X111307618Y-78365771D02*
X111307618Y-78603866D01*
X111307618Y-78603866D02*
X111259999Y-78794342D01*
X111259999Y-78794342D02*
X111212380Y-78889580D01*
X111212380Y-78889580D02*
X111164761Y-78937200D01*
X111164761Y-78937200D02*
X111069523Y-78984819D01*
X111069523Y-78984819D02*
X110974285Y-78984819D01*
X110974285Y-78984819D02*
X110879047Y-78937200D01*
X110879047Y-78937200D02*
X110831428Y-78889580D01*
X110831428Y-78889580D02*
X110783809Y-78794342D01*
X110783809Y-78794342D02*
X110736190Y-78603866D01*
X110736190Y-78603866D02*
X110736190Y-78365771D01*
X110736190Y-78365771D02*
X110783809Y-78175295D01*
X110783809Y-78175295D02*
X110831428Y-78080057D01*
X110831428Y-78080057D02*
X110879047Y-78032438D01*
X110879047Y-78032438D02*
X110974285Y-77984819D01*
X111926666Y-77984819D02*
X112021904Y-77984819D01*
X112021904Y-77984819D02*
X112117142Y-78032438D01*
X112117142Y-78032438D02*
X112164761Y-78080057D01*
X112164761Y-78080057D02*
X112212380Y-78175295D01*
X112212380Y-78175295D02*
X112259999Y-78365771D01*
X112259999Y-78365771D02*
X112259999Y-78603866D01*
X112259999Y-78603866D02*
X112212380Y-78794342D01*
X112212380Y-78794342D02*
X112164761Y-78889580D01*
X112164761Y-78889580D02*
X112117142Y-78937200D01*
X112117142Y-78937200D02*
X112021904Y-78984819D01*
X112021904Y-78984819D02*
X111926666Y-78984819D01*
X111926666Y-78984819D02*
X111831428Y-78937200D01*
X111831428Y-78937200D02*
X111783809Y-78889580D01*
X111783809Y-78889580D02*
X111736190Y-78794342D01*
X111736190Y-78794342D02*
X111688571Y-78603866D01*
X111688571Y-78603866D02*
X111688571Y-78365771D01*
X111688571Y-78365771D02*
X111736190Y-78175295D01*
X111736190Y-78175295D02*
X111783809Y-78080057D01*
X111783809Y-78080057D02*
X111831428Y-78032438D01*
X111831428Y-78032438D02*
X111926666Y-77984819D01*
X112688571Y-78318152D02*
X112688571Y-79318152D01*
X112688571Y-78365771D02*
X112783809Y-78318152D01*
X112783809Y-78318152D02*
X112974285Y-78318152D01*
X112974285Y-78318152D02*
X113069523Y-78365771D01*
X113069523Y-78365771D02*
X113117142Y-78413390D01*
X113117142Y-78413390D02*
X113164761Y-78508628D01*
X113164761Y-78508628D02*
X113164761Y-78794342D01*
X113164761Y-78794342D02*
X113117142Y-78889580D01*
X113117142Y-78889580D02*
X113069523Y-78937200D01*
X113069523Y-78937200D02*
X112974285Y-78984819D01*
X112974285Y-78984819D02*
X112783809Y-78984819D01*
X112783809Y-78984819D02*
X112688571Y-78937200D01*
X113450476Y-78318152D02*
X113831428Y-78318152D01*
X113593333Y-78984819D02*
X113593333Y-78127676D01*
X113593333Y-78127676D02*
X113640952Y-78032438D01*
X113640952Y-78032438D02*
X113736190Y-77984819D01*
X113736190Y-77984819D02*
X113831428Y-77984819D01*
X112119580Y-75096666D02*
X112167200Y-75144285D01*
X112167200Y-75144285D02*
X112214819Y-75287142D01*
X112214819Y-75287142D02*
X112214819Y-75382380D01*
X112214819Y-75382380D02*
X112167200Y-75525237D01*
X112167200Y-75525237D02*
X112071961Y-75620475D01*
X112071961Y-75620475D02*
X111976723Y-75668094D01*
X111976723Y-75668094D02*
X111786247Y-75715713D01*
X111786247Y-75715713D02*
X111643390Y-75715713D01*
X111643390Y-75715713D02*
X111452914Y-75668094D01*
X111452914Y-75668094D02*
X111357676Y-75620475D01*
X111357676Y-75620475D02*
X111262438Y-75525237D01*
X111262438Y-75525237D02*
X111214819Y-75382380D01*
X111214819Y-75382380D02*
X111214819Y-75287142D01*
X111214819Y-75287142D02*
X111262438Y-75144285D01*
X111262438Y-75144285D02*
X111310057Y-75096666D01*
X111643390Y-74525237D02*
X111595771Y-74620475D01*
X111595771Y-74620475D02*
X111548152Y-74668094D01*
X111548152Y-74668094D02*
X111452914Y-74715713D01*
X111452914Y-74715713D02*
X111405295Y-74715713D01*
X111405295Y-74715713D02*
X111310057Y-74668094D01*
X111310057Y-74668094D02*
X111262438Y-74620475D01*
X111262438Y-74620475D02*
X111214819Y-74525237D01*
X111214819Y-74525237D02*
X111214819Y-74334761D01*
X111214819Y-74334761D02*
X111262438Y-74239523D01*
X111262438Y-74239523D02*
X111310057Y-74191904D01*
X111310057Y-74191904D02*
X111405295Y-74144285D01*
X111405295Y-74144285D02*
X111452914Y-74144285D01*
X111452914Y-74144285D02*
X111548152Y-74191904D01*
X111548152Y-74191904D02*
X111595771Y-74239523D01*
X111595771Y-74239523D02*
X111643390Y-74334761D01*
X111643390Y-74334761D02*
X111643390Y-74525237D01*
X111643390Y-74525237D02*
X111691009Y-74620475D01*
X111691009Y-74620475D02*
X111738628Y-74668094D01*
X111738628Y-74668094D02*
X111833866Y-74715713D01*
X111833866Y-74715713D02*
X112024342Y-74715713D01*
X112024342Y-74715713D02*
X112119580Y-74668094D01*
X112119580Y-74668094D02*
X112167200Y-74620475D01*
X112167200Y-74620475D02*
X112214819Y-74525237D01*
X112214819Y-74525237D02*
X112214819Y-74334761D01*
X112214819Y-74334761D02*
X112167200Y-74239523D01*
X112167200Y-74239523D02*
X112119580Y-74191904D01*
X112119580Y-74191904D02*
X112024342Y-74144285D01*
X112024342Y-74144285D02*
X111833866Y-74144285D01*
X111833866Y-74144285D02*
X111738628Y-74191904D01*
X111738628Y-74191904D02*
X111691009Y-74239523D01*
X111691009Y-74239523D02*
X111643390Y-74334761D01*
X115197143Y-130049819D02*
X115292381Y-130049819D01*
X115292381Y-130049819D02*
X115387619Y-130097438D01*
X115387619Y-130097438D02*
X115435238Y-130145057D01*
X115435238Y-130145057D02*
X115482857Y-130240295D01*
X115482857Y-130240295D02*
X115530476Y-130430771D01*
X115530476Y-130430771D02*
X115530476Y-130668866D01*
X115530476Y-130668866D02*
X115482857Y-130859342D01*
X115482857Y-130859342D02*
X115435238Y-130954580D01*
X115435238Y-130954580D02*
X115387619Y-131002200D01*
X115387619Y-131002200D02*
X115292381Y-131049819D01*
X115292381Y-131049819D02*
X115197143Y-131049819D01*
X115197143Y-131049819D02*
X115101905Y-131002200D01*
X115101905Y-131002200D02*
X115054286Y-130954580D01*
X115054286Y-130954580D02*
X115006667Y-130859342D01*
X115006667Y-130859342D02*
X114959048Y-130668866D01*
X114959048Y-130668866D02*
X114959048Y-130430771D01*
X114959048Y-130430771D02*
X115006667Y-130240295D01*
X115006667Y-130240295D02*
X115054286Y-130145057D01*
X115054286Y-130145057D02*
X115101905Y-130097438D01*
X115101905Y-130097438D02*
X115197143Y-130049819D01*
X115959048Y-130954580D02*
X116006667Y-131002200D01*
X116006667Y-131002200D02*
X115959048Y-131049819D01*
X115959048Y-131049819D02*
X115911429Y-131002200D01*
X115911429Y-131002200D02*
X115959048Y-130954580D01*
X115959048Y-130954580D02*
X115959048Y-131049819D01*
X116959047Y-131049819D02*
X116387619Y-131049819D01*
X116673333Y-131049819D02*
X116673333Y-130049819D01*
X116673333Y-130049819D02*
X116578095Y-130192676D01*
X116578095Y-130192676D02*
X116482857Y-130287914D01*
X116482857Y-130287914D02*
X116387619Y-130335533D01*
X117816190Y-130383152D02*
X117816190Y-131049819D01*
X117387619Y-130383152D02*
X117387619Y-130906961D01*
X117387619Y-130906961D02*
X117435238Y-131002200D01*
X117435238Y-131002200D02*
X117530476Y-131049819D01*
X117530476Y-131049819D02*
X117673333Y-131049819D01*
X117673333Y-131049819D02*
X117768571Y-131002200D01*
X117768571Y-131002200D02*
X117816190Y-130954580D01*
X118625714Y-130526009D02*
X118292381Y-130526009D01*
X118292381Y-131049819D02*
X118292381Y-130049819D01*
X118292381Y-130049819D02*
X118768571Y-130049819D01*
X117199580Y-127161666D02*
X117247200Y-127209285D01*
X117247200Y-127209285D02*
X117294819Y-127352142D01*
X117294819Y-127352142D02*
X117294819Y-127447380D01*
X117294819Y-127447380D02*
X117247200Y-127590237D01*
X117247200Y-127590237D02*
X117151961Y-127685475D01*
X117151961Y-127685475D02*
X117056723Y-127733094D01*
X117056723Y-127733094D02*
X116866247Y-127780713D01*
X116866247Y-127780713D02*
X116723390Y-127780713D01*
X116723390Y-127780713D02*
X116532914Y-127733094D01*
X116532914Y-127733094D02*
X116437676Y-127685475D01*
X116437676Y-127685475D02*
X116342438Y-127590237D01*
X116342438Y-127590237D02*
X116294819Y-127447380D01*
X116294819Y-127447380D02*
X116294819Y-127352142D01*
X116294819Y-127352142D02*
X116342438Y-127209285D01*
X116342438Y-127209285D02*
X116390057Y-127161666D01*
X117294819Y-126685475D02*
X117294819Y-126494999D01*
X117294819Y-126494999D02*
X117247200Y-126399761D01*
X117247200Y-126399761D02*
X117199580Y-126352142D01*
X117199580Y-126352142D02*
X117056723Y-126256904D01*
X117056723Y-126256904D02*
X116866247Y-126209285D01*
X116866247Y-126209285D02*
X116485295Y-126209285D01*
X116485295Y-126209285D02*
X116390057Y-126256904D01*
X116390057Y-126256904D02*
X116342438Y-126304523D01*
X116342438Y-126304523D02*
X116294819Y-126399761D01*
X116294819Y-126399761D02*
X116294819Y-126590237D01*
X116294819Y-126590237D02*
X116342438Y-126685475D01*
X116342438Y-126685475D02*
X116390057Y-126733094D01*
X116390057Y-126733094D02*
X116485295Y-126780713D01*
X116485295Y-126780713D02*
X116723390Y-126780713D01*
X116723390Y-126780713D02*
X116818628Y-126733094D01*
X116818628Y-126733094D02*
X116866247Y-126685475D01*
X116866247Y-126685475D02*
X116913866Y-126590237D01*
X116913866Y-126590237D02*
X116913866Y-126399761D01*
X116913866Y-126399761D02*
X116866247Y-126304523D01*
X116866247Y-126304523D02*
X116818628Y-126256904D01*
X116818628Y-126256904D02*
X116723390Y-126209285D01*
X118354819Y-132675238D02*
X118354819Y-133246666D01*
X118354819Y-132960952D02*
X117354819Y-132960952D01*
X117354819Y-132960952D02*
X117497676Y-133056190D01*
X117497676Y-133056190D02*
X117592914Y-133151428D01*
X117592914Y-133151428D02*
X117640533Y-133246666D01*
X117688152Y-131818095D02*
X118354819Y-131818095D01*
X117688152Y-132246666D02*
X118211961Y-132246666D01*
X118211961Y-132246666D02*
X118307200Y-132199047D01*
X118307200Y-132199047D02*
X118354819Y-132103809D01*
X118354819Y-132103809D02*
X118354819Y-131960952D01*
X118354819Y-131960952D02*
X118307200Y-131865714D01*
X118307200Y-131865714D02*
X118259580Y-131818095D01*
X117831009Y-131008571D02*
X117831009Y-131341904D01*
X118354819Y-131341904D02*
X117354819Y-131341904D01*
X117354819Y-131341904D02*
X117354819Y-130865714D01*
X113657142Y-132439580D02*
X113609523Y-132487200D01*
X113609523Y-132487200D02*
X113466666Y-132534819D01*
X113466666Y-132534819D02*
X113371428Y-132534819D01*
X113371428Y-132534819D02*
X113228571Y-132487200D01*
X113228571Y-132487200D02*
X113133333Y-132391961D01*
X113133333Y-132391961D02*
X113085714Y-132296723D01*
X113085714Y-132296723D02*
X113038095Y-132106247D01*
X113038095Y-132106247D02*
X113038095Y-131963390D01*
X113038095Y-131963390D02*
X113085714Y-131772914D01*
X113085714Y-131772914D02*
X113133333Y-131677676D01*
X113133333Y-131677676D02*
X113228571Y-131582438D01*
X113228571Y-131582438D02*
X113371428Y-131534819D01*
X113371428Y-131534819D02*
X113466666Y-131534819D01*
X113466666Y-131534819D02*
X113609523Y-131582438D01*
X113609523Y-131582438D02*
X113657142Y-131630057D01*
X114609523Y-132534819D02*
X114038095Y-132534819D01*
X114323809Y-132534819D02*
X114323809Y-131534819D01*
X114323809Y-131534819D02*
X114228571Y-131677676D01*
X114228571Y-131677676D02*
X114133333Y-131772914D01*
X114133333Y-131772914D02*
X114038095Y-131820533D01*
X115228571Y-131534819D02*
X115323809Y-131534819D01*
X115323809Y-131534819D02*
X115419047Y-131582438D01*
X115419047Y-131582438D02*
X115466666Y-131630057D01*
X115466666Y-131630057D02*
X115514285Y-131725295D01*
X115514285Y-131725295D02*
X115561904Y-131915771D01*
X115561904Y-131915771D02*
X115561904Y-132153866D01*
X115561904Y-132153866D02*
X115514285Y-132344342D01*
X115514285Y-132344342D02*
X115466666Y-132439580D01*
X115466666Y-132439580D02*
X115419047Y-132487200D01*
X115419047Y-132487200D02*
X115323809Y-132534819D01*
X115323809Y-132534819D02*
X115228571Y-132534819D01*
X115228571Y-132534819D02*
X115133333Y-132487200D01*
X115133333Y-132487200D02*
X115085714Y-132439580D01*
X115085714Y-132439580D02*
X115038095Y-132344342D01*
X115038095Y-132344342D02*
X114990476Y-132153866D01*
X114990476Y-132153866D02*
X114990476Y-131915771D01*
X114990476Y-131915771D02*
X115038095Y-131725295D01*
X115038095Y-131725295D02*
X115085714Y-131630057D01*
X115085714Y-131630057D02*
X115133333Y-131582438D01*
X115133333Y-131582438D02*
X115228571Y-131534819D01*
X111958571Y-131049819D02*
X111387143Y-131049819D01*
X111672857Y-131049819D02*
X111672857Y-130049819D01*
X111672857Y-130049819D02*
X111577619Y-130192676D01*
X111577619Y-130192676D02*
X111482381Y-130287914D01*
X111482381Y-130287914D02*
X111387143Y-130335533D01*
X112577619Y-130049819D02*
X112672857Y-130049819D01*
X112672857Y-130049819D02*
X112768095Y-130097438D01*
X112768095Y-130097438D02*
X112815714Y-130145057D01*
X112815714Y-130145057D02*
X112863333Y-130240295D01*
X112863333Y-130240295D02*
X112910952Y-130430771D01*
X112910952Y-130430771D02*
X112910952Y-130668866D01*
X112910952Y-130668866D02*
X112863333Y-130859342D01*
X112863333Y-130859342D02*
X112815714Y-130954580D01*
X112815714Y-130954580D02*
X112768095Y-131002200D01*
X112768095Y-131002200D02*
X112672857Y-131049819D01*
X112672857Y-131049819D02*
X112577619Y-131049819D01*
X112577619Y-131049819D02*
X112482381Y-131002200D01*
X112482381Y-131002200D02*
X112434762Y-130954580D01*
X112434762Y-130954580D02*
X112387143Y-130859342D01*
X112387143Y-130859342D02*
X112339524Y-130668866D01*
X112339524Y-130668866D02*
X112339524Y-130430771D01*
X112339524Y-130430771D02*
X112387143Y-130240295D01*
X112387143Y-130240295D02*
X112434762Y-130145057D01*
X112434762Y-130145057D02*
X112482381Y-130097438D01*
X112482381Y-130097438D02*
X112577619Y-130049819D01*
X113768095Y-130383152D02*
X113768095Y-131049819D01*
X113339524Y-130383152D02*
X113339524Y-130906961D01*
X113339524Y-130906961D02*
X113387143Y-131002200D01*
X113387143Y-131002200D02*
X113482381Y-131049819D01*
X113482381Y-131049819D02*
X113625238Y-131049819D01*
X113625238Y-131049819D02*
X113720476Y-131002200D01*
X113720476Y-131002200D02*
X113768095Y-130954580D01*
X114577619Y-130526009D02*
X114244286Y-130526009D01*
X114244286Y-131049819D02*
X114244286Y-130049819D01*
X114244286Y-130049819D02*
X114720476Y-130049819D01*
X113389580Y-127637857D02*
X113437200Y-127685476D01*
X113437200Y-127685476D02*
X113484819Y-127828333D01*
X113484819Y-127828333D02*
X113484819Y-127923571D01*
X113484819Y-127923571D02*
X113437200Y-128066428D01*
X113437200Y-128066428D02*
X113341961Y-128161666D01*
X113341961Y-128161666D02*
X113246723Y-128209285D01*
X113246723Y-128209285D02*
X113056247Y-128256904D01*
X113056247Y-128256904D02*
X112913390Y-128256904D01*
X112913390Y-128256904D02*
X112722914Y-128209285D01*
X112722914Y-128209285D02*
X112627676Y-128161666D01*
X112627676Y-128161666D02*
X112532438Y-128066428D01*
X112532438Y-128066428D02*
X112484819Y-127923571D01*
X112484819Y-127923571D02*
X112484819Y-127828333D01*
X112484819Y-127828333D02*
X112532438Y-127685476D01*
X112532438Y-127685476D02*
X112580057Y-127637857D01*
X113484819Y-126685476D02*
X113484819Y-127256904D01*
X113484819Y-126971190D02*
X112484819Y-126971190D01*
X112484819Y-126971190D02*
X112627676Y-127066428D01*
X112627676Y-127066428D02*
X112722914Y-127161666D01*
X112722914Y-127161666D02*
X112770533Y-127256904D01*
X113484819Y-125733095D02*
X113484819Y-126304523D01*
X113484819Y-126018809D02*
X112484819Y-126018809D01*
X112484819Y-126018809D02*
X112627676Y-126114047D01*
X112627676Y-126114047D02*
X112722914Y-126209285D01*
X112722914Y-126209285D02*
X112770533Y-126304523D01*
X112424819Y-97750238D02*
X112424819Y-98321666D01*
X112424819Y-98035952D02*
X111424819Y-98035952D01*
X111424819Y-98035952D02*
X111567676Y-98131190D01*
X111567676Y-98131190D02*
X111662914Y-98226428D01*
X111662914Y-98226428D02*
X111710533Y-98321666D01*
X111758152Y-96893095D02*
X112424819Y-96893095D01*
X111758152Y-97321666D02*
X112281961Y-97321666D01*
X112281961Y-97321666D02*
X112377200Y-97274047D01*
X112377200Y-97274047D02*
X112424819Y-97178809D01*
X112424819Y-97178809D02*
X112424819Y-97035952D01*
X112424819Y-97035952D02*
X112377200Y-96940714D01*
X112377200Y-96940714D02*
X112329580Y-96893095D01*
X111901009Y-96083571D02*
X111901009Y-96416904D01*
X112424819Y-96416904D02*
X111424819Y-96416904D01*
X111424819Y-96416904D02*
X111424819Y-95940714D01*
X114927142Y-97514580D02*
X114879523Y-97562200D01*
X114879523Y-97562200D02*
X114736666Y-97609819D01*
X114736666Y-97609819D02*
X114641428Y-97609819D01*
X114641428Y-97609819D02*
X114498571Y-97562200D01*
X114498571Y-97562200D02*
X114403333Y-97466961D01*
X114403333Y-97466961D02*
X114355714Y-97371723D01*
X114355714Y-97371723D02*
X114308095Y-97181247D01*
X114308095Y-97181247D02*
X114308095Y-97038390D01*
X114308095Y-97038390D02*
X114355714Y-96847914D01*
X114355714Y-96847914D02*
X114403333Y-96752676D01*
X114403333Y-96752676D02*
X114498571Y-96657438D01*
X114498571Y-96657438D02*
X114641428Y-96609819D01*
X114641428Y-96609819D02*
X114736666Y-96609819D01*
X114736666Y-96609819D02*
X114879523Y-96657438D01*
X114879523Y-96657438D02*
X114927142Y-96705057D01*
X115879523Y-97609819D02*
X115308095Y-97609819D01*
X115593809Y-97609819D02*
X115593809Y-96609819D01*
X115593809Y-96609819D02*
X115498571Y-96752676D01*
X115498571Y-96752676D02*
X115403333Y-96847914D01*
X115403333Y-96847914D02*
X115308095Y-96895533D01*
X116260476Y-96705057D02*
X116308095Y-96657438D01*
X116308095Y-96657438D02*
X116403333Y-96609819D01*
X116403333Y-96609819D02*
X116641428Y-96609819D01*
X116641428Y-96609819D02*
X116736666Y-96657438D01*
X116736666Y-96657438D02*
X116784285Y-96705057D01*
X116784285Y-96705057D02*
X116831904Y-96800295D01*
X116831904Y-96800295D02*
X116831904Y-96895533D01*
X116831904Y-96895533D02*
X116784285Y-97038390D01*
X116784285Y-97038390D02*
X116212857Y-97609819D01*
X116212857Y-97609819D02*
X116831904Y-97609819D01*
X120054761Y-131049819D02*
X119483333Y-131049819D01*
X119769047Y-131049819D02*
X119769047Y-130049819D01*
X119769047Y-130049819D02*
X119673809Y-130192676D01*
X119673809Y-130192676D02*
X119578571Y-130287914D01*
X119578571Y-130287914D02*
X119483333Y-130335533D01*
X120911904Y-130383152D02*
X120911904Y-131049819D01*
X120483333Y-130383152D02*
X120483333Y-130906961D01*
X120483333Y-130906961D02*
X120530952Y-131002200D01*
X120530952Y-131002200D02*
X120626190Y-131049819D01*
X120626190Y-131049819D02*
X120769047Y-131049819D01*
X120769047Y-131049819D02*
X120864285Y-131002200D01*
X120864285Y-131002200D02*
X120911904Y-130954580D01*
X121721428Y-130526009D02*
X121388095Y-130526009D01*
X121388095Y-131049819D02*
X121388095Y-130049819D01*
X121388095Y-130049819D02*
X121864285Y-130049819D01*
X121009580Y-127637857D02*
X121057200Y-127685476D01*
X121057200Y-127685476D02*
X121104819Y-127828333D01*
X121104819Y-127828333D02*
X121104819Y-127923571D01*
X121104819Y-127923571D02*
X121057200Y-128066428D01*
X121057200Y-128066428D02*
X120961961Y-128161666D01*
X120961961Y-128161666D02*
X120866723Y-128209285D01*
X120866723Y-128209285D02*
X120676247Y-128256904D01*
X120676247Y-128256904D02*
X120533390Y-128256904D01*
X120533390Y-128256904D02*
X120342914Y-128209285D01*
X120342914Y-128209285D02*
X120247676Y-128161666D01*
X120247676Y-128161666D02*
X120152438Y-128066428D01*
X120152438Y-128066428D02*
X120104819Y-127923571D01*
X120104819Y-127923571D02*
X120104819Y-127828333D01*
X120104819Y-127828333D02*
X120152438Y-127685476D01*
X120152438Y-127685476D02*
X120200057Y-127637857D01*
X121104819Y-126685476D02*
X121104819Y-127256904D01*
X121104819Y-126971190D02*
X120104819Y-126971190D01*
X120104819Y-126971190D02*
X120247676Y-127066428D01*
X120247676Y-127066428D02*
X120342914Y-127161666D01*
X120342914Y-127161666D02*
X120390533Y-127256904D01*
X120104819Y-126352142D02*
X120104819Y-125733095D01*
X120104819Y-125733095D02*
X120485771Y-126066428D01*
X120485771Y-126066428D02*
X120485771Y-125923571D01*
X120485771Y-125923571D02*
X120533390Y-125828333D01*
X120533390Y-125828333D02*
X120581009Y-125780714D01*
X120581009Y-125780714D02*
X120676247Y-125733095D01*
X120676247Y-125733095D02*
X120914342Y-125733095D01*
X120914342Y-125733095D02*
X121009580Y-125780714D01*
X121009580Y-125780714D02*
X121057200Y-125828333D01*
X121057200Y-125828333D02*
X121104819Y-125923571D01*
X121104819Y-125923571D02*
X121104819Y-126209285D01*
X121104819Y-126209285D02*
X121057200Y-126304523D01*
X121057200Y-126304523D02*
X121009580Y-126352142D01*
X111424819Y-94987856D02*
X111424819Y-94892618D01*
X111424819Y-94892618D02*
X111472438Y-94797380D01*
X111472438Y-94797380D02*
X111520057Y-94749761D01*
X111520057Y-94749761D02*
X111615295Y-94702142D01*
X111615295Y-94702142D02*
X111805771Y-94654523D01*
X111805771Y-94654523D02*
X112043866Y-94654523D01*
X112043866Y-94654523D02*
X112234342Y-94702142D01*
X112234342Y-94702142D02*
X112329580Y-94749761D01*
X112329580Y-94749761D02*
X112377200Y-94797380D01*
X112377200Y-94797380D02*
X112424819Y-94892618D01*
X112424819Y-94892618D02*
X112424819Y-94987856D01*
X112424819Y-94987856D02*
X112377200Y-95083094D01*
X112377200Y-95083094D02*
X112329580Y-95130713D01*
X112329580Y-95130713D02*
X112234342Y-95178332D01*
X112234342Y-95178332D02*
X112043866Y-95225951D01*
X112043866Y-95225951D02*
X111805771Y-95225951D01*
X111805771Y-95225951D02*
X111615295Y-95178332D01*
X111615295Y-95178332D02*
X111520057Y-95130713D01*
X111520057Y-95130713D02*
X111472438Y-95083094D01*
X111472438Y-95083094D02*
X111424819Y-94987856D01*
X112329580Y-94225951D02*
X112377200Y-94178332D01*
X112377200Y-94178332D02*
X112424819Y-94225951D01*
X112424819Y-94225951D02*
X112377200Y-94273570D01*
X112377200Y-94273570D02*
X112329580Y-94225951D01*
X112329580Y-94225951D02*
X112424819Y-94225951D01*
X112424819Y-93225952D02*
X112424819Y-93797380D01*
X112424819Y-93511666D02*
X111424819Y-93511666D01*
X111424819Y-93511666D02*
X111567676Y-93606904D01*
X111567676Y-93606904D02*
X111662914Y-93702142D01*
X111662914Y-93702142D02*
X111710533Y-93797380D01*
X111758152Y-92368809D02*
X112424819Y-92368809D01*
X111758152Y-92797380D02*
X112281961Y-92797380D01*
X112281961Y-92797380D02*
X112377200Y-92749761D01*
X112377200Y-92749761D02*
X112424819Y-92654523D01*
X112424819Y-92654523D02*
X112424819Y-92511666D01*
X112424819Y-92511666D02*
X112377200Y-92416428D01*
X112377200Y-92416428D02*
X112329580Y-92368809D01*
X111901009Y-91559285D02*
X111901009Y-91892618D01*
X112424819Y-91892618D02*
X111424819Y-91892618D01*
X111424819Y-91892618D02*
X111424819Y-91416428D01*
X114927142Y-93704580D02*
X114879523Y-93752200D01*
X114879523Y-93752200D02*
X114736666Y-93799819D01*
X114736666Y-93799819D02*
X114641428Y-93799819D01*
X114641428Y-93799819D02*
X114498571Y-93752200D01*
X114498571Y-93752200D02*
X114403333Y-93656961D01*
X114403333Y-93656961D02*
X114355714Y-93561723D01*
X114355714Y-93561723D02*
X114308095Y-93371247D01*
X114308095Y-93371247D02*
X114308095Y-93228390D01*
X114308095Y-93228390D02*
X114355714Y-93037914D01*
X114355714Y-93037914D02*
X114403333Y-92942676D01*
X114403333Y-92942676D02*
X114498571Y-92847438D01*
X114498571Y-92847438D02*
X114641428Y-92799819D01*
X114641428Y-92799819D02*
X114736666Y-92799819D01*
X114736666Y-92799819D02*
X114879523Y-92847438D01*
X114879523Y-92847438D02*
X114927142Y-92895057D01*
X115879523Y-93799819D02*
X115308095Y-93799819D01*
X115593809Y-93799819D02*
X115593809Y-92799819D01*
X115593809Y-92799819D02*
X115498571Y-92942676D01*
X115498571Y-92942676D02*
X115403333Y-93037914D01*
X115403333Y-93037914D02*
X115308095Y-93085533D01*
X116736666Y-93133152D02*
X116736666Y-93799819D01*
X116498571Y-92752200D02*
X116260476Y-93466485D01*
X116260476Y-93466485D02*
X116879523Y-93466485D01*
X122817143Y-130145057D02*
X122864762Y-130097438D01*
X122864762Y-130097438D02*
X122960000Y-130049819D01*
X122960000Y-130049819D02*
X123198095Y-130049819D01*
X123198095Y-130049819D02*
X123293333Y-130097438D01*
X123293333Y-130097438D02*
X123340952Y-130145057D01*
X123340952Y-130145057D02*
X123388571Y-130240295D01*
X123388571Y-130240295D02*
X123388571Y-130335533D01*
X123388571Y-130335533D02*
X123340952Y-130478390D01*
X123340952Y-130478390D02*
X122769524Y-131049819D01*
X122769524Y-131049819D02*
X123388571Y-131049819D01*
X123769524Y-130145057D02*
X123817143Y-130097438D01*
X123817143Y-130097438D02*
X123912381Y-130049819D01*
X123912381Y-130049819D02*
X124150476Y-130049819D01*
X124150476Y-130049819D02*
X124245714Y-130097438D01*
X124245714Y-130097438D02*
X124293333Y-130145057D01*
X124293333Y-130145057D02*
X124340952Y-130240295D01*
X124340952Y-130240295D02*
X124340952Y-130335533D01*
X124340952Y-130335533D02*
X124293333Y-130478390D01*
X124293333Y-130478390D02*
X123721905Y-131049819D01*
X123721905Y-131049819D02*
X124340952Y-131049819D01*
X125198095Y-130383152D02*
X125198095Y-131049819D01*
X124769524Y-130383152D02*
X124769524Y-130906961D01*
X124769524Y-130906961D02*
X124817143Y-131002200D01*
X124817143Y-131002200D02*
X124912381Y-131049819D01*
X124912381Y-131049819D02*
X125055238Y-131049819D01*
X125055238Y-131049819D02*
X125150476Y-131002200D01*
X125150476Y-131002200D02*
X125198095Y-130954580D01*
X126007619Y-130526009D02*
X125674286Y-130526009D01*
X125674286Y-131049819D02*
X125674286Y-130049819D01*
X125674286Y-130049819D02*
X126150476Y-130049819D01*
X124819580Y-127637857D02*
X124867200Y-127685476D01*
X124867200Y-127685476D02*
X124914819Y-127828333D01*
X124914819Y-127828333D02*
X124914819Y-127923571D01*
X124914819Y-127923571D02*
X124867200Y-128066428D01*
X124867200Y-128066428D02*
X124771961Y-128161666D01*
X124771961Y-128161666D02*
X124676723Y-128209285D01*
X124676723Y-128209285D02*
X124486247Y-128256904D01*
X124486247Y-128256904D02*
X124343390Y-128256904D01*
X124343390Y-128256904D02*
X124152914Y-128209285D01*
X124152914Y-128209285D02*
X124057676Y-128161666D01*
X124057676Y-128161666D02*
X123962438Y-128066428D01*
X123962438Y-128066428D02*
X123914819Y-127923571D01*
X123914819Y-127923571D02*
X123914819Y-127828333D01*
X123914819Y-127828333D02*
X123962438Y-127685476D01*
X123962438Y-127685476D02*
X124010057Y-127637857D01*
X124914819Y-126685476D02*
X124914819Y-127256904D01*
X124914819Y-126971190D02*
X123914819Y-126971190D01*
X123914819Y-126971190D02*
X124057676Y-127066428D01*
X124057676Y-127066428D02*
X124152914Y-127161666D01*
X124152914Y-127161666D02*
X124200533Y-127256904D01*
X123914819Y-125780714D02*
X123914819Y-126256904D01*
X123914819Y-126256904D02*
X124391009Y-126304523D01*
X124391009Y-126304523D02*
X124343390Y-126256904D01*
X124343390Y-126256904D02*
X124295771Y-126161666D01*
X124295771Y-126161666D02*
X124295771Y-125923571D01*
X124295771Y-125923571D02*
X124343390Y-125828333D01*
X124343390Y-125828333D02*
X124391009Y-125780714D01*
X124391009Y-125780714D02*
X124486247Y-125733095D01*
X124486247Y-125733095D02*
X124724342Y-125733095D01*
X124724342Y-125733095D02*
X124819580Y-125780714D01*
X124819580Y-125780714D02*
X124867200Y-125828333D01*
X124867200Y-125828333D02*
X124914819Y-125923571D01*
X124914819Y-125923571D02*
X124914819Y-126161666D01*
X124914819Y-126161666D02*
X124867200Y-126256904D01*
X124867200Y-126256904D02*
X124819580Y-126304523D01*
X127674761Y-131049819D02*
X127103333Y-131049819D01*
X127389047Y-131049819D02*
X127389047Y-130049819D01*
X127389047Y-130049819D02*
X127293809Y-130192676D01*
X127293809Y-130192676D02*
X127198571Y-130287914D01*
X127198571Y-130287914D02*
X127103333Y-130335533D01*
X128531904Y-130383152D02*
X128531904Y-131049819D01*
X128103333Y-130383152D02*
X128103333Y-130906961D01*
X128103333Y-130906961D02*
X128150952Y-131002200D01*
X128150952Y-131002200D02*
X128246190Y-131049819D01*
X128246190Y-131049819D02*
X128389047Y-131049819D01*
X128389047Y-131049819D02*
X128484285Y-131002200D01*
X128484285Y-131002200D02*
X128531904Y-130954580D01*
X129341428Y-130526009D02*
X129008095Y-130526009D01*
X129008095Y-131049819D02*
X129008095Y-130049819D01*
X129008095Y-130049819D02*
X129484285Y-130049819D01*
X128629580Y-127637857D02*
X128677200Y-127685476D01*
X128677200Y-127685476D02*
X128724819Y-127828333D01*
X128724819Y-127828333D02*
X128724819Y-127923571D01*
X128724819Y-127923571D02*
X128677200Y-128066428D01*
X128677200Y-128066428D02*
X128581961Y-128161666D01*
X128581961Y-128161666D02*
X128486723Y-128209285D01*
X128486723Y-128209285D02*
X128296247Y-128256904D01*
X128296247Y-128256904D02*
X128153390Y-128256904D01*
X128153390Y-128256904D02*
X127962914Y-128209285D01*
X127962914Y-128209285D02*
X127867676Y-128161666D01*
X127867676Y-128161666D02*
X127772438Y-128066428D01*
X127772438Y-128066428D02*
X127724819Y-127923571D01*
X127724819Y-127923571D02*
X127724819Y-127828333D01*
X127724819Y-127828333D02*
X127772438Y-127685476D01*
X127772438Y-127685476D02*
X127820057Y-127637857D01*
X128724819Y-126685476D02*
X128724819Y-127256904D01*
X128724819Y-126971190D02*
X127724819Y-126971190D01*
X127724819Y-126971190D02*
X127867676Y-127066428D01*
X127867676Y-127066428D02*
X127962914Y-127161666D01*
X127962914Y-127161666D02*
X128010533Y-127256904D01*
X127724819Y-125828333D02*
X127724819Y-126018809D01*
X127724819Y-126018809D02*
X127772438Y-126114047D01*
X127772438Y-126114047D02*
X127820057Y-126161666D01*
X127820057Y-126161666D02*
X127962914Y-126256904D01*
X127962914Y-126256904D02*
X128153390Y-126304523D01*
X128153390Y-126304523D02*
X128534342Y-126304523D01*
X128534342Y-126304523D02*
X128629580Y-126256904D01*
X128629580Y-126256904D02*
X128677200Y-126209285D01*
X128677200Y-126209285D02*
X128724819Y-126114047D01*
X128724819Y-126114047D02*
X128724819Y-125923571D01*
X128724819Y-125923571D02*
X128677200Y-125828333D01*
X128677200Y-125828333D02*
X128629580Y-125780714D01*
X128629580Y-125780714D02*
X128534342Y-125733095D01*
X128534342Y-125733095D02*
X128296247Y-125733095D01*
X128296247Y-125733095D02*
X128201009Y-125780714D01*
X128201009Y-125780714D02*
X128153390Y-125828333D01*
X128153390Y-125828333D02*
X128105771Y-125923571D01*
X128105771Y-125923571D02*
X128105771Y-126114047D01*
X128105771Y-126114047D02*
X128153390Y-126209285D01*
X128153390Y-126209285D02*
X128201009Y-126256904D01*
X128201009Y-126256904D02*
X128296247Y-126304523D01*
X117774819Y-103250238D02*
X118489104Y-103250238D01*
X118489104Y-103250238D02*
X118631961Y-103297857D01*
X118631961Y-103297857D02*
X118727200Y-103393095D01*
X118727200Y-103393095D02*
X118774819Y-103535952D01*
X118774819Y-103535952D02*
X118774819Y-103631190D01*
X118108152Y-102345476D02*
X118774819Y-102345476D01*
X118108152Y-102774047D02*
X118631961Y-102774047D01*
X118631961Y-102774047D02*
X118727200Y-102726428D01*
X118727200Y-102726428D02*
X118774819Y-102631190D01*
X118774819Y-102631190D02*
X118774819Y-102488333D01*
X118774819Y-102488333D02*
X118727200Y-102393095D01*
X118727200Y-102393095D02*
X118679580Y-102345476D01*
X118774819Y-101869285D02*
X118108152Y-101869285D01*
X118203390Y-101869285D02*
X118155771Y-101821666D01*
X118155771Y-101821666D02*
X118108152Y-101726428D01*
X118108152Y-101726428D02*
X118108152Y-101583571D01*
X118108152Y-101583571D02*
X118155771Y-101488333D01*
X118155771Y-101488333D02*
X118251009Y-101440714D01*
X118251009Y-101440714D02*
X118774819Y-101440714D01*
X118251009Y-101440714D02*
X118155771Y-101393095D01*
X118155771Y-101393095D02*
X118108152Y-101297857D01*
X118108152Y-101297857D02*
X118108152Y-101155000D01*
X118108152Y-101155000D02*
X118155771Y-101059761D01*
X118155771Y-101059761D02*
X118251009Y-101012142D01*
X118251009Y-101012142D02*
X118774819Y-101012142D01*
X118108152Y-100535952D02*
X119108152Y-100535952D01*
X118155771Y-100535952D02*
X118108152Y-100440714D01*
X118108152Y-100440714D02*
X118108152Y-100250238D01*
X118108152Y-100250238D02*
X118155771Y-100155000D01*
X118155771Y-100155000D02*
X118203390Y-100107381D01*
X118203390Y-100107381D02*
X118298628Y-100059762D01*
X118298628Y-100059762D02*
X118584342Y-100059762D01*
X118584342Y-100059762D02*
X118679580Y-100107381D01*
X118679580Y-100107381D02*
X118727200Y-100155000D01*
X118727200Y-100155000D02*
X118774819Y-100250238D01*
X118774819Y-100250238D02*
X118774819Y-100440714D01*
X118774819Y-100440714D02*
X118727200Y-100535952D01*
X118727200Y-99250238D02*
X118774819Y-99345476D01*
X118774819Y-99345476D02*
X118774819Y-99535952D01*
X118774819Y-99535952D02*
X118727200Y-99631190D01*
X118727200Y-99631190D02*
X118631961Y-99678809D01*
X118631961Y-99678809D02*
X118251009Y-99678809D01*
X118251009Y-99678809D02*
X118155771Y-99631190D01*
X118155771Y-99631190D02*
X118108152Y-99535952D01*
X118108152Y-99535952D02*
X118108152Y-99345476D01*
X118108152Y-99345476D02*
X118155771Y-99250238D01*
X118155771Y-99250238D02*
X118251009Y-99202619D01*
X118251009Y-99202619D02*
X118346247Y-99202619D01*
X118346247Y-99202619D02*
X118441485Y-99678809D01*
X118774819Y-98774047D02*
X118108152Y-98774047D01*
X118298628Y-98774047D02*
X118203390Y-98726428D01*
X118203390Y-98726428D02*
X118155771Y-98678809D01*
X118155771Y-98678809D02*
X118108152Y-98583571D01*
X118108152Y-98583571D02*
X118108152Y-98488333D01*
X118870057Y-98393095D02*
X118870057Y-97631190D01*
X118774819Y-97393094D02*
X117774819Y-97393094D01*
X117774819Y-97393094D02*
X118774819Y-96821666D01*
X118774819Y-96821666D02*
X117774819Y-96821666D01*
X117774819Y-96154999D02*
X117774819Y-95964523D01*
X117774819Y-95964523D02*
X117822438Y-95869285D01*
X117822438Y-95869285D02*
X117917676Y-95774047D01*
X117917676Y-95774047D02*
X118108152Y-95726428D01*
X118108152Y-95726428D02*
X118441485Y-95726428D01*
X118441485Y-95726428D02*
X118631961Y-95774047D01*
X118631961Y-95774047D02*
X118727200Y-95869285D01*
X118727200Y-95869285D02*
X118774819Y-95964523D01*
X118774819Y-95964523D02*
X118774819Y-96154999D01*
X118774819Y-96154999D02*
X118727200Y-96250237D01*
X118727200Y-96250237D02*
X118631961Y-96345475D01*
X118631961Y-96345475D02*
X118441485Y-96393094D01*
X118441485Y-96393094D02*
X118108152Y-96393094D01*
X118108152Y-96393094D02*
X117917676Y-96345475D01*
X117917676Y-96345475D02*
X117822438Y-96250237D01*
X117822438Y-96250237D02*
X117774819Y-96154999D01*
X118870057Y-95535952D02*
X118870057Y-94774047D01*
X118727200Y-94583570D02*
X118774819Y-94440713D01*
X118774819Y-94440713D02*
X118774819Y-94202618D01*
X118774819Y-94202618D02*
X118727200Y-94107380D01*
X118727200Y-94107380D02*
X118679580Y-94059761D01*
X118679580Y-94059761D02*
X118584342Y-94012142D01*
X118584342Y-94012142D02*
X118489104Y-94012142D01*
X118489104Y-94012142D02*
X118393866Y-94059761D01*
X118393866Y-94059761D02*
X118346247Y-94107380D01*
X118346247Y-94107380D02*
X118298628Y-94202618D01*
X118298628Y-94202618D02*
X118251009Y-94393094D01*
X118251009Y-94393094D02*
X118203390Y-94488332D01*
X118203390Y-94488332D02*
X118155771Y-94535951D01*
X118155771Y-94535951D02*
X118060533Y-94583570D01*
X118060533Y-94583570D02*
X117965295Y-94583570D01*
X117965295Y-94583570D02*
X117870057Y-94535951D01*
X117870057Y-94535951D02*
X117822438Y-94488332D01*
X117822438Y-94488332D02*
X117774819Y-94393094D01*
X117774819Y-94393094D02*
X117774819Y-94154999D01*
X117774819Y-94154999D02*
X117822438Y-94012142D01*
X118774819Y-93583570D02*
X118108152Y-93583570D01*
X118203390Y-93583570D02*
X118155771Y-93535951D01*
X118155771Y-93535951D02*
X118108152Y-93440713D01*
X118108152Y-93440713D02*
X118108152Y-93297856D01*
X118108152Y-93297856D02*
X118155771Y-93202618D01*
X118155771Y-93202618D02*
X118251009Y-93154999D01*
X118251009Y-93154999D02*
X118774819Y-93154999D01*
X118251009Y-93154999D02*
X118155771Y-93107380D01*
X118155771Y-93107380D02*
X118108152Y-93012142D01*
X118108152Y-93012142D02*
X118108152Y-92869285D01*
X118108152Y-92869285D02*
X118155771Y-92774046D01*
X118155771Y-92774046D02*
X118251009Y-92726427D01*
X118251009Y-92726427D02*
X118774819Y-92726427D01*
X118774819Y-91821666D02*
X118251009Y-91821666D01*
X118251009Y-91821666D02*
X118155771Y-91869285D01*
X118155771Y-91869285D02*
X118108152Y-91964523D01*
X118108152Y-91964523D02*
X118108152Y-92154999D01*
X118108152Y-92154999D02*
X118155771Y-92250237D01*
X118727200Y-91821666D02*
X118774819Y-91916904D01*
X118774819Y-91916904D02*
X118774819Y-92154999D01*
X118774819Y-92154999D02*
X118727200Y-92250237D01*
X118727200Y-92250237D02*
X118631961Y-92297856D01*
X118631961Y-92297856D02*
X118536723Y-92297856D01*
X118536723Y-92297856D02*
X118441485Y-92250237D01*
X118441485Y-92250237D02*
X118393866Y-92154999D01*
X118393866Y-92154999D02*
X118393866Y-91916904D01*
X118393866Y-91916904D02*
X118346247Y-91821666D01*
X118774819Y-91202618D02*
X118727200Y-91297856D01*
X118727200Y-91297856D02*
X118631961Y-91345475D01*
X118631961Y-91345475D02*
X117774819Y-91345475D01*
X118774819Y-90678808D02*
X118727200Y-90774046D01*
X118727200Y-90774046D02*
X118631961Y-90821665D01*
X118631961Y-90821665D02*
X117774819Y-90821665D01*
X119991428Y-97514580D02*
X119943809Y-97562200D01*
X119943809Y-97562200D02*
X119800952Y-97609819D01*
X119800952Y-97609819D02*
X119705714Y-97609819D01*
X119705714Y-97609819D02*
X119562857Y-97562200D01*
X119562857Y-97562200D02*
X119467619Y-97466961D01*
X119467619Y-97466961D02*
X119420000Y-97371723D01*
X119420000Y-97371723D02*
X119372381Y-97181247D01*
X119372381Y-97181247D02*
X119372381Y-97038390D01*
X119372381Y-97038390D02*
X119420000Y-96847914D01*
X119420000Y-96847914D02*
X119467619Y-96752676D01*
X119467619Y-96752676D02*
X119562857Y-96657438D01*
X119562857Y-96657438D02*
X119705714Y-96609819D01*
X119705714Y-96609819D02*
X119800952Y-96609819D01*
X119800952Y-96609819D02*
X119943809Y-96657438D01*
X119943809Y-96657438D02*
X119991428Y-96705057D01*
X120896190Y-97609819D02*
X120420000Y-97609819D01*
X120420000Y-97609819D02*
X120420000Y-96609819D01*
X121229524Y-97609819D02*
X121229524Y-96609819D01*
X121800952Y-97609819D02*
X121372381Y-97038390D01*
X121800952Y-96609819D02*
X121229524Y-97181247D01*
X122181905Y-97562200D02*
X122324762Y-97609819D01*
X122324762Y-97609819D02*
X122562857Y-97609819D01*
X122562857Y-97609819D02*
X122658095Y-97562200D01*
X122658095Y-97562200D02*
X122705714Y-97514580D01*
X122705714Y-97514580D02*
X122753333Y-97419342D01*
X122753333Y-97419342D02*
X122753333Y-97324104D01*
X122753333Y-97324104D02*
X122705714Y-97228866D01*
X122705714Y-97228866D02*
X122658095Y-97181247D01*
X122658095Y-97181247D02*
X122562857Y-97133628D01*
X122562857Y-97133628D02*
X122372381Y-97086009D01*
X122372381Y-97086009D02*
X122277143Y-97038390D01*
X122277143Y-97038390D02*
X122229524Y-96990771D01*
X122229524Y-96990771D02*
X122181905Y-96895533D01*
X122181905Y-96895533D02*
X122181905Y-96800295D01*
X122181905Y-96800295D02*
X122229524Y-96705057D01*
X122229524Y-96705057D02*
X122277143Y-96657438D01*
X122277143Y-96657438D02*
X122372381Y-96609819D01*
X122372381Y-96609819D02*
X122610476Y-96609819D01*
X122610476Y-96609819D02*
X122753333Y-96657438D01*
X123181905Y-97086009D02*
X123515238Y-97086009D01*
X123658095Y-97609819D02*
X123181905Y-97609819D01*
X123181905Y-97609819D02*
X123181905Y-96609819D01*
X123181905Y-96609819D02*
X123658095Y-96609819D01*
X124562857Y-97609819D02*
X124086667Y-97609819D01*
X124086667Y-97609819D02*
X124086667Y-96609819D01*
X123444761Y-88144819D02*
X123444761Y-88859104D01*
X123444761Y-88859104D02*
X123397142Y-89001961D01*
X123397142Y-89001961D02*
X123301904Y-89097200D01*
X123301904Y-89097200D02*
X123159047Y-89144819D01*
X123159047Y-89144819D02*
X123063809Y-89144819D01*
X124349523Y-88478152D02*
X124349523Y-89144819D01*
X123920952Y-88478152D02*
X123920952Y-89001961D01*
X123920952Y-89001961D02*
X123968571Y-89097200D01*
X123968571Y-89097200D02*
X124063809Y-89144819D01*
X124063809Y-89144819D02*
X124206666Y-89144819D01*
X124206666Y-89144819D02*
X124301904Y-89097200D01*
X124301904Y-89097200D02*
X124349523Y-89049580D01*
X124825714Y-89144819D02*
X124825714Y-88478152D01*
X124825714Y-88573390D02*
X124873333Y-88525771D01*
X124873333Y-88525771D02*
X124968571Y-88478152D01*
X124968571Y-88478152D02*
X125111428Y-88478152D01*
X125111428Y-88478152D02*
X125206666Y-88525771D01*
X125206666Y-88525771D02*
X125254285Y-88621009D01*
X125254285Y-88621009D02*
X125254285Y-89144819D01*
X125254285Y-88621009D02*
X125301904Y-88525771D01*
X125301904Y-88525771D02*
X125397142Y-88478152D01*
X125397142Y-88478152D02*
X125539999Y-88478152D01*
X125539999Y-88478152D02*
X125635238Y-88525771D01*
X125635238Y-88525771D02*
X125682857Y-88621009D01*
X125682857Y-88621009D02*
X125682857Y-89144819D01*
X126159047Y-88478152D02*
X126159047Y-89478152D01*
X126159047Y-88525771D02*
X126254285Y-88478152D01*
X126254285Y-88478152D02*
X126444761Y-88478152D01*
X126444761Y-88478152D02*
X126539999Y-88525771D01*
X126539999Y-88525771D02*
X126587618Y-88573390D01*
X126587618Y-88573390D02*
X126635237Y-88668628D01*
X126635237Y-88668628D02*
X126635237Y-88954342D01*
X126635237Y-88954342D02*
X126587618Y-89049580D01*
X126587618Y-89049580D02*
X126539999Y-89097200D01*
X126539999Y-89097200D02*
X126444761Y-89144819D01*
X126444761Y-89144819D02*
X126254285Y-89144819D01*
X126254285Y-89144819D02*
X126159047Y-89097200D01*
X127444761Y-89097200D02*
X127349523Y-89144819D01*
X127349523Y-89144819D02*
X127159047Y-89144819D01*
X127159047Y-89144819D02*
X127063809Y-89097200D01*
X127063809Y-89097200D02*
X127016190Y-89001961D01*
X127016190Y-89001961D02*
X127016190Y-88621009D01*
X127016190Y-88621009D02*
X127063809Y-88525771D01*
X127063809Y-88525771D02*
X127159047Y-88478152D01*
X127159047Y-88478152D02*
X127349523Y-88478152D01*
X127349523Y-88478152D02*
X127444761Y-88525771D01*
X127444761Y-88525771D02*
X127492380Y-88621009D01*
X127492380Y-88621009D02*
X127492380Y-88716247D01*
X127492380Y-88716247D02*
X127016190Y-88811485D01*
X127920952Y-89144819D02*
X127920952Y-88478152D01*
X127920952Y-88668628D02*
X127968571Y-88573390D01*
X127968571Y-88573390D02*
X128016190Y-88525771D01*
X128016190Y-88525771D02*
X128111428Y-88478152D01*
X128111428Y-88478152D02*
X128206666Y-88478152D01*
X128301905Y-89240057D02*
X129063809Y-89240057D01*
X129301905Y-89144819D02*
X129301905Y-88144819D01*
X129301905Y-88144819D02*
X129873333Y-89144819D01*
X129873333Y-89144819D02*
X129873333Y-88144819D01*
X130540000Y-88144819D02*
X130730476Y-88144819D01*
X130730476Y-88144819D02*
X130825714Y-88192438D01*
X130825714Y-88192438D02*
X130920952Y-88287676D01*
X130920952Y-88287676D02*
X130968571Y-88478152D01*
X130968571Y-88478152D02*
X130968571Y-88811485D01*
X130968571Y-88811485D02*
X130920952Y-89001961D01*
X130920952Y-89001961D02*
X130825714Y-89097200D01*
X130825714Y-89097200D02*
X130730476Y-89144819D01*
X130730476Y-89144819D02*
X130540000Y-89144819D01*
X130540000Y-89144819D02*
X130444762Y-89097200D01*
X130444762Y-89097200D02*
X130349524Y-89001961D01*
X130349524Y-89001961D02*
X130301905Y-88811485D01*
X130301905Y-88811485D02*
X130301905Y-88478152D01*
X130301905Y-88478152D02*
X130349524Y-88287676D01*
X130349524Y-88287676D02*
X130444762Y-88192438D01*
X130444762Y-88192438D02*
X130540000Y-88144819D01*
X131159048Y-89240057D02*
X131920952Y-89240057D01*
X132111429Y-89097200D02*
X132254286Y-89144819D01*
X132254286Y-89144819D02*
X132492381Y-89144819D01*
X132492381Y-89144819D02*
X132587619Y-89097200D01*
X132587619Y-89097200D02*
X132635238Y-89049580D01*
X132635238Y-89049580D02*
X132682857Y-88954342D01*
X132682857Y-88954342D02*
X132682857Y-88859104D01*
X132682857Y-88859104D02*
X132635238Y-88763866D01*
X132635238Y-88763866D02*
X132587619Y-88716247D01*
X132587619Y-88716247D02*
X132492381Y-88668628D01*
X132492381Y-88668628D02*
X132301905Y-88621009D01*
X132301905Y-88621009D02*
X132206667Y-88573390D01*
X132206667Y-88573390D02*
X132159048Y-88525771D01*
X132159048Y-88525771D02*
X132111429Y-88430533D01*
X132111429Y-88430533D02*
X132111429Y-88335295D01*
X132111429Y-88335295D02*
X132159048Y-88240057D01*
X132159048Y-88240057D02*
X132206667Y-88192438D01*
X132206667Y-88192438D02*
X132301905Y-88144819D01*
X132301905Y-88144819D02*
X132540000Y-88144819D01*
X132540000Y-88144819D02*
X132682857Y-88192438D01*
X133111429Y-89144819D02*
X133111429Y-88478152D01*
X133111429Y-88573390D02*
X133159048Y-88525771D01*
X133159048Y-88525771D02*
X133254286Y-88478152D01*
X133254286Y-88478152D02*
X133397143Y-88478152D01*
X133397143Y-88478152D02*
X133492381Y-88525771D01*
X133492381Y-88525771D02*
X133540000Y-88621009D01*
X133540000Y-88621009D02*
X133540000Y-89144819D01*
X133540000Y-88621009D02*
X133587619Y-88525771D01*
X133587619Y-88525771D02*
X133682857Y-88478152D01*
X133682857Y-88478152D02*
X133825714Y-88478152D01*
X133825714Y-88478152D02*
X133920953Y-88525771D01*
X133920953Y-88525771D02*
X133968572Y-88621009D01*
X133968572Y-88621009D02*
X133968572Y-89144819D01*
X134873333Y-89144819D02*
X134873333Y-88621009D01*
X134873333Y-88621009D02*
X134825714Y-88525771D01*
X134825714Y-88525771D02*
X134730476Y-88478152D01*
X134730476Y-88478152D02*
X134540000Y-88478152D01*
X134540000Y-88478152D02*
X134444762Y-88525771D01*
X134873333Y-89097200D02*
X134778095Y-89144819D01*
X134778095Y-89144819D02*
X134540000Y-89144819D01*
X134540000Y-89144819D02*
X134444762Y-89097200D01*
X134444762Y-89097200D02*
X134397143Y-89001961D01*
X134397143Y-89001961D02*
X134397143Y-88906723D01*
X134397143Y-88906723D02*
X134444762Y-88811485D01*
X134444762Y-88811485D02*
X134540000Y-88763866D01*
X134540000Y-88763866D02*
X134778095Y-88763866D01*
X134778095Y-88763866D02*
X134873333Y-88716247D01*
X135492381Y-89144819D02*
X135397143Y-89097200D01*
X135397143Y-89097200D02*
X135349524Y-89001961D01*
X135349524Y-89001961D02*
X135349524Y-88144819D01*
X136016191Y-89144819D02*
X135920953Y-89097200D01*
X135920953Y-89097200D02*
X135873334Y-89001961D01*
X135873334Y-89001961D02*
X135873334Y-88144819D01*
X129709104Y-87351904D02*
X129709104Y-86875714D01*
X129994819Y-87447142D02*
X128994819Y-87113809D01*
X128994819Y-87113809D02*
X129994819Y-86780476D01*
X129994819Y-86447142D02*
X128994819Y-86447142D01*
X128994819Y-86447142D02*
X128994819Y-86209047D01*
X128994819Y-86209047D02*
X129042438Y-86066190D01*
X129042438Y-86066190D02*
X129137676Y-85970952D01*
X129137676Y-85970952D02*
X129232914Y-85923333D01*
X129232914Y-85923333D02*
X129423390Y-85875714D01*
X129423390Y-85875714D02*
X129566247Y-85875714D01*
X129566247Y-85875714D02*
X129756723Y-85923333D01*
X129756723Y-85923333D02*
X129851961Y-85970952D01*
X129851961Y-85970952D02*
X129947200Y-86066190D01*
X129947200Y-86066190D02*
X129994819Y-86209047D01*
X129994819Y-86209047D02*
X129994819Y-86447142D01*
X129042438Y-84923333D02*
X128994819Y-85018571D01*
X128994819Y-85018571D02*
X128994819Y-85161428D01*
X128994819Y-85161428D02*
X129042438Y-85304285D01*
X129042438Y-85304285D02*
X129137676Y-85399523D01*
X129137676Y-85399523D02*
X129232914Y-85447142D01*
X129232914Y-85447142D02*
X129423390Y-85494761D01*
X129423390Y-85494761D02*
X129566247Y-85494761D01*
X129566247Y-85494761D02*
X129756723Y-85447142D01*
X129756723Y-85447142D02*
X129851961Y-85399523D01*
X129851961Y-85399523D02*
X129947200Y-85304285D01*
X129947200Y-85304285D02*
X129994819Y-85161428D01*
X129994819Y-85161428D02*
X129994819Y-85066190D01*
X129994819Y-85066190D02*
X129947200Y-84923333D01*
X129947200Y-84923333D02*
X129899580Y-84875714D01*
X129899580Y-84875714D02*
X129566247Y-84875714D01*
X129566247Y-84875714D02*
X129566247Y-85066190D01*
X129994819Y-84447142D02*
X128994819Y-84447142D01*
X128994819Y-84447142D02*
X129994819Y-83875714D01*
X129994819Y-83875714D02*
X128994819Y-83875714D01*
X129994819Y-83399523D02*
X128994819Y-83399523D01*
X128994819Y-83399523D02*
X128994819Y-83161428D01*
X128994819Y-83161428D02*
X129042438Y-83018571D01*
X129042438Y-83018571D02*
X129137676Y-82923333D01*
X129137676Y-82923333D02*
X129232914Y-82875714D01*
X129232914Y-82875714D02*
X129423390Y-82828095D01*
X129423390Y-82828095D02*
X129566247Y-82828095D01*
X129566247Y-82828095D02*
X129756723Y-82875714D01*
X129756723Y-82875714D02*
X129851961Y-82923333D01*
X129851961Y-82923333D02*
X129947200Y-83018571D01*
X129947200Y-83018571D02*
X129994819Y-83161428D01*
X129994819Y-83161428D02*
X129994819Y-83399523D01*
X109884819Y-84105714D02*
X109884819Y-84677142D01*
X109884819Y-84391428D02*
X108884819Y-84391428D01*
X108884819Y-84391428D02*
X109027676Y-84486666D01*
X109027676Y-84486666D02*
X109122914Y-84581904D01*
X109122914Y-84581904D02*
X109170533Y-84677142D01*
X109884819Y-83677142D02*
X108884819Y-83677142D01*
X108884819Y-83677142D02*
X109599104Y-83343809D01*
X109599104Y-83343809D02*
X108884819Y-83010476D01*
X108884819Y-83010476D02*
X109884819Y-83010476D01*
X112863333Y-84274819D02*
X112530000Y-83798628D01*
X112291905Y-84274819D02*
X112291905Y-83274819D01*
X112291905Y-83274819D02*
X112672857Y-83274819D01*
X112672857Y-83274819D02*
X112768095Y-83322438D01*
X112768095Y-83322438D02*
X112815714Y-83370057D01*
X112815714Y-83370057D02*
X112863333Y-83465295D01*
X112863333Y-83465295D02*
X112863333Y-83608152D01*
X112863333Y-83608152D02*
X112815714Y-83703390D01*
X112815714Y-83703390D02*
X112768095Y-83751009D01*
X112768095Y-83751009D02*
X112672857Y-83798628D01*
X112672857Y-83798628D02*
X112291905Y-83798628D01*
X113815714Y-84274819D02*
X113244286Y-84274819D01*
X113530000Y-84274819D02*
X113530000Y-83274819D01*
X113530000Y-83274819D02*
X113434762Y-83417676D01*
X113434762Y-83417676D02*
X113339524Y-83512914D01*
X113339524Y-83512914D02*
X113244286Y-83560533D01*
X109884819Y-89185714D02*
X109884819Y-89757142D01*
X109884819Y-89471428D02*
X108884819Y-89471428D01*
X108884819Y-89471428D02*
X109027676Y-89566666D01*
X109027676Y-89566666D02*
X109122914Y-89661904D01*
X109122914Y-89661904D02*
X109170533Y-89757142D01*
X109884819Y-88757142D02*
X108884819Y-88757142D01*
X108884819Y-88757142D02*
X109599104Y-88423809D01*
X109599104Y-88423809D02*
X108884819Y-88090476D01*
X108884819Y-88090476D02*
X109884819Y-88090476D01*
X112863333Y-89354819D02*
X112530000Y-88878628D01*
X112291905Y-89354819D02*
X112291905Y-88354819D01*
X112291905Y-88354819D02*
X112672857Y-88354819D01*
X112672857Y-88354819D02*
X112768095Y-88402438D01*
X112768095Y-88402438D02*
X112815714Y-88450057D01*
X112815714Y-88450057D02*
X112863333Y-88545295D01*
X112863333Y-88545295D02*
X112863333Y-88688152D01*
X112863333Y-88688152D02*
X112815714Y-88783390D01*
X112815714Y-88783390D02*
X112768095Y-88831009D01*
X112768095Y-88831009D02*
X112672857Y-88878628D01*
X112672857Y-88878628D02*
X112291905Y-88878628D01*
X113244286Y-88450057D02*
X113291905Y-88402438D01*
X113291905Y-88402438D02*
X113387143Y-88354819D01*
X113387143Y-88354819D02*
X113625238Y-88354819D01*
X113625238Y-88354819D02*
X113720476Y-88402438D01*
X113720476Y-88402438D02*
X113768095Y-88450057D01*
X113768095Y-88450057D02*
X113815714Y-88545295D01*
X113815714Y-88545295D02*
X113815714Y-88640533D01*
X113815714Y-88640533D02*
X113768095Y-88783390D01*
X113768095Y-88783390D02*
X113196667Y-89354819D01*
X113196667Y-89354819D02*
X113815714Y-89354819D01*
%TO.C,ADS1298*%
X114380000Y-116639600D02*
X114380000Y-107639600D01*
X115380000Y-106639600D02*
X124380000Y-106639600D01*
X114380000Y-107639600D02*
X115380000Y-106639600D01*
X124380000Y-116639600D02*
X114380000Y-116639600D01*
X124380000Y-106639600D02*
X124380000Y-116639600D01*
D11*
%TO.C,C1*%
X110490000Y-78740000D02*
X114935000Y-78740000D01*
X114935000Y-78740000D02*
X115570000Y-79375000D01*
X110490000Y-81280000D02*
X110490000Y-78740000D01*
X115570000Y-81280000D02*
X110490000Y-81280000D01*
X115570000Y-79375000D02*
X115570000Y-81280000D01*
%TO.C,C2*%
X123190000Y-83185000D02*
X123190000Y-85090000D01*
X123190000Y-85090000D02*
X118110000Y-85090000D01*
X118110000Y-82550000D02*
X122555000Y-82550000D01*
X118110000Y-85090000D02*
X118110000Y-82550000D01*
X122555000Y-82550000D02*
X123190000Y-83185000D01*
%TO.C,C3*%
X121920000Y-72390000D02*
X124460000Y-72390000D01*
X124460000Y-76835000D02*
X123825000Y-77470000D01*
X121920000Y-77470000D02*
X121920000Y-72390000D01*
X124460000Y-72390000D02*
X124460000Y-76835000D01*
X123825000Y-77470000D02*
X121920000Y-77470000D01*
%TO.C,C4*%
X123190000Y-79375000D02*
X123190000Y-81280000D01*
X118110000Y-81280000D02*
X118110000Y-78740000D01*
X122555000Y-78740000D02*
X123190000Y-79375000D01*
X118110000Y-78740000D02*
X122555000Y-78740000D01*
X123190000Y-81280000D02*
X118110000Y-81280000D01*
%TO.C,C5*%
X120650000Y-76835000D02*
X120015000Y-77470000D01*
X118110000Y-77470000D02*
X118110000Y-72390000D01*
X120650000Y-72390000D02*
X120650000Y-76835000D01*
X120015000Y-77470000D02*
X118110000Y-77470000D01*
X118110000Y-72390000D02*
X120650000Y-72390000D01*
%TO.C,C6*%
X119380000Y-90805000D02*
X119380000Y-88265000D01*
X124460000Y-90805000D02*
X119380000Y-90805000D01*
X119380000Y-88265000D02*
X123825000Y-88265000D01*
X123825000Y-88265000D02*
X124460000Y-88900000D01*
X124460000Y-88900000D02*
X124460000Y-90805000D01*
%TO.C,C7*%
X119380000Y-92075000D02*
X123825000Y-92075000D01*
X124460000Y-94615000D02*
X119380000Y-94615000D01*
X124460000Y-92710000D02*
X124460000Y-94615000D01*
X119380000Y-94615000D02*
X119380000Y-92075000D01*
X123825000Y-92075000D02*
X124460000Y-92710000D01*
%TO.C,C8*%
X111125000Y-72390000D02*
X113030000Y-72390000D01*
X113030000Y-77470000D02*
X110490000Y-77470000D01*
X110490000Y-77470000D02*
X110490000Y-73025000D01*
X113030000Y-72390000D02*
X113030000Y-77470000D01*
X110490000Y-73025000D02*
X111125000Y-72390000D01*
%TO.C,C9*%
X118110000Y-129535000D02*
X115570000Y-129535000D01*
X116205000Y-124455000D02*
X118110000Y-124455000D01*
X118110000Y-124455000D02*
X118110000Y-129535000D01*
X115570000Y-129535000D02*
X115570000Y-125090000D01*
X115570000Y-125090000D02*
X116205000Y-124455000D01*
%TO.C,C10*%
X112395000Y-133350000D02*
X111760000Y-132715000D01*
X116840000Y-130810000D02*
X116840000Y-133350000D01*
X111760000Y-132715000D02*
X111760000Y-130810000D01*
X111760000Y-130810000D02*
X116840000Y-130810000D01*
X116840000Y-133350000D02*
X112395000Y-133350000D01*
%TO.C,C11*%
X111760000Y-129535000D02*
X111760000Y-125090000D01*
X114300000Y-124455000D02*
X114300000Y-129535000D01*
X111760000Y-125090000D02*
X112395000Y-124455000D01*
X112395000Y-124455000D02*
X114300000Y-124455000D01*
X114300000Y-129535000D02*
X111760000Y-129535000D01*
%TO.C,C12*%
X118110000Y-96520000D02*
X118110000Y-98425000D01*
X113030000Y-95885000D02*
X117475000Y-95885000D01*
X118110000Y-98425000D02*
X113030000Y-98425000D01*
X117475000Y-95885000D02*
X118110000Y-96520000D01*
X113030000Y-98425000D02*
X113030000Y-95885000D01*
%TO.C,C13*%
X121920000Y-129535000D02*
X119380000Y-129535000D01*
X121920000Y-124455000D02*
X121920000Y-129535000D01*
X119380000Y-125090000D02*
X120015000Y-124455000D01*
X120015000Y-124455000D02*
X121920000Y-124455000D01*
X119380000Y-129535000D02*
X119380000Y-125090000D01*
%TO.C,C14*%
X117475000Y-92075000D02*
X118110000Y-92710000D01*
X118110000Y-94615000D02*
X113030000Y-94615000D01*
X118110000Y-92710000D02*
X118110000Y-94615000D01*
X113030000Y-94615000D02*
X113030000Y-92075000D01*
X113030000Y-92075000D02*
X117475000Y-92075000D01*
%TO.C,C15*%
X123825000Y-124455000D02*
X125730000Y-124455000D01*
X125730000Y-129535000D02*
X123190000Y-129535000D01*
X123190000Y-129535000D02*
X123190000Y-125090000D01*
X123190000Y-125090000D02*
X123825000Y-124455000D01*
X125730000Y-124455000D02*
X125730000Y-129535000D01*
%TO.C,C16*%
X129540000Y-124455000D02*
X129540000Y-129535000D01*
X127000000Y-129535000D02*
X127000000Y-125090000D01*
X127635000Y-124455000D02*
X129540000Y-124455000D01*
X127000000Y-125090000D02*
X127635000Y-124455000D01*
X129540000Y-129535000D02*
X127000000Y-129535000D01*
%TO.C,CLKSEL*%
X123825000Y-95885000D02*
X124460000Y-96520000D01*
X124460000Y-98425000D02*
X119380000Y-98425000D01*
X124460000Y-96520000D02*
X124460000Y-98425000D01*
X119380000Y-98425000D02*
X119380000Y-95885000D01*
X119380000Y-95885000D02*
X123825000Y-95885000D01*
%TO.C,ADGND*%
X128905000Y-82550000D02*
X130810000Y-82550000D01*
X130810000Y-82550000D02*
X130810000Y-87630000D01*
X130810000Y-87630000D02*
X128270000Y-87630000D01*
X128270000Y-87630000D02*
X128270000Y-83185000D01*
X128270000Y-83185000D02*
X128905000Y-82550000D01*
%TO.C,R1*%
X110490000Y-82550000D02*
X114935000Y-82550000D01*
X115570000Y-85090000D02*
X110490000Y-85090000D01*
X114935000Y-82550000D02*
X115570000Y-83185000D01*
X110490000Y-85090000D02*
X110490000Y-82550000D01*
X115570000Y-83185000D02*
X115570000Y-85090000D01*
%TO.C,R2*%
X115570000Y-88265000D02*
X115570000Y-90170000D01*
X115570000Y-90170000D02*
X110490000Y-90170000D01*
X114935000Y-87630000D02*
X115570000Y-88265000D01*
X110490000Y-90170000D02*
X110490000Y-87630000D01*
X110490000Y-87630000D02*
X114935000Y-87630000D01*
%TD*%
M02*
