M48
; DRILL file {KiCad 8.0.7} date 2025-04-29T18:30:41-0300
; FORMAT={-:-/ absolute / inch / decimal}
; #@! TF.CreationDate,2025-04-29T18:30:41-03:00
; #@! TF.GenerationSoftware,Kicad,Pcbnew,8.0.7
; #@! TF.FileFunction,Plated,1,2,PTH
FMAT,2
INCH
; #@! TA.AperFunction,Plated,PTH,ViaDrill
T1C0.0118
; #@! TA.AperFunction,Plated,PTH,ComponentDrill
T2C0.0315
%
G90
G05
T1
X4.8622Y-3.7953
X4.8622Y-3.8346
X4.8622Y-3.874
X4.8622Y-3.9134
X4.8622Y-3.9528
X4.8622Y-3.9921
X4.8622Y-4.0315
X4.8622Y-4.0709
X4.8642Y-3.7598
X4.9646Y-4.1358
X4.9941Y-3.6496
X4.998Y-3.7717
X5.0295Y-3.6496
X5.0925Y-3.6496
X5.1319Y-3.6496
X5.1496Y-3.815
X5.1496Y-3.8543
X5.1496Y-3.8937
X5.1496Y-3.9331
X5.1496Y-3.9724
X5.1496Y-4.0
X5.1496Y-4.0276
X5.1496Y-4.0551
X5.2106Y-3.6496
X5.2461Y-3.6496
X5.2638Y-3.8327
X5.2677Y-3.9429
X5.2795Y-4.0965
X5.311Y-4.0315
X5.3189Y-3.8642
X5.3642Y-4.1043
X5.3661Y-3.7461
T2
X4.8602Y-4.1417
X4.8602Y-4.2205
X4.8602Y-4.2992
X5.3839Y-3.6181
X5.4626Y-3.6181
X5.4626Y-3.6988
X5.4626Y-3.7776
X5.4626Y-3.8563
X5.4626Y-3.935
X5.4626Y-4.0138
X5.4626Y-4.0925
X5.4626Y-4.1713
X5.4626Y-4.25
M30
