%TF.GenerationSoftware,KiCad,Pcbnew,8.0.7*%
%TF.CreationDate,2025-04-29T18:30:47-03:00*%
%TF.ProjectId,ads_headstage_board_v4,6164735f-6865-4616-9473-746167655f62,rev?*%
%TF.SameCoordinates,Original*%
%TF.FileFunction,Soldermask,Bot*%
%TF.FilePolarity,Negative*%
%FSLAX46Y46*%
G04 Gerber Fmt 4.6, Leading zero omitted, Abs format (unit mm)*
G04 Created by KiCad (PCBNEW 8.0.7) date 2025-04-29 18:30:47*
%MOMM*%
%LPD*%
G01*
G04 APERTURE LIST*
G04 Aperture macros list*
%AMRoundRect*
0 Rectangle with rounded corners*
0 $1 Rounding radius*
0 $2 $3 $4 $5 $6 $7 $8 $9 X,Y pos of 4 corners*
0 Add a 4 corners polygon primitive as box body*
4,1,4,$2,$3,$4,$5,$6,$7,$8,$9,$2,$3,0*
0 Add four circle primitives for the rounded corners*
1,1,$1+$1,$2,$3*
1,1,$1+$1,$4,$5*
1,1,$1+$1,$6,$7*
1,1,$1+$1,$8,$9*
0 Add four rect primitives between the rounded corners*
20,1,$1+$1,$2,$3,$4,$5,0*
20,1,$1+$1,$4,$5,$6,$7,0*
20,1,$1+$1,$6,$7,$8,$9,0*
20,1,$1+$1,$8,$9,$2,$3,0*%
G04 Aperture macros list end*
%ADD10RoundRect,0.200000X-0.675000X-0.675000X0.675000X-0.675000X0.675000X0.675000X-0.675000X0.675000X0*%
%ADD11C,1.750000*%
%ADD12RoundRect,0.200000X-0.375000X0.600000X-0.375000X-0.600000X0.375000X-0.600000X0.375000X0.600000X0*%
%ADD13RoundRect,0.200000X0.600000X0.375000X-0.600000X0.375000X-0.600000X-0.375000X0.600000X-0.375000X0*%
%ADD14RoundRect,0.200000X0.375000X-0.600000X0.375000X0.600000X-0.375000X0.600000X-0.375000X-0.600000X0*%
%ADD15RoundRect,0.200000X0.675000X-0.675000X0.675000X0.675000X-0.675000X0.675000X-0.675000X-0.675000X0*%
%ADD16RoundRect,0.200000X-0.750000X0.200000X-0.750000X-0.200000X0.750000X-0.200000X0.750000X0.200000X0*%
%ADD17RoundRect,0.200000X0.750000X-0.200000X0.750000X0.200000X-0.750000X0.200000X-0.750000X-0.200000X0*%
%ADD18RoundRect,0.200000X0.450000X-0.600000X0.450000X0.600000X-0.450000X0.600000X-0.450000X-0.600000X0*%
G04 APERTURE END LIST*
D10*
%TO.C,APwd1*%
X123450000Y-105200000D03*
D11*
X123450000Y-107200000D03*
X123450000Y-109200000D03*
%TD*%
D12*
%TO.C,C2*%
X125200000Y-105050000D03*
X125200000Y-106950000D03*
%TD*%
D13*
%TO.C,C3*%
X127300000Y-109650000D03*
X125400000Y-109650000D03*
%TD*%
D12*
%TO.C,C4*%
X127050000Y-105050000D03*
X127050000Y-106950000D03*
%TD*%
D13*
%TO.C,C5*%
X127300000Y-108450000D03*
X125400000Y-108450000D03*
%TD*%
D14*
%TO.C,C6*%
X136550000Y-101250000D03*
X136550000Y-99350000D03*
%TD*%
%TO.C,C7*%
X135300000Y-101250000D03*
X135300000Y-99350000D03*
%TD*%
D13*
%TO.C,C8*%
X130650000Y-91600000D03*
X128750000Y-91600000D03*
%TD*%
D15*
%TO.C,DPwd1*%
X136750000Y-91900000D03*
D11*
X138750000Y-91900000D03*
%TD*%
D16*
%TO.C,J1*%
X132200000Y-106400000D03*
X129400000Y-106400000D03*
X129400000Y-94900000D03*
D17*
X132200000Y-95900000D03*
X132200000Y-96900000D03*
X132200000Y-97900000D03*
X132200000Y-98900000D03*
X132200000Y-99900000D03*
X132200000Y-100900000D03*
X132200000Y-101900000D03*
X132200000Y-102900000D03*
X132200000Y-103900000D03*
X132200000Y-104900000D03*
X129400000Y-96400000D03*
X129400000Y-97400000D03*
X129400000Y-98400000D03*
X129400000Y-99400000D03*
X129400000Y-100400000D03*
X129400000Y-101400000D03*
X129400000Y-102400000D03*
X129400000Y-103400000D03*
X129400000Y-104400000D03*
X129400000Y-105400000D03*
D16*
X132200000Y-94900000D03*
%TD*%
D12*
%TO.C,CLKSEL*%
X134900000Y-91900000D03*
X134900000Y-93800000D03*
%TD*%
D14*
%TO.C,ADGND*%
X136250000Y-109400000D03*
X136250000Y-107500000D03*
%TD*%
D18*
%TO.C,R2*%
X125250000Y-95100000D03*
X125250000Y-92900000D03*
%TD*%
D10*
%TO.C,SPI1*%
X138750000Y-93950000D03*
D11*
X138750000Y-95950000D03*
X138750000Y-97950000D03*
X138750000Y-99950000D03*
X138750000Y-101950000D03*
X138750000Y-103950000D03*
X138750000Y-105950000D03*
X138750000Y-107950000D03*
%TD*%
M02*
