%TF.GenerationSoftware,KiCad,Pcbnew,8.0.7*%
%TF.CreationDate,2025-04-29T18:30:47-03:00*%
%TF.ProjectId,ads_headstage_board_v4,6164735f-6865-4616-9473-746167655f62,rev?*%
%TF.SameCoordinates,Original*%
%TF.FileFunction,Copper,L1,Top*%
%TF.FilePolarity,Positive*%
%FSLAX46Y46*%
G04 Gerber Fmt 4.6, Leading zero omitted, Abs format (unit mm)*
G04 Created by KiCad (PCBNEW 8.0.7) date 2025-04-29 18:30:47*
%MOMM*%
%LPD*%
G01*
G04 APERTURE LIST*
%TA.AperFunction,SMDPad,CuDef*%
%ADD10R,1.500000X0.300000*%
%TD*%
%TA.AperFunction,SMDPad,CuDef*%
%ADD11R,0.300000X1.500000*%
%TD*%
%TA.AperFunction,ComponentPad*%
%ADD12R,1.350000X1.350000*%
%TD*%
%TA.AperFunction,ComponentPad*%
%ADD13C,1.350000*%
%TD*%
%TA.AperFunction,SMDPad,CuDef*%
%ADD14R,1.200000X0.750000*%
%TD*%
%TA.AperFunction,SMDPad,CuDef*%
%ADD15R,0.750000X1.200000*%
%TD*%
%TA.AperFunction,SMDPad,CuDef*%
%ADD16R,0.900000X1.200000*%
%TD*%
%TA.AperFunction,ViaPad*%
%ADD17C,0.500000*%
%TD*%
%TA.AperFunction,Conductor*%
%ADD18C,0.203200*%
%TD*%
G04 APERTURE END LIST*
D10*
%TO.P,ADS1298,1*%
%TO.N,/IN8N*%
X124900000Y-95900000D03*
%TO.P,ADS1298,2*%
%TO.N,/IN8P*%
X124900000Y-96400000D03*
%TO.P,ADS1298,3*%
%TO.N,/IN7N*%
X124900000Y-96900000D03*
%TO.P,ADS1298,4*%
%TO.N,/IN7P*%
X124900000Y-97400000D03*
%TO.P,ADS1298,5*%
%TO.N,/IN6N*%
X124900000Y-97900000D03*
%TO.P,ADS1298,6*%
%TO.N,/IN6P*%
X124900000Y-98400000D03*
%TO.P,ADS1298,7*%
%TO.N,/IN5N*%
X124900000Y-98900000D03*
%TO.P,ADS1298,8*%
%TO.N,/IN5P*%
X124900000Y-99400000D03*
%TO.P,ADS1298,9*%
%TO.N,/IN4N*%
X124900000Y-99900000D03*
%TO.P,ADS1298,10*%
%TO.N,/IN4P*%
X124900000Y-100400000D03*
%TO.P,ADS1298,11*%
%TO.N,/IN3N*%
X124900000Y-100900000D03*
%TO.P,ADS1298,12*%
%TO.N,/IN3P*%
X124900000Y-101400000D03*
%TO.P,ADS1298,13*%
%TO.N,/IN2N*%
X124900000Y-101900000D03*
%TO.P,ADS1298,14*%
%TO.N,/IN2P*%
X124900000Y-102400000D03*
%TO.P,ADS1298,15*%
%TO.N,/IN1N*%
X124900000Y-102900000D03*
%TO.P,ADS1298,16*%
%TO.N,/IN1P*%
X124900000Y-103400000D03*
D11*
%TO.P,ADS1298,17*%
%TO.N,/ADS1298/TESTP_PACE_OUT1*%
X126850000Y-105350000D03*
%TO.P,ADS1298,18*%
%TO.N,/ADS1298/TESTN_PACE_OUT2*%
X127350000Y-105350000D03*
%TO.P,ADS1298,19*%
%TO.N,/AVDD*%
X127850000Y-105350000D03*
%TO.P,ADS1298,20*%
%TO.N,/AVSS*%
X128350000Y-105350000D03*
%TO.P,ADS1298,21*%
%TO.N,/AVDD*%
X128850000Y-105350000D03*
%TO.P,ADS1298,22*%
X129350000Y-105350000D03*
%TO.P,ADS1298,23*%
%TO.N,/AVSS*%
X129850000Y-105350000D03*
%TO.P,ADS1298,24*%
%TO.N,/ADS1298/RLDREF*%
X130350000Y-105350000D03*
%TO.P,ADS1298,25*%
%TO.N,Net-(ADS1-Pad25)*%
X130850000Y-105350000D03*
%TO.P,ADS1298,26*%
%TO.N,Net-(ADS1-Pad26)*%
X131350000Y-105350000D03*
%TO.P,ADS1298,27*%
%TO.N,Net-(ADS1-Pad27)*%
X131850000Y-105350000D03*
%TO.P,ADS1298,28*%
%TO.N,Net-(ADS1-Pad28)*%
X132350000Y-105350000D03*
%TO.P,ADS1298,29*%
%TO.N,Net-(ADS1-Pad29)*%
X132850000Y-105350000D03*
%TO.P,ADS1298,30*%
%TO.N,Net-(ADS1-Pad30)*%
X133350000Y-105350000D03*
%TO.P,ADS1298,31*%
%TO.N,/DGND*%
X133850000Y-105350000D03*
%TO.P,ADS1298,32*%
%TO.N,/AVSS*%
X134350000Y-105350000D03*
D10*
%TO.P,ADS1298,33*%
%TO.N,/DGND*%
X136300000Y-103400000D03*
%TO.P,ADS1298,34*%
%TO.N,/MOSI*%
X136300000Y-102900000D03*
%TO.P,ADS1298,35*%
%TO.N,/DVDD*%
X136300000Y-102400000D03*
%TO.P,ADS1298,36*%
%TO.N,/~{RESET}*%
X136300000Y-101900000D03*
%TO.P,ADS1298,37*%
%TO.N,/CLK*%
X136300000Y-101400000D03*
%TO.P,ADS1298,38*%
%TO.N,/START*%
X136300000Y-100900000D03*
%TO.P,ADS1298,39*%
%TO.N,/~{CS}*%
X136300000Y-100400000D03*
%TO.P,ADS1298,40*%
%TO.N,/SPI_CLK*%
X136300000Y-99900000D03*
%TO.P,ADS1298,41*%
%TO.N,/DGND*%
X136300000Y-99400000D03*
%TO.P,ADS1298,42*%
X136300000Y-98900000D03*
%TO.P,ADS1298,43*%
%TO.N,/MISO*%
X136300000Y-98400000D03*
%TO.P,ADS1298,44*%
%TO.N,/DGND*%
X136300000Y-97900000D03*
%TO.P,ADS1298,45*%
X136300000Y-97400000D03*
%TO.P,ADS1298,46*%
X136300000Y-96900000D03*
%TO.P,ADS1298,47*%
%TO.N,/~{DRDY}*%
X136300000Y-96400000D03*
%TO.P,ADS1298,48*%
%TO.N,/DVDD*%
X136300000Y-95900000D03*
D11*
%TO.P,ADS1298,49*%
%TO.N,/DGND*%
X134350000Y-93950000D03*
%TO.P,ADS1298,50*%
%TO.N,/DVDD*%
X133850000Y-93950000D03*
%TO.P,ADS1298,51*%
%TO.N,/DGND*%
X133350000Y-93950000D03*
%TO.P,ADS1298,52*%
%TO.N,/CLKSEL*%
X132850000Y-93950000D03*
%TO.P,ADS1298,53*%
%TO.N,/AVSS*%
X132350000Y-93950000D03*
%TO.P,ADS1298,54*%
%TO.N,/AVDD*%
X131850000Y-93950000D03*
%TO.P,ADS1298,55*%
%TO.N,Net-(ADS1-Pad55)*%
X131350000Y-93950000D03*
%TO.P,ADS1298,56*%
%TO.N,/AVDD*%
X130850000Y-93950000D03*
%TO.P,ADS1298,57*%
%TO.N,/AVSS*%
X130350000Y-93950000D03*
%TO.P,ADS1298,58*%
X129850000Y-93950000D03*
%TO.P,ADS1298,59*%
%TO.N,/AVDD*%
X129350000Y-93950000D03*
%TO.P,ADS1298,60*%
%TO.N,/ADS1298/RLDREF*%
X128850000Y-93950000D03*
%TO.P,ADS1298,61*%
%TO.N,/ADS1298/RLDINV*%
X128350000Y-93950000D03*
%TO.P,ADS1298,62*%
%TO.N,/ADS1298/RLDIN*%
X127850000Y-93950000D03*
%TO.P,ADS1298,63*%
%TO.N,/RDLout*%
X127350000Y-93950000D03*
%TO.P,ADS1298,64*%
%TO.N,Net-(ADS1-Pad64)*%
X126850000Y-93950000D03*
%TD*%
D12*
%TO.P,APwd1,1*%
%TO.N,/AVDD*%
X123450000Y-105200000D03*
D13*
%TO.P,APwd1,2*%
%TO.N,/AGND*%
X123450000Y-107200000D03*
%TO.P,APwd1,3*%
%TO.N,/AVSS*%
X123450000Y-109200000D03*
%TD*%
D14*
%TO.P,C1,1*%
%TO.N,/ADS1298/RLDINV*%
X127450000Y-91800000D03*
%TO.P,C1,2*%
%TO.N,/RDLout*%
X125550000Y-91800000D03*
%TD*%
%TO.P,C9,1*%
%TO.N,/ADS1298/RLDREF*%
X127350000Y-108900000D03*
%TO.P,C9,2*%
%TO.N,Net-(ADS1-Pad25)*%
X129250000Y-108900000D03*
%TD*%
D15*
%TO.P,C10,1*%
%TO.N,Net-(ADS1-Pad25)*%
X130850000Y-107550000D03*
%TO.P,C10,2*%
%TO.N,/AVSS*%
X130850000Y-109450000D03*
%TD*%
D14*
%TO.P,C11,1*%
%TO.N,/ADS1298/RLDREF*%
X127350000Y-107700000D03*
%TO.P,C11,2*%
%TO.N,Net-(ADS1-Pad25)*%
X129250000Y-107700000D03*
%TD*%
%TO.P,C12,1*%
%TO.N,/AVSS*%
X129350000Y-91800000D03*
%TO.P,C12,2*%
%TO.N,Net-(ADS1-Pad55)*%
X131250000Y-91800000D03*
%TD*%
D15*
%TO.P,C13,1*%
%TO.N,Net-(ADS1-Pad26)*%
X132150000Y-107550000D03*
%TO.P,C13,2*%
%TO.N,/AVSS*%
X132150000Y-109450000D03*
%TD*%
D14*
%TO.P,C14,1*%
%TO.N,/AVSS*%
X132950000Y-91800000D03*
%TO.P,C14,2*%
%TO.N,Net-(ADS1-Pad55)*%
X134850000Y-91800000D03*
%TD*%
D15*
%TO.P,C15,1*%
%TO.N,Net-(ADS1-Pad28)*%
X133450000Y-107550000D03*
%TO.P,C15,2*%
%TO.N,/AVSS*%
X133450000Y-109450000D03*
%TD*%
%TO.P,C16,1*%
%TO.N,Net-(ADS1-Pad30)*%
X134700000Y-107550000D03*
%TO.P,C16,2*%
%TO.N,/AVSS*%
X134700000Y-109450000D03*
%TD*%
D12*
%TO.P,DPwd1,1*%
%TO.N,/DVDD*%
X136750000Y-91900000D03*
D13*
%TO.P,DPwd1,2*%
%TO.N,/DGND*%
X138750000Y-91900000D03*
%TD*%
D16*
%TO.P,R1,1*%
%TO.N,/ADS1298/RLDINV*%
X123900000Y-91800000D03*
%TO.P,R1,2*%
%TO.N,/RDLout*%
X123900000Y-94000000D03*
%TD*%
D12*
%TO.P,SPI1,1*%
%TO.N,/~{DRDY}*%
X138750000Y-93950000D03*
D13*
%TO.P,SPI1,2*%
%TO.N,/MISO*%
X138750000Y-95950000D03*
%TO.P,SPI1,3*%
%TO.N,/SPI_CLK*%
X138750000Y-97950000D03*
%TO.P,SPI1,4*%
%TO.N,/~{CS}*%
X138750000Y-99950000D03*
%TO.P,SPI1,5*%
%TO.N,/START*%
X138750000Y-101950000D03*
%TO.P,SPI1,6*%
%TO.N,/~{RESET}*%
X138750000Y-103950000D03*
%TO.P,SPI1,7*%
%TO.N,/MOSI*%
X138750000Y-105950000D03*
%TO.P,SPI1,8*%
%TO.N,/CLK*%
X138750000Y-107950000D03*
%TD*%
D17*
%TO.N,/IN8N*%
X130800000Y-96900000D03*
%TO.N,/IN8P*%
X123500000Y-96400000D03*
%TO.N,/IN7N*%
X130800000Y-97900000D03*
%TO.N,/IN7P*%
X123500000Y-97400000D03*
%TO.N,/IN6N*%
X130800000Y-98900000D03*
%TO.N,/IN6P*%
X123500000Y-98400000D03*
%TO.N,/IN5N*%
X130800000Y-99900000D03*
%TO.N,/IN5P*%
X123500000Y-99400000D03*
%TO.N,/IN4N*%
X130800000Y-100900000D03*
%TO.N,/IN4P*%
X123500000Y-100400000D03*
%TO.N,/IN3N*%
X130800000Y-101600000D03*
%TO.N,/IN3P*%
X123500000Y-101400000D03*
%TO.N,/IN2N*%
X130800000Y-102300000D03*
%TO.N,/IN2P*%
X123500000Y-102400000D03*
%TO.N,/IN1N*%
X130800000Y-103000000D03*
%TO.N,/IN1P*%
X123500000Y-103400000D03*
%TO.N,/AVDD*%
X126100000Y-105050000D03*
X129350000Y-92700000D03*
%TO.N,/AVSS*%
X133700000Y-97350000D03*
X132350000Y-92700000D03*
X130350000Y-92700000D03*
%TO.N,/DGND*%
X135100000Y-98150000D03*
X134100000Y-104050000D03*
X136250000Y-104250000D03*
%TO.N,/DVDD*%
X136300000Y-95150000D03*
X134900000Y-102400000D03*
%TO.N,/CLKSEL*%
X133250000Y-92700000D03*
%TO.N,/ADS1298/RLDIN*%
X127750000Y-92700000D03*
%TO.N,/RDLout*%
X133800000Y-100150000D03*
X126950000Y-95800000D03*
%TO.N,Net-(ADS1-Pad64)*%
X126850000Y-92700000D03*
%TO.N,/AGND*%
X123550000Y-95500000D03*
%TD*%
D18*
%TO.N,/IN8N*%
X124900000Y-95900000D02*
X126050000Y-95900000D01*
X130500000Y-96600000D02*
X130800000Y-96900000D01*
X126800000Y-96650000D02*
X130500000Y-96600000D01*
X126050000Y-95900000D02*
X126800000Y-96650000D01*
%TO.N,/IN8P*%
X124900000Y-96400000D02*
X123500000Y-96400000D01*
%TO.N,/IN7N*%
X124900000Y-96900000D02*
X126050000Y-96900000D01*
X130200000Y-97300000D02*
X130800000Y-97900000D01*
X126450000Y-97300000D02*
X130200000Y-97300000D01*
X126050000Y-96900000D02*
X126450000Y-97300000D01*
%TO.N,/IN7P*%
X124900000Y-97400000D02*
X123500000Y-97400000D01*
%TO.N,/IN6N*%
X124900000Y-97900000D02*
X129800000Y-97900000D01*
X129800000Y-97900000D02*
X130800000Y-98900000D01*
%TO.N,/IN6P*%
X124900000Y-98400000D02*
X123500000Y-98400000D01*
%TO.N,/IN5N*%
X124900000Y-98900000D02*
X129800000Y-98900000D01*
X129800000Y-98900000D02*
X130800000Y-99900000D01*
%TO.N,/IN5P*%
X124900000Y-99400000D02*
X123500000Y-99400000D01*
%TO.N,/IN4N*%
X129800000Y-99900000D02*
X130800000Y-100900000D01*
X129800000Y-99900000D02*
X124900000Y-99900000D01*
%TO.N,/IN4P*%
X124900000Y-100400000D02*
X123500000Y-100400000D01*
%TO.N,/IN3N*%
X129800000Y-100900000D02*
X130500000Y-101600000D01*
X124900000Y-100900000D02*
X129800000Y-100900000D01*
X130500000Y-101600000D02*
X130800000Y-101600000D01*
%TO.N,/IN3P*%
X124900000Y-101400000D02*
X123500000Y-101400000D01*
%TO.N,/IN2N*%
X129800000Y-101900000D02*
X130050000Y-101900000D01*
X130050000Y-101900000D02*
X130450000Y-102300000D01*
X130450000Y-102300000D02*
X130800000Y-102300000D01*
X129800000Y-101900000D02*
X124900000Y-101900000D01*
%TO.N,/IN2P*%
X124900000Y-102400000D02*
X123500000Y-102400000D01*
%TO.N,/IN1N*%
X129800000Y-102900000D02*
X129900000Y-103000000D01*
X124900000Y-102900000D02*
X129800000Y-102900000D01*
X129900000Y-103000000D02*
X130800000Y-103000000D01*
%TO.N,/IN1P*%
X124900000Y-103400000D02*
X123500000Y-103400000D01*
%TO.N,/AVDD*%
X126100000Y-105050000D02*
X126100000Y-104050000D01*
X126100000Y-104050000D02*
X127850000Y-104050000D01*
X129350000Y-92700000D02*
X129350000Y-93950000D01*
X127850000Y-105350000D02*
X127850000Y-104050000D01*
X128850000Y-105350000D02*
X129350000Y-105350000D01*
X129350000Y-104050000D02*
X129350000Y-105350000D01*
X127850000Y-104050000D02*
X129350000Y-104050000D01*
X130850000Y-93950000D02*
X130850000Y-95050000D01*
X129350000Y-93950000D02*
X129350000Y-95050000D01*
X129350000Y-95050000D02*
X130850000Y-95050000D01*
X131850000Y-95050000D02*
X131850000Y-93950000D01*
X130850000Y-95050000D02*
X131850000Y-95050000D01*
%TO.N,/AVSS*%
X135450000Y-109450000D02*
X135950000Y-109450000D01*
X130250000Y-103750000D02*
X131150000Y-103750000D01*
X129850000Y-105350000D02*
X129850000Y-104150000D01*
X130250000Y-103750000D02*
X129850000Y-104150000D01*
X133700000Y-98550000D02*
X133700000Y-97350000D01*
X134450000Y-99250000D02*
X133700000Y-98550000D01*
X134450000Y-100450000D02*
X134450000Y-99250000D01*
X133800000Y-101000000D02*
X134450000Y-100450000D01*
X132050000Y-101000000D02*
X133800000Y-101000000D01*
X131750000Y-101300000D02*
X132050000Y-101000000D01*
X131750000Y-103150000D02*
X131750000Y-101300000D01*
X131150000Y-103750000D02*
X131750000Y-103150000D01*
X123450000Y-109200000D02*
X126150000Y-109200000D01*
X126550000Y-109600000D02*
X130700000Y-109600000D01*
X126150000Y-109200000D02*
X126550000Y-109600000D01*
X130700000Y-109600000D02*
X130850000Y-109450000D01*
X132350000Y-93950000D02*
X132350000Y-92700000D01*
X132350000Y-93950000D02*
X132350000Y-92400000D01*
X132350000Y-92400000D02*
X132950000Y-91800000D01*
X130350000Y-92700000D02*
X130250000Y-92700000D01*
X130250000Y-92700000D02*
X129350000Y-91800000D01*
X130350000Y-93950000D02*
X130350000Y-92700000D01*
X128350000Y-106550000D02*
X126250000Y-106550000D01*
X126250000Y-106550000D02*
X123450000Y-109200000D01*
X128350000Y-105350000D02*
X128350000Y-106550000D01*
X129850000Y-106300000D02*
X129850000Y-105350000D01*
X129600000Y-106550000D02*
X129850000Y-106300000D01*
X128350000Y-106550000D02*
X129600000Y-106550000D01*
X130350000Y-93950000D02*
X129850000Y-93950000D01*
X133450000Y-109450000D02*
X134700000Y-109450000D01*
X132150000Y-109450000D02*
X133450000Y-109450000D01*
X130850000Y-109450000D02*
X132150000Y-109450000D01*
X134700000Y-109450000D02*
X135450000Y-109450000D01*
X135450000Y-109450000D02*
X135450000Y-106450000D01*
X135450000Y-106450000D02*
X134350000Y-105350000D01*
%TO.N,/ADS1298/RLDREF*%
X130500000Y-104250000D02*
X131350000Y-104250000D01*
X130350000Y-105350000D02*
X130350000Y-104400000D01*
X130350000Y-104400000D02*
X130500000Y-104250000D01*
X134050000Y-101500000D02*
X134950000Y-100600000D01*
X132450000Y-101500000D02*
X134050000Y-101500000D01*
X132300000Y-101650000D02*
X132450000Y-101500000D01*
X132300000Y-103300000D02*
X132300000Y-101650000D01*
X131350000Y-104250000D02*
X132300000Y-103300000D01*
X127350000Y-107700000D02*
X127350000Y-108900000D01*
X128850000Y-93950000D02*
X128850000Y-95200000D01*
X134950000Y-100600000D02*
X134950000Y-99150000D01*
X134950000Y-99150000D02*
X134450000Y-98650000D01*
X134450000Y-98650000D02*
X134450000Y-97100000D01*
X134450000Y-97100000D02*
X132850000Y-95500000D01*
X132850000Y-95500000D02*
X132650000Y-95500000D01*
X128850000Y-95200000D02*
X129150000Y-95500000D01*
X129150000Y-95500000D02*
X132650000Y-95500000D01*
X134300000Y-101200000D02*
X134950000Y-100600000D01*
X127350000Y-107750000D02*
X128100000Y-107000000D01*
X130350000Y-106400000D02*
X130350000Y-105350000D01*
X129750000Y-107000000D02*
X130350000Y-106400000D01*
X128100000Y-107000000D02*
X129750000Y-107000000D01*
%TO.N,Net-(ADS1-Pad25)*%
X129250000Y-107700000D02*
X129250000Y-108900000D01*
X129250000Y-107750000D02*
X130150000Y-107750000D01*
X130350000Y-107550000D02*
X130850000Y-107550000D01*
X130150000Y-107750000D02*
X130350000Y-107550000D01*
X130850000Y-107550000D02*
X130850000Y-105350000D01*
%TO.N,Net-(ADS1-Pad26)*%
X132150000Y-107550000D02*
X131800000Y-107200000D01*
X131800000Y-107200000D02*
X131800000Y-106750000D01*
X131800000Y-106750000D02*
X131600000Y-106550000D01*
X131600000Y-106550000D02*
X131350000Y-106300000D01*
X131350000Y-106300000D02*
X131350000Y-105350000D01*
%TO.N,Net-(ADS1-Pad28)*%
X133450000Y-107550000D02*
X133000000Y-107100000D01*
X132350000Y-106350000D02*
X132350000Y-105350000D01*
X132550000Y-106550000D02*
X132350000Y-106350000D01*
X132850000Y-106550000D02*
X132550000Y-106550000D01*
X133000000Y-106700000D02*
X132850000Y-106550000D01*
X133000000Y-107100000D02*
X133000000Y-106700000D01*
%TO.N,Net-(ADS1-Pad30)*%
X134700000Y-107550000D02*
X134700000Y-106550000D01*
X133350000Y-106300000D02*
X133350000Y-105350000D01*
X133600000Y-106550000D02*
X133350000Y-106300000D01*
X134700000Y-106550000D02*
X133600000Y-106550000D01*
%TO.N,/DGND*%
X134100000Y-104050000D02*
X134100000Y-104000000D01*
X134100000Y-104000000D02*
X133650000Y-103550000D01*
X134950000Y-96900000D02*
X134950000Y-96400000D01*
X133850000Y-104500000D02*
X133850000Y-104300000D01*
X133850000Y-105350000D02*
X133850000Y-104500000D01*
X133850000Y-104300000D02*
X134100000Y-104050000D01*
X138750000Y-91900000D02*
X136700000Y-93950000D01*
X135750000Y-93950000D02*
X134350000Y-93950000D01*
X136700000Y-93950000D02*
X135750000Y-93950000D01*
X133350000Y-93950000D02*
X133350000Y-95300000D01*
X134950000Y-96900000D02*
X136300000Y-96900000D01*
X133350000Y-95300000D02*
X134950000Y-96900000D01*
X136300000Y-103400000D02*
X136300000Y-104200000D01*
X136300000Y-104200000D02*
X136250000Y-104250000D01*
X136300000Y-98900000D02*
X135350000Y-98900000D01*
X135350000Y-98900000D02*
X135100000Y-98650000D01*
X135100000Y-98650000D02*
X135100000Y-98150000D01*
X135350000Y-97900000D02*
X136300000Y-97900000D01*
X135100000Y-98150000D02*
X135350000Y-97900000D01*
X134350000Y-93950000D02*
X134400000Y-94000000D01*
X136300000Y-97400000D02*
X136300000Y-97900000D01*
X136300000Y-96900000D02*
X136300000Y-97400000D01*
X136300000Y-98900000D02*
X136300000Y-99400000D01*
%TO.N,/MOSI*%
X136300000Y-102900000D02*
X137250000Y-102900000D01*
X137550000Y-104750000D02*
X138750000Y-105950000D01*
X137550000Y-104650000D02*
X137550000Y-104750000D01*
X137550000Y-104450000D02*
X137550000Y-104650000D01*
X137550000Y-103550000D02*
X137550000Y-104450000D01*
X137550000Y-103200000D02*
X137550000Y-103550000D01*
X137250000Y-102900000D02*
X137550000Y-103200000D01*
%TO.N,/DVDD*%
X136300000Y-102400000D02*
X134900000Y-102400000D01*
X133850000Y-93950000D02*
X133850000Y-94900000D01*
X133850000Y-94900000D02*
X134100000Y-95150000D01*
X134100000Y-95150000D02*
X136300000Y-95150000D01*
X136750000Y-91900000D02*
X136750000Y-92300000D01*
X136750000Y-92300000D02*
X136200000Y-92850000D01*
X133850000Y-93950000D02*
X133850000Y-93000000D01*
X134000000Y-92850000D02*
X136200000Y-92850000D01*
X136200000Y-92850000D02*
X136250000Y-92850000D01*
X133850000Y-93000000D02*
X134000000Y-92850000D01*
X136300000Y-95150000D02*
X136300000Y-95900000D01*
%TO.N,/~{RESET}*%
X136300000Y-101900000D02*
X137400000Y-101900000D01*
X137550000Y-102350000D02*
X138750000Y-103550000D01*
X137550000Y-102050000D02*
X137550000Y-102350000D01*
X137400000Y-101900000D02*
X137550000Y-102050000D01*
X138750000Y-103550000D02*
X138750000Y-103950000D01*
X138750000Y-103950000D02*
X138750000Y-103400000D01*
X138600000Y-103800000D02*
X138750000Y-103950000D01*
%TO.N,/CLK*%
X136300000Y-101400000D02*
X134900000Y-101400000D01*
X137800000Y-107950000D02*
X138750000Y-107950000D01*
X135600000Y-105750000D02*
X137800000Y-107950000D01*
X135600000Y-104600000D02*
X135600000Y-105750000D01*
X134150000Y-103150000D02*
X135600000Y-104600000D01*
X134150000Y-102150000D02*
X134150000Y-103150000D01*
X134900000Y-101400000D02*
X134150000Y-102150000D01*
%TO.N,/START*%
X136300000Y-100900000D02*
X137550000Y-100900000D01*
X137700000Y-100900000D02*
X138750000Y-101950000D01*
X137550000Y-100900000D02*
X137700000Y-100900000D01*
%TO.N,/~{CS}*%
X138750000Y-99950000D02*
X138300000Y-100400000D01*
X138300000Y-100400000D02*
X136300000Y-100400000D01*
%TO.N,/SPI_CLK*%
X138750000Y-97950000D02*
X137550000Y-99150000D01*
X137300000Y-99900000D02*
X136300000Y-99900000D01*
X137550000Y-99650000D02*
X137300000Y-99900000D01*
X137550000Y-99150000D02*
X137550000Y-99650000D01*
%TO.N,/MISO*%
X138750000Y-95950000D02*
X137550000Y-97150000D01*
X137300000Y-98400000D02*
X136300000Y-98400000D01*
X137550000Y-98150000D02*
X137300000Y-98400000D01*
X137550000Y-97150000D02*
X137550000Y-98150000D01*
%TO.N,/~{DRDY}*%
X138750000Y-93950000D02*
X137550000Y-95150000D01*
X137350000Y-96400000D02*
X136300000Y-96400000D01*
X137550000Y-96200000D02*
X137350000Y-96400000D01*
X137550000Y-95150000D02*
X137550000Y-96200000D01*
%TO.N,/CLKSEL*%
X132850000Y-93100000D02*
X132850000Y-93950000D01*
X132850000Y-93100000D02*
X133250000Y-92700000D01*
%TO.N,Net-(ADS1-Pad55)*%
X131350000Y-93950000D02*
X131350000Y-91900000D01*
X131350000Y-91900000D02*
X131250000Y-91800000D01*
X131250000Y-91800000D02*
X131250000Y-91550000D01*
X131250000Y-91550000D02*
X131700000Y-91100000D01*
X131700000Y-91100000D02*
X134150000Y-91100000D01*
X134150000Y-91100000D02*
X134850000Y-91800000D01*
%TO.N,/ADS1298/RLDINV*%
X124550000Y-91100000D02*
X126750000Y-91100000D01*
X123900000Y-91750000D02*
X124550000Y-91100000D01*
X126750000Y-91100000D02*
X127450000Y-91800000D01*
X127450000Y-91800000D02*
X128250000Y-91800000D01*
X128350000Y-91900000D02*
X128350000Y-93950000D01*
X128250000Y-91800000D02*
X128350000Y-91900000D01*
%TO.N,/ADS1298/RLDIN*%
X127850000Y-93950000D02*
X127850000Y-92800000D01*
X127850000Y-92800000D02*
X127750000Y-92700000D01*
%TO.N,/RDLout*%
X132800000Y-99150000D02*
X133800000Y-100150000D01*
X132800000Y-97200000D02*
X132800000Y-99150000D01*
X131650000Y-96050000D02*
X132800000Y-97200000D01*
X127200000Y-96050000D02*
X131650000Y-96050000D01*
X127200000Y-96050000D02*
X126950000Y-95800000D01*
X125550000Y-94400000D02*
X126950000Y-95800000D01*
X125550000Y-93950000D02*
X125550000Y-94400000D01*
X123900000Y-93950000D02*
X125550000Y-93950000D01*
X125550000Y-91800000D02*
X125550000Y-93950000D01*
X127350000Y-95400000D02*
X127350000Y-93950000D01*
X126950000Y-95800000D02*
X127350000Y-95400000D01*
%TO.N,Net-(ADS1-Pad64)*%
X126850000Y-92700000D02*
X126850000Y-93950000D01*
%TO.N,/AGND*%
X124000000Y-104050000D02*
X124250000Y-104050000D01*
X124000000Y-104050000D02*
X123200000Y-104050000D01*
X123200000Y-104050000D02*
X122900000Y-103750000D01*
X122900000Y-103750000D02*
X122900000Y-103500000D01*
X122900000Y-103500000D02*
X122900000Y-96150000D01*
X122900000Y-96150000D02*
X123550000Y-95500000D01*
X124400000Y-106400000D02*
X123300000Y-107500000D01*
X124500000Y-106300000D02*
X124400000Y-106400000D01*
X124500000Y-104300000D02*
X124500000Y-106300000D01*
X124250000Y-104050000D02*
X124500000Y-104300000D01*
%TD*%
%TA.AperFunction,Conductor*%
%TO.N,/AVSS*%
G36*
X135658512Y-106596393D02*
G01*
X135662343Y-106599852D01*
X137998622Y-108798703D01*
X138001328Y-108801328D01*
X138150000Y-108950000D01*
X139374000Y-108950000D01*
X139442121Y-108970002D01*
X139488614Y-109023658D01*
X139500000Y-109076000D01*
X139500000Y-109974000D01*
X139479998Y-110042121D01*
X139426342Y-110088614D01*
X139374000Y-110100000D01*
X135576000Y-110100000D01*
X135507879Y-110079998D01*
X135461386Y-110026342D01*
X135450000Y-109974000D01*
X135450000Y-106691617D01*
X135470002Y-106623496D01*
X135523658Y-106577003D01*
X135593932Y-106566899D01*
X135658512Y-106596393D01*
G37*
%TD.AperFunction*%
%TD*%
%TA.AperFunction,Conductor*%
%TO.N,/AVSS*%
G36*
X126270969Y-106631712D02*
G01*
X126326724Y-106675666D01*
X126349864Y-106742785D01*
X126350000Y-106748630D01*
X126350000Y-109600000D01*
X129924000Y-109600000D01*
X129992121Y-109620002D01*
X130038614Y-109673658D01*
X130050000Y-109726000D01*
X130050000Y-109974000D01*
X130029998Y-110042121D01*
X129976342Y-110088614D01*
X129924000Y-110100000D01*
X124326000Y-110100000D01*
X124257879Y-110079998D01*
X124211386Y-110026342D01*
X124200000Y-109974000D01*
X124200000Y-108554045D01*
X124220002Y-108485924D01*
X124239159Y-108462751D01*
X126137160Y-106657335D01*
X126200302Y-106624879D01*
X126270969Y-106631712D01*
G37*
%TD.AperFunction*%
%TD*%
%TA.AperFunction,Conductor*%
%TO.N,/AGND*%
G36*
X123146732Y-103770002D02*
G01*
X123161124Y-103780776D01*
X123166224Y-103785195D01*
X123166225Y-103785196D01*
X123288268Y-103863629D01*
X123427464Y-103904500D01*
X123572536Y-103904500D01*
X123711732Y-103863629D01*
X123833775Y-103785196D01*
X123833775Y-103785195D01*
X123841356Y-103780324D01*
X123842451Y-103782028D01*
X123896412Y-103757383D01*
X123914349Y-103756100D01*
X123962141Y-103756100D01*
X124030262Y-103776102D01*
X124032143Y-103777335D01*
X124050697Y-103789733D01*
X124050699Y-103789734D01*
X124124933Y-103804500D01*
X125574000Y-103804499D01*
X125642121Y-103824501D01*
X125688614Y-103878157D01*
X125700000Y-103930499D01*
X125700000Y-104694236D01*
X125679998Y-104762357D01*
X125672873Y-104771875D01*
X125671223Y-104774442D01*
X125610958Y-104906403D01*
X125590312Y-105050000D01*
X125610958Y-105193596D01*
X125671223Y-105325558D01*
X125676095Y-105333139D01*
X125674273Y-105334309D01*
X125698717Y-105387828D01*
X125700000Y-105405764D01*
X125700000Y-105500000D01*
X125831015Y-105500000D01*
X125883356Y-105511386D01*
X125888267Y-105513628D01*
X125888268Y-105513629D01*
X126027464Y-105554500D01*
X126124000Y-105554500D01*
X126192121Y-105574502D01*
X126238614Y-105628158D01*
X126250000Y-105680500D01*
X126250000Y-106084430D01*
X126229998Y-106152551D01*
X126176342Y-106199044D01*
X126153253Y-106206987D01*
X126121724Y-106214512D01*
X126117346Y-106216186D01*
X126117109Y-106216262D01*
X126116884Y-106216370D01*
X126112556Y-106218162D01*
X126077674Y-106238301D01*
X126074657Y-106239988D01*
X126039269Y-106259143D01*
X126035456Y-106261905D01*
X126035262Y-106262031D01*
X126035092Y-106262176D01*
X126031350Y-106265048D01*
X126002870Y-106293526D01*
X126000388Y-106295940D01*
X124373221Y-107835937D01*
X124309997Y-107868235D01*
X124239347Y-107861224D01*
X124183704Y-107817129D01*
X124160732Y-107749952D01*
X124160686Y-107740103D01*
X124200000Y-106600000D01*
X124200000Y-106502190D01*
X124220002Y-106434069D01*
X124236900Y-106413099D01*
X124400000Y-106250000D01*
X124400000Y-104300000D01*
X124399999Y-104299998D01*
X124300001Y-104200000D01*
X124300000Y-104200000D01*
X122926000Y-104200000D01*
X122857879Y-104179998D01*
X122811386Y-104126342D01*
X122800000Y-104074000D01*
X122800000Y-103876000D01*
X122820002Y-103807879D01*
X122873658Y-103761386D01*
X122926000Y-103750000D01*
X123078611Y-103750000D01*
X123146732Y-103770002D01*
G37*
%TD.AperFunction*%
%TD*%
%TA.AperFunction,Conductor*%
%TO.N,/DGND*%
G36*
X137136021Y-103820002D02*
G01*
X137182514Y-103873658D01*
X137193900Y-103926000D01*
X137193900Y-104796880D01*
X137218166Y-104887446D01*
X137218169Y-104887454D01*
X137265046Y-104968647D01*
X137265048Y-104968649D01*
X137265049Y-104968651D01*
X137834245Y-105537847D01*
X137868269Y-105600158D01*
X137864983Y-105665876D01*
X137835803Y-105755685D01*
X137815380Y-105949999D01*
X137835805Y-106144323D01*
X137893833Y-106322914D01*
X137900000Y-106361850D01*
X137900000Y-107242208D01*
X137879998Y-107310329D01*
X137826342Y-107356822D01*
X137756068Y-107366926D01*
X137691488Y-107337432D01*
X137684905Y-107331303D01*
X135993005Y-105639403D01*
X135958979Y-105577091D01*
X135956100Y-105550308D01*
X135956100Y-104657044D01*
X135956101Y-104657031D01*
X135956101Y-104553119D01*
X135956100Y-104553117D01*
X135936961Y-104481690D01*
X135936959Y-104481683D01*
X135931833Y-104462550D01*
X135931831Y-104462545D01*
X135916881Y-104436651D01*
X135900000Y-104373651D01*
X135900000Y-103926000D01*
X135920002Y-103857879D01*
X135973658Y-103811386D01*
X136026000Y-103800000D01*
X137067900Y-103800000D01*
X137136021Y-103820002D01*
G37*
%TD.AperFunction*%
%TD*%
%TA.AperFunction,Conductor*%
%TO.N,/DGND*%
G36*
X133742121Y-101920002D02*
G01*
X133788614Y-101973658D01*
X133800000Y-102026000D01*
X133800000Y-102063765D01*
X133795708Y-102096372D01*
X133793900Y-102103119D01*
X133793900Y-103196880D01*
X133818166Y-103287446D01*
X133818169Y-103287454D01*
X133865046Y-103368647D01*
X133865048Y-103368649D01*
X133865049Y-103368651D01*
X134463096Y-103966698D01*
X134497120Y-104029009D01*
X134500000Y-104055792D01*
X134500000Y-104174000D01*
X134479998Y-104242121D01*
X134426342Y-104288614D01*
X134374000Y-104300000D01*
X132276000Y-104300000D01*
X132207879Y-104279998D01*
X132161386Y-104226342D01*
X132150000Y-104174000D01*
X132150000Y-104052190D01*
X132170002Y-103984069D01*
X132186900Y-103963099D01*
X132600000Y-103550000D01*
X132600000Y-103526347D01*
X132616881Y-103463347D01*
X132631833Y-103437450D01*
X132656100Y-103346881D01*
X132656100Y-102026000D01*
X132676102Y-101957879D01*
X132729758Y-101911386D01*
X132782100Y-101900000D01*
X133674000Y-101900000D01*
X133742121Y-101920002D01*
G37*
%TD.AperFunction*%
%TD*%
%TA.AperFunction,Conductor*%
%TO.N,/DGND*%
G36*
X135192121Y-95620002D02*
G01*
X135238614Y-95673658D01*
X135250000Y-95726000D01*
X135250000Y-96774000D01*
X135229998Y-96842121D01*
X135176342Y-96888614D01*
X135124000Y-96900000D01*
X135002190Y-96900000D01*
X134934069Y-96879998D01*
X134913095Y-96863095D01*
X133865095Y-95815095D01*
X133831069Y-95752783D01*
X133836134Y-95681968D01*
X133878681Y-95625132D01*
X133945201Y-95600321D01*
X133954190Y-95600000D01*
X135124000Y-95600000D01*
X135192121Y-95620002D01*
G37*
%TD.AperFunction*%
%TD*%
%TA.AperFunction,Conductor*%
%TO.N,/DVDD*%
G36*
X137192121Y-94220002D02*
G01*
X137238614Y-94273658D01*
X137250000Y-94326000D01*
X137250000Y-94923652D01*
X137233120Y-94986651D01*
X137218168Y-95012547D01*
X137218166Y-95012553D01*
X137193900Y-95103119D01*
X137193900Y-95174000D01*
X137173898Y-95242121D01*
X137120242Y-95288614D01*
X137067900Y-95300000D01*
X134926000Y-95300000D01*
X134857879Y-95279998D01*
X134811386Y-95226342D01*
X134800000Y-95174000D01*
X134800000Y-94432100D01*
X134820002Y-94363979D01*
X134873658Y-94317486D01*
X134926000Y-94306100D01*
X136746879Y-94306100D01*
X136746881Y-94306100D01*
X136837450Y-94281833D01*
X136918651Y-94234951D01*
X136918655Y-94234946D01*
X136925203Y-94229923D01*
X136926467Y-94231570D01*
X136979010Y-94202879D01*
X137005793Y-94200000D01*
X137124000Y-94200000D01*
X137192121Y-94220002D01*
G37*
%TD.AperFunction*%
%TD*%
%TA.AperFunction,Conductor*%
%TO.N,/DVDD*%
G36*
X137004000Y-93090208D02*
G01*
X136983998Y-93158329D01*
X136967095Y-93179303D01*
X136589403Y-93556995D01*
X136527091Y-93591021D01*
X136500308Y-93593900D01*
X134880499Y-93593900D01*
X134812378Y-93573898D01*
X134765885Y-93520242D01*
X134754499Y-93467900D01*
X134754499Y-93174936D01*
X134754498Y-93174929D01*
X134752421Y-93164486D01*
X134750000Y-93139905D01*
X134750000Y-92576000D01*
X134770002Y-92507879D01*
X134823658Y-92461386D01*
X134876000Y-92450000D01*
X135441000Y-92450000D01*
X135509121Y-92470002D01*
X135555614Y-92523658D01*
X135567000Y-92576000D01*
X135567000Y-92623597D01*
X135573505Y-92684093D01*
X135624555Y-92820964D01*
X135624555Y-92820965D01*
X135712095Y-92937904D01*
X135829034Y-93025444D01*
X135965906Y-93076494D01*
X136026402Y-93082999D01*
X136026415Y-93083000D01*
X136496000Y-93083000D01*
X136496000Y-92211686D01*
X136504394Y-92220080D01*
X136595606Y-92272741D01*
X136697339Y-92300000D01*
X136802661Y-92300000D01*
X136904394Y-92272741D01*
X136995606Y-92220080D01*
X137004000Y-92211686D01*
X137004000Y-93090208D01*
G37*
%TD.AperFunction*%
%TD*%
%TA.AperFunction,Conductor*%
%TO.N,/DGND*%
G36*
X137768032Y-92986134D02*
G01*
X137824868Y-93028681D01*
X137849679Y-93095201D01*
X137850000Y-93104190D01*
X137850000Y-93115426D01*
X137836140Y-93162628D01*
X137840015Y-93164234D01*
X137835266Y-93175698D01*
X137820500Y-93249930D01*
X137820500Y-93874000D01*
X137800498Y-93942121D01*
X137746842Y-93988614D01*
X137694500Y-94000000D01*
X137552190Y-94000000D01*
X137484069Y-93979998D01*
X137463095Y-93963095D01*
X137450000Y-93950000D01*
X137350000Y-93850000D01*
X137104190Y-93850000D01*
X137036069Y-93829998D01*
X136989576Y-93776342D01*
X136979472Y-93706068D01*
X137008966Y-93641488D01*
X137015095Y-93634905D01*
X137634905Y-93015095D01*
X137697217Y-92981069D01*
X137768032Y-92986134D01*
G37*
%TD.AperFunction*%
%TD*%
%TA.AperFunction,Conductor*%
%TO.N,/RDLout*%
G36*
X131665931Y-95920002D02*
G01*
X131686905Y-95936905D01*
X133063095Y-97313095D01*
X133097121Y-97375407D01*
X133100000Y-97402190D01*
X133100000Y-99050000D01*
X133856972Y-99712351D01*
X133895066Y-99772261D01*
X133900000Y-99807175D01*
X133900000Y-100097810D01*
X133879998Y-100165931D01*
X133863095Y-100186905D01*
X133536905Y-100513095D01*
X133474593Y-100547121D01*
X133447810Y-100550000D01*
X131749998Y-100550000D01*
X131561076Y-100738923D01*
X131498764Y-100772949D01*
X131427949Y-100767884D01*
X131371113Y-100725337D01*
X131346302Y-100658817D01*
X131346007Y-100652393D01*
X131292987Y-98027868D01*
X131294241Y-98007431D01*
X131309688Y-97900000D01*
X131289042Y-97756404D01*
X131288351Y-97751598D01*
X131287095Y-97736230D01*
X131274358Y-97105755D01*
X131285718Y-97050872D01*
X131289042Y-97043596D01*
X131309688Y-96900000D01*
X131289042Y-96756404D01*
X131277127Y-96730314D01*
X131265768Y-96680523D01*
X131252597Y-96028545D01*
X131271219Y-95960034D01*
X131323925Y-95912467D01*
X131378571Y-95900000D01*
X131597810Y-95900000D01*
X131665931Y-95920002D01*
G37*
%TD.AperFunction*%
%TD*%
M02*
