%TF.GenerationSoftware,KiCad,Pcbnew,8.0.7*%
%TF.CreationDate,2025-04-29T18:30:47-03:00*%
%TF.ProjectId,ads_headstage_board_v4,6164735f-6865-4616-9473-746167655f62,rev?*%
%TF.SameCoordinates,Original*%
%TF.FileFunction,Soldermask,Top*%
%TF.FilePolarity,Negative*%
%FSLAX46Y46*%
G04 Gerber Fmt 4.6, Leading zero omitted, Abs format (unit mm)*
G04 Created by KiCad (PCBNEW 8.0.7) date 2025-04-29 18:30:47*
%MOMM*%
%LPD*%
G01*
G04 APERTURE LIST*
G04 Aperture macros list*
%AMRoundRect*
0 Rectangle with rounded corners*
0 $1 Rounding radius*
0 $2 $3 $4 $5 $6 $7 $8 $9 X,Y pos of 4 corners*
0 Add a 4 corners polygon primitive as box body*
4,1,4,$2,$3,$4,$5,$6,$7,$8,$9,$2,$3,0*
0 Add four circle primitives for the rounded corners*
1,1,$1+$1,$2,$3*
1,1,$1+$1,$4,$5*
1,1,$1+$1,$6,$7*
1,1,$1+$1,$8,$9*
0 Add four rect primitives between the rounded corners*
20,1,$1+$1,$2,$3,$4,$5,0*
20,1,$1+$1,$4,$5,$6,$7,0*
20,1,$1+$1,$6,$7,$8,$9,0*
20,1,$1+$1,$8,$9,$2,$3,0*%
G04 Aperture macros list end*
%ADD10RoundRect,0.200000X-0.750000X-0.150000X0.750000X-0.150000X0.750000X0.150000X-0.750000X0.150000X0*%
%ADD11RoundRect,0.200000X0.150000X-0.750000X0.150000X0.750000X-0.150000X0.750000X-0.150000X-0.750000X0*%
%ADD12RoundRect,0.200000X-0.675000X-0.675000X0.675000X-0.675000X0.675000X0.675000X-0.675000X0.675000X0*%
%ADD13C,1.750000*%
%ADD14RoundRect,0.200000X0.600000X0.375000X-0.600000X0.375000X-0.600000X-0.375000X0.600000X-0.375000X0*%
%ADD15RoundRect,0.200000X-0.600000X-0.375000X0.600000X-0.375000X0.600000X0.375000X-0.600000X0.375000X0*%
%ADD16RoundRect,0.200000X-0.375000X0.600000X-0.375000X-0.600000X0.375000X-0.600000X0.375000X0.600000X0*%
%ADD17RoundRect,0.200000X0.675000X-0.675000X0.675000X0.675000X-0.675000X0.675000X-0.675000X-0.675000X0*%
%ADD18RoundRect,0.200000X-0.450000X0.600000X-0.450000X-0.600000X0.450000X-0.600000X0.450000X0.600000X0*%
%ADD19RoundRect,0.200000X-0.375000X-0.600000X0.375000X-0.600000X0.375000X0.600000X-0.375000X0.600000X0*%
G04 APERTURE END LIST*
D10*
%TO.C,ADS1298*%
X124900000Y-95900000D03*
X124900000Y-96400000D03*
X124900000Y-96900000D03*
X124900000Y-97400000D03*
X124900000Y-97900000D03*
X124900000Y-98400000D03*
X124900000Y-98900000D03*
X124900000Y-99400000D03*
X124900000Y-99900000D03*
X124900000Y-100400000D03*
X124900000Y-100900000D03*
X124900000Y-101400000D03*
X124900000Y-101900000D03*
X124900000Y-102400000D03*
X124900000Y-102900000D03*
X124900000Y-103400000D03*
D11*
X126850000Y-105350000D03*
X127350000Y-105350000D03*
X127850000Y-105350000D03*
X128350000Y-105350000D03*
X128850000Y-105350000D03*
X129350000Y-105350000D03*
X129850000Y-105350000D03*
X130350000Y-105350000D03*
X130850000Y-105350000D03*
X131350000Y-105350000D03*
X131850000Y-105350000D03*
X132350000Y-105350000D03*
X132850000Y-105350000D03*
X133350000Y-105350000D03*
X133850000Y-105350000D03*
X134350000Y-105350000D03*
D10*
X136300000Y-103400000D03*
X136300000Y-102900000D03*
X136300000Y-102400000D03*
X136300000Y-101900000D03*
X136300000Y-101400000D03*
X136300000Y-100900000D03*
X136300000Y-100400000D03*
X136300000Y-99900000D03*
X136300000Y-99400000D03*
X136300000Y-98900000D03*
X136300000Y-98400000D03*
X136300000Y-97900000D03*
X136300000Y-97400000D03*
X136300000Y-96900000D03*
X136300000Y-96400000D03*
X136300000Y-95900000D03*
D11*
X134350000Y-93950000D03*
X133850000Y-93950000D03*
X133350000Y-93950000D03*
X132850000Y-93950000D03*
X132350000Y-93950000D03*
X131850000Y-93950000D03*
X131350000Y-93950000D03*
X130850000Y-93950000D03*
X130350000Y-93950000D03*
X129850000Y-93950000D03*
X129350000Y-93950000D03*
X128850000Y-93950000D03*
X128350000Y-93950000D03*
X127850000Y-93950000D03*
X127350000Y-93950000D03*
X126850000Y-93950000D03*
%TD*%
D12*
%TO.C,APwd1*%
X123450000Y-105200000D03*
D13*
X123450000Y-107200000D03*
X123450000Y-109200000D03*
%TD*%
D14*
%TO.C,C1*%
X127450000Y-91800000D03*
X125550000Y-91800000D03*
%TD*%
D15*
%TO.C,C9*%
X127350000Y-108900000D03*
X129250000Y-108900000D03*
%TD*%
D16*
%TO.C,C10*%
X130850000Y-107550000D03*
X130850000Y-109450000D03*
%TD*%
D15*
%TO.C,C11*%
X127350000Y-107700000D03*
X129250000Y-107700000D03*
%TD*%
%TO.C,C12*%
X129350000Y-91800000D03*
X131250000Y-91800000D03*
%TD*%
D16*
%TO.C,C13*%
X132150000Y-107550000D03*
X132150000Y-109450000D03*
%TD*%
D15*
%TO.C,C14*%
X132950000Y-91800000D03*
X134850000Y-91800000D03*
%TD*%
D16*
%TO.C,C15*%
X133450000Y-107550000D03*
X133450000Y-109450000D03*
%TD*%
%TO.C,C16*%
X134700000Y-107550000D03*
X134700000Y-109450000D03*
%TD*%
D17*
%TO.C,DPwd1*%
X136750000Y-91900000D03*
D13*
X138750000Y-91900000D03*
%TD*%
D18*
%TO.C,R1*%
X123900000Y-91800000D03*
X123900000Y-94000000D03*
%TD*%
D12*
%TO.C,SPI1*%
X138750000Y-93950000D03*
D13*
X138750000Y-95950000D03*
X138750000Y-97950000D03*
X138750000Y-99950000D03*
X138750000Y-101950000D03*
X138750000Y-103950000D03*
X138750000Y-105950000D03*
X138750000Y-107950000D03*
%TD*%
D19*
%TO.C,jDGND1*%
X136400000Y-93800000D03*
%TD*%
M02*
